<?xml version="1.0" encoding="UTF-8" standalone="no"?><!DOCTYPE svg PUBLIC "-//W3C//DTD SVG 1.1//EN" "http://www.w3.org/Graphics/SVG/1.1/DTD/svg11.dtd"><svg width="100%" height="100%" viewBox="0 0 241 232" version="1.1" xmlns="http://www.w3.org/2000/svg" xmlns:xlink="http://www.w3.org/1999/xlink" xml:space="preserve" xmlns:serif="http://www.serif.com/" style="fill-rule:evenodd;clip-rule:evenodd;stroke-linejoin:round;stroke-miterlimit:2;"><ellipse cx="120.217" cy="115.42" rx="119.353" ry="114.854" style="fill:#e3cd9e;"/><path d="M185.929,188.877c-0.362,-0.032 -0.717,0.002 -1.064,0.1c-0.205,0.293 -0.488,0.461 -0.852,0.501c-1.626,0.019 -3.257,-0.116 -4.896,-0.4c-2.029,-0.099 -4.016,0.102 -5.96,0.601c-10.156,-0.553 -20.303,-0.485 -30.442,0.2c-0.996,-0.034 -1.989,0 -2.98,0.101c-0.263,0.046 -0.476,0.146 -0.638,0.3c-1.274,-0.052 -2.48,-0.252 -3.619,-0.601c-0.987,-0.004 -1.944,0.13 -2.874,0.401c-0.639,-0.066 -1.277,-0.135 -1.916,-0.201c-0.423,0.014 -0.742,0.149 -0.958,0.401c-0.764,0.261 -1.473,0.593 -2.129,1.002c-1.086,0.219 -2.15,0.419 -3.193,0.601l-0.213,0c-1.917,-0.034 -3.833,0 -5.747,0.101c-0.195,0.056 -0.337,0.156 -0.426,0.3c-4.862,0.056 -9.687,0.191 -14.476,0.401c-1.143,-0.022 -2.278,0.046 -3.406,0.2c-2.63,-0.018 -5.255,0.083 -7.876,0.301c-0.458,0.02 -0.813,0.186 -1.064,0.501c-1.069,-0 -2.133,-0.068 -3.193,-0.2c-0.802,-0.02 -1.512,0.18 -2.129,0.601c-5.934,0.669 -11.895,0.904 -17.882,0.701c-0.645,-0.403 -1.354,-0.637 -2.128,-0.701c-0.224,-0.353 -0.579,-0.485 -1.065,-0.401c-1.023,-0.198 -2.087,-0.265 -3.193,-0.2c-1.452,0.03 -2.871,-0.139 -4.258,-0.501c0.754,-0.067 1.002,-0.433 0.746,-1.103c-0.389,-0.12 -0.779,-0.254 -1.171,-0.4c-1.697,-0.201 -3.4,-0.267 -5.109,-0.201c-0.257,-0.146 -0.541,-0.214 -0.852,-0.2c-0.151,-0.181 -0.364,-0.249 -0.638,-0.201c-0.266,-1.597 -1.26,-2.465 -2.981,-2.605l-0.425,0c-0.024,-0.124 -0.095,-0.224 -0.213,-0.301c-1.02,-0.044 -2.014,-0.21 -2.981,-0.501c-0.402,-0.693 -0.509,-1.428 -0.319,-2.204c0.461,-0.329 0.78,-0.729 0.958,-1.202c2.538,-1.227 5.199,-2.229 7.983,-3.006c0.071,0.066 0.142,0.134 0.213,0.2c1.732,-0.984 3.613,-1.551 5.641,-1.703c0.335,-0.317 0.725,-0.55 1.171,-0.702c2.667,-0.515 5.363,-0.982 8.089,-1.403c0.231,0.159 0.479,0.293 0.745,0.401c0.555,-0.607 1.229,-0.741 2.022,-0.401c0.531,-0.066 0.992,-0.266 1.384,-0.601c0.524,-0.018 1.057,-0.018 1.597,0c0.39,-0.272 0.78,-0.339 1.171,-0.2c2.192,-0.628 4.428,-1.097 6.705,-1.403c1.412,0.136 2.76,0.202 4.045,0.2c0.398,-0.114 0.788,-0.246 1.171,-0.401c0.509,0.143 0.97,0.008 1.383,-0.4c0.071,0.134 0.142,0.266 0.213,0.4c0.237,-0.242 0.485,-0.242 0.745,0c0.492,-0.412 1.024,-0.547 1.597,-0.4c0.355,-0.135 0.709,-0.267 1.064,-0.401c0.202,0.104 0.38,0.238 0.532,0.401c0.343,-0.211 0.698,-0.211 1.065,-0c0.417,-0.075 0.807,-0.209 1.17,-0.401c0.155,0.112 0.332,0.178 0.533,0.2c2.036,-0.731 4.093,-0.799 6.173,-0.2c0.78,0.086 1.596,-0.046 2.448,-0.401c0.719,0.172 1.5,0.104 2.342,-0.2c0.832,0.284 1.754,0.418 2.767,0.4c1.52,-0.14 3.082,-0.14 4.683,0c0.814,-0.038 1.559,-0.238 2.236,-0.601c0.451,-0.034 0.877,0.032 1.277,0.201c0.471,0.156 1.003,0.156 1.596,-0c0.355,0.134 0.71,0.266 1.065,0.4c0.93,-0.242 1.853,-0.509 2.767,-0.801c0.479,0.072 1.011,0.204 1.597,0.401c2.832,-0.065 5.671,-0.131 8.515,-0.201c0.484,0.094 0.91,0.295 1.277,0.601c0.821,-0.15 1.601,-0.016 2.342,0.401c0.61,-0.142 1.142,-0.411 1.596,-0.801c1.781,0.034 3.555,0.234 5.322,0.601c0.471,-0.417 1.039,-0.684 1.703,-0.802c0.756,0.145 1.537,0.211 2.342,0.201c0.425,-0.135 0.851,-0.267 1.277,-0.401c0.066,0.162 0.172,0.294 0.319,0.401c0.568,-0.125 1.1,-0.325 1.597,-0.602c0.493,-0.022 1.025,0.045 1.596,0.201c1.044,-0.433 2.073,-0.433 3.087,-0c0.817,-0.054 1.633,-0.12 2.448,-0.201c0.255,0.071 0.255,0.171 0,0.301c0.177,0.034 0.355,0.066 0.532,0.1c0.723,-0.232 1.432,-0.232 2.129,0c0.147,-0.172 0.324,-0.304 0.532,-0.401c1.242,0.131 2.449,0.199 3.619,0.201c0.401,-0.044 0.756,-0.177 1.065,-0.401c1.063,0.449 2.163,0.517 3.299,0.2c0.41,0.495 0.8,0.495 1.171,0c0.547,0.227 1.115,0.395 1.703,0.501c0.284,0.135 0.284,0.267 -0,0.401c0.335,0.088 1.237,0.273 1.384,0.1c0.035,0.101 0.474,0.363 0.745,0.101c-0.098,-0.083 -0.169,-0.183 -0.213,-0.301c0.737,-0.126 1.446,-0.327 2.129,-0.601c0.208,0.096 0.385,0.228 0.532,0.401c0.57,-0.243 1.173,-0.377 1.809,-0.401c1.033,0.072 2.097,0.072 3.193,-0c-0.017,0.555 0.724,0.906 1.703,0.801l0,-0.601c0.349,-0.042 0.669,0.024 0.958,0.201c0.171,-0.261 0.42,-0.395 0.745,-0.401c0.935,0.118 1.857,0.284 2.768,0.501c-0.254,0.204 -0.467,0.439 -0.639,0.701c0.268,-0.104 2.227,-0.461 2.555,-0.801c0.132,0.495 0.31,0.962 0.532,1.402c0.196,-0.252 0.374,-0.519 0.532,-0.801c0.834,0.617 2.088,1.056 1.809,0.801c-0.168,0.421 -0.487,0.69 -0.958,0.802c0.143,0.134 0.284,0.267 0.426,0.401c-0.238,0.657 -0.63,1.192 -1.171,1.603c-0.296,-0.224 0.958,0.868 1.171,1.203c0.143,-0.135 0.283,-0.267 0.426,-0.401c0.085,0.427 0.085,0.827 -0,1.202c0.355,-0.266 0.709,-0.266 1.064,0c0.413,-0.347 0.803,-0.679 1.171,-1.002c0.107,0.301 0.213,0.601 0.319,0.902c-0.24,0.064 -0.453,0.23 -0.638,0.501c0.142,0.401 0.283,0.802 0.426,1.202c-0.243,0.908 -0.103,0.974 0.425,0.201c0.573,0.543 0.503,0.91 -0.213,1.102c0.46,0.02 0.886,0.186 1.278,0.501c-0.877,0.515 -0.841,0.649 0.106,0.401c0.249,0.102 0.426,0.268 0.532,0.501c-0.483,0.094 -0.909,0.294 -1.277,0.601c0.273,0.136 0.522,0.104 0.745,-0.1c0.251,0.799 -0.068,1.134 -0.958,1.002c-0.017,0.555 0.09,1.09 0.32,1.603c0.07,-0.066 0.142,-0.134 0.212,-0.2c0.354,0.533 0.707,0.533 1.065,-0c0.389,0.102 0.423,0.268 0.106,0.501c-2.322,0.38 -4.664,0.581 -7.025,0.601c-1.1,0.18 -2.165,0.415 -3.193,0.701Z" style="fill:#1b1b13;"/><path d="M197.492,127.172c0.204,0.091 0.381,0.224 0.532,0.401c0.937,-0.194 1.894,-0.261 2.874,-0.2c1.109,0.554 2.173,1.155 3.193,1.803c-0.09,0.517 1.332,1.521 1.49,0.501c0.283,-0.133 0.568,-0.133 0.851,0c0.228,0.32 0.441,0.62 0.639,0.902c0.202,-0.166 0.415,-0.199 0.639,-0.1c-0.143,0.267 -0.356,0.467 -0.639,0.601c0.098,0.083 0.168,0.183 0.213,0.301c-0.283,0.2 -0.568,0.4 -0.852,0.601c0.071,0.134 0.143,0.267 0.213,0.401c-0.351,0.595 -0.777,1.13 -1.277,1.603c0.023,0.32 0.094,0.654 0.213,1.002c-0.281,0.578 -0.494,1.179 -0.639,1.804c-0.398,-0.886 -0.966,-0.92 -1.703,-0.101c0.413,0.182 0.626,0.483 0.639,0.902c-0.681,-0.082 -1.32,-0.082 -1.916,0c0.264,0.468 0.62,0.601 1.064,0.401c0.773,0.473 0.843,1.041 0.213,1.703c0.203,0.124 0.379,0.091 0.533,-0.1c0.195,0.11 0.374,0.243 0.532,0.401c-0.107,0.244 -0.177,0.478 -0.213,0.701c-0.317,0.275 -0.637,0.308 -0.958,0.101c-0.294,0.241 -0.541,0.508 -0.745,0.801l-1.703,0c-0.034,-0.275 -1.716,0.75 -3.3,0.201c-0.626,0.445 -1.3,0.511 -2.022,0.2c-0.307,0.044 -0.59,0.144 -0.852,0.301c-1.92,0.191 -3.763,0.292 -5.534,0.3c-0.628,-0.656 -1.303,-0.723 -2.023,-0.2c-0.357,-0.113 -0.64,-0.313 -0.851,-0.601c-0.23,0.378 -0.583,0.579 -1.065,0.601c-0.717,-0.204 -1.392,-0.337 -2.022,-0.401c-1.045,0.293 -2.109,0.494 -3.193,0.601l0,-1.603c-0.519,-0.076 -0.662,0.057 -0.426,0.401c-0.113,0.347 -0.325,0.614 -0.638,0.801c-4.143,0.101 -8.329,-0.033 -12.56,-0.4c-1.082,-0.324 -2.182,-0.391 -3.3,-0.201c-1.508,-0.357 -3.034,-0.624 -4.576,-0.801c-0.442,0.253 -0.868,0.219 -1.278,-0.101c-3.896,-0.109 -7.728,-0.476 -11.495,-1.102c-0.219,-0.15 -0.468,-0.283 -0.745,-0.401c-0.071,0.067 -0.142,0.134 -0.213,0.201c-1.096,-0.176 -2.195,-0.376 -3.299,-0.601c-0.297,0.024 -0.581,0.091 -0.852,0.2c-0.544,-0.251 -1.112,-0.418 -1.703,-0.501c0.258,-0.179 0.258,-0.346 0,-0.501c-0.125,0.042 -0.231,0.109 -0.319,0.2c-0.369,-0.15 -0.76,-0.25 -1.171,-0.3c-1.093,-1.13 -2.371,-2.233 -3.832,-3.307c-0.404,-0.287 -0.475,-0.622 -0.213,-1.002c-0.401,-0.181 -0.792,-0.382 -1.17,-0.601c-0.105,-0.259 -0.14,-0.527 -0.107,-0.802c0.695,-0.128 1.369,-0.128 2.022,0c0.353,-0.533 0.708,-0.533 1.065,0c0.333,-0.271 0.724,-0.405 1.171,-0.401c0.086,-0.815 0.512,-1.416 1.277,-1.803c1.301,-0.44 2.578,-0.941 3.832,-1.503c1.465,-0.344 2.955,-0.545 4.47,-0.601c0.106,-0.101 0.213,-0.201 0.319,-0.301c0.347,-0.067 0.666,0.066 0.958,0.401c0.752,-0.103 1.426,0.031 2.023,0.401c0.354,-0.134 0.709,-0.268 1.064,-0.401c1.194,0.666 2.365,0.733 3.512,0.2c0.834,0.036 1.721,0.102 2.661,0.201c0.213,-0.134 0.426,-0.268 0.639,-0.401c1.126,0.32 2.19,0.186 3.193,-0.401c0.968,0.52 1.926,0.52 2.874,-0c0.555,0.271 1.158,0.405 1.809,0.401c2.34,0.035 4.681,-0.031 7.025,-0.201c0.079,0.283 0.256,0.483 0.532,0.602c0.824,-0.528 1.64,-0.528 2.448,-0c0.177,-0.167 0.356,-0.334 0.533,-0.501c1.205,-0.005 2.375,-0.172 3.512,-0.501c0.345,0.045 0.594,0.212 0.745,0.501c-0.245,0.765 1.465,-0.844 3.832,-0.501c0.266,0.395 0.585,0.462 0.958,0.2c0.355,0.334 0.709,0.668 1.064,1.002c0.496,-0.601 1.135,-1.002 1.916,-1.202c2.003,-0.237 4.026,-0.237 6.067,-0c0.539,-0.485 0.928,-0.352 1.171,0.4c0.079,-0.183 0.185,-0.35 0.319,-0.501c0.873,0.071 1.724,0.037 2.555,-0.1Z" style="fill:#1b1b13;"/><path d="M113.832,139.196c-1.292,0.643 -2.57,1.344 -3.832,2.105c-0.568,0.066 -1.135,0.133 -1.703,0.2c-1.47,0.627 -2.96,1.128 -4.47,1.503l-22.352,0c-7.092,0.304 -14.187,0.438 -21.288,0.401l-0.213,-0c-2.725,-0.316 -5.492,-0.45 -8.302,-0.401c-1.686,-0.222 -3.389,-0.489 -5.109,-0.802c-0.702,-0.397 -1.483,-0.597 -2.342,-0.601c-0.364,-0.248 -0.79,-0.382 -1.277,-0.401c-0.991,-0.467 -1.985,-0.934 -2.98,-1.402c-0.618,-0.431 -1.328,-0.731 -2.129,-0.902c-0.315,-0.511 -0.173,-0.879 0.426,-1.102c0.057,-0.945 0.554,-1.58 1.49,-1.904c0.16,-0.135 0.231,-0.302 0.213,-0.501c0.365,-0.026 0.72,-0.093 1.064,-0.201c0.723,-0.212 1.468,-0.413 2.236,-0.601c1.108,-1.095 2.492,-1.596 4.151,-1.503c2.241,-0.816 4.477,-1.45 6.705,-1.904c0.627,0.048 1.301,0.114 2.022,0.201c1.26,-0.486 2.538,-0.753 3.832,-0.802c0.4,0.085 0.72,0.286 0.958,0.601c0.513,-0.416 1.081,-0.75 1.703,-1.002c1.886,0.252 3.766,0.052 5.641,-0.601c0.619,0.102 1.222,0.236 1.81,0.401c0.157,-0.215 0.37,-0.349 0.638,-0.401c1.069,0.066 2.063,0.133 2.981,0.2c0.409,-0.495 0.8,-0.495 1.17,0c-0.004,-0.4 0.279,-0.667 0.852,-0.801c0.407,-0.003 0.833,0.064 1.277,0.2c0.917,-0.163 1.839,-0.296 2.768,-0.401c-0.064,0.55 0.184,0.884 0.745,1.002c0.926,-0.134 0.961,-0.368 0.106,-0.701c0.107,-0.033 0.213,-0.067 0.319,-0.1c0.655,0.051 1.329,0.085 2.023,0.1c0.478,0.641 0.975,0.641 1.49,0c0.426,-0.067 0.851,-0.134 1.277,-0.2c2.591,-0.046 5.216,-0.113 7.877,-0.201c0.567,-0.067 1.135,-0.133 1.703,-0.2c0.106,-0.1 0.212,-0.201 0.319,-0.301c1.577,0.099 3.138,0.3 4.683,0.601c0.332,-0.169 0.545,-0.035 0.639,0.401c0.507,-0.25 0.932,-0.584 1.277,-1.002c0.142,0.134 0.284,0.267 0.426,0.401c0.297,-0.186 0.616,-0.186 0.958,-0c0.697,-0.259 1.371,-0.392 2.022,-0.401c0.319,0.1 0.639,0.201 0.958,0.301c0.874,1.312 2.151,1.913 3.832,1.803c0.857,0.276 1.744,0.643 2.661,1.103c-0.333,1.38 -0.652,2.783 -0.958,4.208c0.112,0.618 0.289,1.219 0.532,1.804c0.134,0.494 0.454,0.828 0.958,1.002c0.198,0.238 0.268,0.505 0.213,0.801Z" style="fill:#1b1b13;"/><path d="M170.927,151.092c0.142,0.066 0.284,0.133 0.426,0.2c0.83,0.215 1.29,0.749 1.384,1.603c0.176,-0.167 0.355,-0.334 0.532,-0.501c-0.439,-0.237 -0.475,-0.471 -0.107,-0.701c0.26,0.178 0.543,0.311 0.852,0.401c0.664,-0.183 1.339,-0.384 2.022,-0.602c0.49,0.292 0.952,0.492 1.384,0.602c0.862,-0.236 1.501,0.031 1.916,0.801c0.327,-0.265 4.325,0.037 4.683,-0.2c1.279,-0.032 2.591,0.001 3.938,0.1c0.634,0.439 2.284,1.283 2.129,1.002c0.57,-0.569 1.281,-0.87 2.129,-0.902c1.852,0.468 3.695,0.936 5.534,1.403c-0.027,0.148 0.009,0.283 0.107,0.401c0.368,-0.217 0.758,-0.249 1.171,-0.1c1.611,1.128 3.386,1.597 5.322,1.402c0.491,0.219 0.777,0.586 0.851,1.103c0.277,0.589 0.702,1.056 1.277,1.403c-0.142,0.066 -0.283,0.134 -0.425,0.2c0.344,0.625 0.202,1.126 -0.426,1.503c0.04,0.331 0.076,0.697 0.106,1.102c0.228,-0.357 0.547,-0.457 0.958,-0.3c-0.313,0.142 -0.455,0.376 -0.426,0.701c0.775,-0.152 1.095,0.114 0.958,0.802c-0.153,-0.191 -0.33,-0.225 -0.532,-0.101c0.281,0.165 0.424,0.397 0.426,0.702c-0.345,0.513 -0.841,0.845 -1.49,1.002c-1.003,0.224 -1.995,0.493 -2.98,0.801c-3.2,0.149 -6.393,0.349 -9.58,0.602c-0.125,-0.042 -0.232,-0.109 -0.319,-0.201c-1.25,0.108 -2.457,0.375 -3.619,0.802c-0.798,-0.166 -1.507,-0.501 -2.129,-1.002c-0.053,0.224 -0.159,0.425 -0.319,0.601c-0.198,-0.228 -0.375,-0.228 -0.532,0c-0.071,-0.134 -0.143,-0.266 -0.213,-0.401c-0.935,0.137 -1.856,0.337 -2.768,0.601c-0.479,-0.188 -0.975,-0.322 -1.49,-0.4c-2.307,0.29 -4.615,0.358 -6.918,0.2c-2.623,0.331 -5.283,0.399 -7.983,0.2c-2.349,-0.022 -4.655,0.113 -6.918,0.401c-0.208,0.098 -0.42,0.199 -0.639,0.301c-3.159,0.034 -6.281,0.134 -9.367,0.3c-0.274,-0.048 -0.487,0.021 -0.638,0.201c-2.097,-0.066 -4.154,0.002 -6.174,0.2c-2.783,0.08 -5.55,-0.052 -8.302,-0.401c-0.628,-0.152 -1.196,-0.42 -1.703,-0.801c-0.093,-0.315 -0.306,-0.549 -0.638,-0.702c-0.915,-0.198 -1.731,-0.565 -2.448,-1.102c-0.13,-0.515 -0.024,-0.982 0.319,-1.403c0.168,-0.056 0.31,-0.156 0.426,-0.3c-0.395,-0.852 -0.537,-1.72 -0.426,-2.605c-0.811,-1.56 -1.591,-3.131 -2.342,-4.71c0.422,-0.459 0.67,-0.994 0.745,-1.603c0.778,-0.778 1.736,-1.245 2.874,-1.403c0.385,0.272 0.704,0.205 0.958,-0.2c0.528,0.675 1.06,0.709 1.597,0.1c1.292,-0.237 2.569,-0.537 3.831,-0.902c0.627,0.319 1.195,0.253 1.703,-0.2c0.275,0.395 0.629,0.395 1.065,-0c0.223,0.177 0.471,0.31 0.745,0.4c0.869,-0.008 1.756,-0.042 2.661,-0.1c-0.286,0.366 -0.179,0.6 0.319,0.702c0.448,-0.256 0.874,-0.456 1.277,-0.602c0.213,0.134 0.426,0.268 0.639,0.401c0.26,-0.178 0.543,-0.311 0.851,-0.401c1.036,-0.115 2.065,-0.249 3.087,-0.4c0.343,0.164 0.485,0.431 0.426,0.801c0.402,0.041 0.722,-0.093 0.958,-0.401c0.426,0.134 0.851,0.268 1.277,0.401c0.293,-0.343 0.648,-0.61 1.064,-0.801c0.132,0.19 0.096,0.357 -0.106,0.501c0.573,-0.101 1.141,-0.068 1.703,0.1c0.994,-0.089 1.952,-0.29 2.874,-0.601c0.876,-0.007 1.727,0.06 2.554,0.2c0.515,-0.171 1.047,-0.304 1.597,-0.401c0.32,0.205 0.639,0.406 0.958,0.601c0.895,-0.394 1.746,-0.26 2.554,0.401c0.071,-0.2 0.142,-0.401 0.213,-0.601c0.702,0.168 1.412,0.369 2.129,0.601c0.332,-0.106 0.651,-0.239 0.958,-0.401c0.661,0.33 1.157,0.196 1.49,-0.4Z" style="fill:#1b1b13;"/><path d="M99.401,152.494c0.304,0.016 0.588,-0.05 0.851,-0.2c0.68,0.274 1.39,0.441 2.129,0.501c0.32,0.167 0.568,0.401 0.745,0.701c0.107,-0.1 0.213,-0.2 0.32,-0.3c1.189,-0.249 2.254,-0.048 3.193,0.601c0.609,0.84 1.354,1.541 2.235,2.104c0.948,1.573 1.267,3.243 0.958,5.01c-0.556,0.189 -0.981,0.523 -1.277,1.002l-0.426,0c-1.183,0.578 -2.176,1.379 -2.98,2.405c-1.811,0.7 -3.585,1.435 -5.322,2.205c-0.624,0.014 -1.191,0.146 -1.703,0.4c-0.754,0.051 -1.463,0.185 -2.129,0.401c-0.669,0.165 -1.378,0.265 -2.129,0.301c-0.118,0.076 -0.189,0.176 -0.213,0.3l-0.425,0c-1.94,0.255 -3.856,0.455 -5.748,0.602c-1.176,-0.064 -2.312,0.002 -3.406,0.2c-2.49,-0.05 -4.974,0.018 -7.451,0.2c-3.934,0.189 -7.837,0.389 -11.708,0.602c-5.252,-0.006 -10.503,0.06 -15.753,0.2c-0.485,-0.345 -1.053,-0.479 -1.703,-0.401c-1.393,-0.956 -2.883,-1.757 -4.47,-2.405c-0.172,-0.246 -0.384,-0.446 -0.639,-0.601c-0.322,-0.338 -0.606,-0.705 -0.851,-1.102c0.168,-0.327 0.381,-0.627 0.639,-0.902c0.202,-0.31 0.273,-0.643 0.212,-1.002c0.445,0.01 0.729,-0.19 0.852,-0.601c-0.158,-0.589 -0.265,-1.19 -0.319,-1.804c-0.868,-0.849 -1.613,-1.785 -2.236,-2.805c-0.229,-0.243 -0.513,-0.375 -0.851,-0.401c-0.303,-0.503 -0.657,-0.97 -1.065,-1.403c0.112,-0.539 0.467,-0.84 1.065,-0.902c0.284,-0.535 0.709,-0.936 1.277,-1.202c2.405,-0.263 4.817,-0.731 7.238,-1.403c2.096,0.097 4.154,-0.003 6.173,-0.301c0.341,0.011 0.66,0.077 0.958,0.201c0.725,-0.137 1.47,-0.337 2.235,-0.601c1.033,0.516 2.062,0.516 3.087,-0c0.535,0.152 1.102,0.218 1.703,0.2c1.079,-0.197 2.107,-0.331 3.087,-0.401c0.614,0.026 1.147,0.226 1.596,0.601c1.672,-0.178 3.41,-0.212 5.216,-0.1c0.592,0.179 1.16,0.413 1.703,0.702c0.284,-0.385 0.674,-0.585 1.171,-0.602c0.551,0.037 1.118,0.103 1.703,0.201c0.848,-0.378 1.735,-0.479 2.661,-0.301c0.133,0.151 0.239,0.318 0.319,0.501c0.307,-0.274 0.661,-0.475 1.064,-0.601c1.425,0.009 2.844,0.009 4.258,0c0.583,0.157 1.186,0.257 1.809,0.301c0.133,0.15 0.24,0.317 0.32,0.501c0.146,-0.172 0.324,-0.306 0.532,-0.401c0.603,0.016 1.241,0.05 1.916,0.1c0.265,0.366 0.514,0.332 0.745,-0.1c1.164,0.138 2.334,0.271 3.512,0.401c0.951,-0.588 1.909,-0.655 2.874,-0.201c0.386,0.002 0.705,-0.132 0.958,-0.401c0.494,0.235 0.991,0.235 1.49,0Z" style="fill:#1b1b13;"/><path d="M170.221,104.867l0.213,-0c0.326,0.327 0.752,0.494 1.277,0.501c2.414,0.119 4.826,0.252 7.238,0.401c0.62,0.026 1.118,0.26 1.49,0.701c0.496,-0.133 0.994,-0.267 1.49,-0.401c2.195,0.225 4.394,0.258 6.6,0.101c0.238,-0.05 0.451,-0.151 0.638,-0.301c3.291,-0.19 6.557,-0.524 9.792,-1.002c0.503,0.035 0.999,0.102 1.491,0.2c0.57,-0.007 1.102,0.126 1.596,0.401c0.688,0.781 1.503,1.416 2.448,1.904c0.451,0.857 1.02,1.625 1.703,2.305c0.243,0.897 0.102,1.766 -0.426,2.605c-0.723,0.481 -1.292,1.082 -1.703,1.804c-0.142,0.534 -0.283,1.068 -0.425,1.603c-0.171,0.309 -0.241,0.643 -0.213,1.002c-0.3,0.095 -0.441,0.295 -0.426,0.601c-0.143,0.067 -0.283,0.134 -0.426,0.2c-1.356,0.176 -2.705,0.176 -4.044,0c-0.315,0.491 -0.564,0.424 -0.745,-0.2c-0.273,0.447 -0.662,0.781 -1.171,1.002c-0.277,-0.118 -0.454,-0.319 -0.532,-0.601c-0.339,0.175 -0.658,0.376 -0.958,0.601c-0.154,-0.163 -0.33,-0.296 -0.533,-0.401c-0.519,0.022 -1.051,0.022 -1.596,0c-0.366,0.288 -0.792,0.454 -1.277,0.501c-1.207,0.067 -2.412,0.134 -3.619,0.201c-0.63,0.056 -1.197,0.223 -1.703,0.501c-1.316,-0.201 -2.629,-0.201 -3.938,-0c-0.399,-0.042 -0.752,-0.175 -1.065,-0.401c-0.898,0.482 -1.786,0.482 -2.661,-0c-1.324,0.121 -2.637,0.255 -3.938,0.401c-0.513,-0.393 -1.045,-0.393 -1.597,-0l-1.49,-0c-1.678,0.128 -3.31,-0.039 -4.896,-0.501c0.375,-0.622 0.73,-1.257 1.065,-1.904c-0.125,-0.301 -0.302,-0.568 -0.533,-0.802c-0.37,0.683 -0.583,1.418 -0.638,2.205c-0.249,0.279 -0.569,0.446 -0.958,0.501c-1.179,0.047 -2.35,0.147 -3.513,0.3c-1.789,-0.026 -3.599,-0.06 -5.428,-0.1c-0.558,-0.188 -1.126,-0.355 -1.703,-0.501c-0.18,-0.383 -0.252,-0.783 -0.213,-1.202c-1.557,-0.5 -2.977,-0.267 -4.257,0.701c-1.364,-0.074 -2.676,-0.041 -3.938,0.1c-1.062,-0.334 -2.162,-0.501 -3.3,-0.501c-0.142,-0.267 -0.284,-0.534 -0.426,-0.801c-0.341,-0.055 -0.66,-0.155 -0.958,-0.301c-0.902,0.399 -1.825,0.465 -2.767,0.2c-2.05,0.443 -4.073,1.011 -6.067,1.704c-0.16,0.134 -0.231,0.301 -0.213,0.501c-0.94,0.179 -1.721,0.58 -2.342,1.202l-0.425,0c-5.199,0.325 -10.379,0.259 -15.54,-0.2c-1.027,-0.114 -2.055,-0.048 -3.087,0.2c-0.645,0.044 -1.319,-0.023 -2.022,-0.2c-0.627,0.149 -1.265,0.249 -1.916,0.3c-5.288,0.094 -10.539,0.261 -15.753,0.501c-3.051,-0.01 -6.103,-0.077 -9.154,-0.2c-2.348,0.226 -4.69,0.493 -7.024,0.802c-1.278,-0.134 -2.555,-0.268 -3.832,-0.401c-3.529,0.199 -7.041,0.266 -10.538,0.2c-1.206,-0.133 -2.412,-0.267 -3.618,-0.401c-3.222,0.229 -6.451,0.263 -9.686,0.101c-1.19,-1.089 -2.609,-1.657 -4.258,-1.704c-0.712,-0.101 -1.208,-0.469 -1.49,-1.102c0.124,-0.179 0.195,-0.379 0.213,-0.601c-0.254,-0.845 -0.537,-1.68 -0.851,-2.505c-0.481,-0.437 -0.8,-0.971 -0.958,-1.604c-0.502,-0.238 -0.892,-0.572 -1.171,-1.002c-0.781,-0.61 -0.994,-1.345 -0.639,-2.204c0.224,0.03 0.437,-0.003 0.639,-0.1c0.983,-1.122 1.338,-2.425 1.064,-3.908c0.713,0.033 1.423,-0 2.129,-0.1c2.264,-0.756 4.499,-1.59 6.705,-2.505c0.213,0.133 0.426,0.267 0.639,0.401c1.805,-0.385 3.579,-0.385 5.322,-0c0.103,-0.19 0.138,-0.391 0.106,-0.602c1.235,0.331 2.441,0.264 3.619,-0.2c0.872,0.345 1.76,0.412 2.661,0.2c0.64,0.271 1.278,0.338 1.916,0.201c0.923,0.133 1.845,0.267 2.768,0.401c3.371,-0.142 6.706,-0.142 10.005,-0c2.27,-0.158 4.541,-0.359 6.812,-0.602c2.046,0.15 4.033,0.217 5.96,0.201c0.994,-0.134 1.987,-0.267 2.98,-0.401c2.383,0.226 4.76,0.159 7.132,-0.2c0.677,-0.049 1.316,-0.049 1.916,-0c0.306,-0.162 0.626,-0.295 0.958,-0.401c5.168,0.723 10.348,0.79 15.539,0.2c0.632,0.159 1.271,0.293 1.916,0.401c2.856,-0.08 5.694,-0.08 8.515,-0c5.477,1.107 11.012,1.308 16.605,0.601c3.772,0.061 7.533,0.061 11.282,0c2.028,-0.028 3.979,0.306 5.854,1.002c0.503,-0.236 1.035,-0.369 1.597,-0.401c1.8,0.119 3.539,0.453 5.215,1.002c0.494,-0.099 0.99,-0.166 1.49,-0.2Z" style="fill:#1b1b13;"/><path d="M114.726,72.746l0.398,-0c6.121,0.2 12.277,0.266 18.467,0.2c-0,0.134 0.066,0.2 0.199,0.2c0.335,0.161 0.666,0.362 0.992,0.602c1.909,-0.196 3.829,-0.263 5.759,-0.201l0.794,0c3.027,0.242 6.072,0.576 9.135,1.002c0.449,-0.194 0.912,-0.327 1.39,-0.401l3.177,0c-0,0.134 0.066,0.201 0.198,0.201c3.544,0.272 7.119,0.338 10.723,0.2l0.398,0c0.289,0.303 2.289,0.363 2.68,0.401c3.044,0.316 6.089,0.583 9.135,0.802c1.036,-0.002 1.995,-0.135 2.879,-0.401l0.199,-0c0.565,0.027 1.127,0.094 1.687,0.2c2.473,-0.338 4.955,-0.538 7.447,-0.601l0.993,-0l-0,0.2c0.111,0.259 0.31,0.426 0.595,0.501c2.129,-0.039 4.182,0.262 6.156,0.902c0.157,0.322 0.421,0.455 0.795,0.401c-0.044,0.235 0.021,0.436 0.198,0.601c0.387,-0.236 0.818,-0.37 1.291,-0.401c1.169,0.154 2.327,0.354 3.475,0.602c0.814,0.091 1.577,-0.043 2.283,-0.401c0.153,0.029 0.286,0.096 0.398,0.2c-0.006,0.421 -0.139,0.821 -0.398,1.203c-0.349,1.137 -0.051,2.005 0.894,2.605c0.133,0.2 0.264,0.401 0.397,0.601c0.016,0.894 -0.117,1.763 -0.397,2.605c-0.409,0.038 -0.806,0.138 -1.191,0.301c-1.023,0.999 -2.215,1.7 -3.575,2.104c-0.129,0.119 -0.262,0.252 -0.397,0.401c-0.371,-0.089 -2.075,0.957 -1.588,1.102c-0.358,0.341 -0.755,0.375 -1.192,0.1c-0.56,0.122 -1.088,0.322 -1.588,0.602c-0.28,-0.234 -0.511,-0.168 -0.695,0.2c-0.801,-0.608 -1.428,-0.441 -1.887,0.501c-0.502,0.18 -0.931,0.079 -1.291,-0.301c-0.095,0.19 -0.129,0.391 -0.099,0.602c-0.536,0.203 -1.066,0.203 -1.589,-0c-0.389,0.504 -0.917,0.738 -1.588,0.701c-0.429,0.62 -0.957,1.121 -1.589,1.503c-0.631,0.28 -1.261,0.347 -1.886,0.2c-0.54,0.17 -1.068,0.371 -1.589,0.602c-0.357,-0.33 -0.754,-0.597 -1.191,-0.802c0.121,-0.671 -1.251,-0.588 -1.291,0c-0.57,0.198 -1.066,0.065 -1.489,-0.401c-0.217,0.371 -0.483,0.705 -0.794,1.002c-1.111,-0.119 -2.27,-0.286 -3.476,-0.501c-0.099,-0.1 -0.198,-0.2 -0.297,-0.3c-1.041,0.35 -2.101,0.417 -3.178,0.2c-0.401,0.304 -0.832,0.571 -1.29,0.802c-0.157,-0.149 -0.288,-0.316 -0.397,-0.501c-0.562,-0.043 -1.093,-0.076 -1.589,-0.101c-0.149,0.176 -0.248,0.376 -0.298,0.602c-0.073,-0.184 -0.173,-0.351 -0.298,-0.501c-1.267,-0.042 -2.526,-0.142 -3.773,-0.301c-0.498,0.375 -0.928,0.375 -1.29,0c-0.61,-0.023 -1.239,0.044 -1.887,0.2c-0.594,-0.373 -1.223,-0.373 -1.886,0c-0.203,-0.237 -0.434,-0.438 -0.695,-0.601c-0.501,-0.114 -0.965,0.019 -1.39,0.401c-0.753,-0.018 -1.382,-0.285 -1.887,-0.802c-0.307,0.775 -0.605,0.775 -0.893,0c-0.417,0.198 -0.814,0.131 -1.192,-0.2c-0.237,0.069 -0.237,0.17 0,0.301c-1.475,-0.071 -2.898,-0.038 -4.269,0.1c-0.355,-0.148 -0.718,-0.282 -1.092,-0.401c-0.51,0.138 -1.007,0.205 -1.489,0.2c-1.024,-0.263 -2.05,-0.463 -3.078,-0.601c-0.335,0.219 -0.699,0.353 -1.093,0.401c-1.045,0.03 -2.104,-0.037 -3.177,-0.2c-0.103,0.203 -0.268,0.337 -0.496,0.4c-0.53,-0.267 -1.059,-0.267 -1.589,0c-0.246,-0.107 -0.478,-0.241 -0.695,-0.4c-1.169,-0.058 -2.394,0.075 -3.673,0.4c-0.513,-0.026 -1.01,-0.093 -1.49,-0.2c-0.718,0.359 -1.48,0.359 -2.283,0c-0.439,0.121 -0.869,0.255 -1.291,0.401c-0.575,-0.057 -1.171,-0.057 -1.787,-0c-0.547,-0.496 -1.109,-0.496 -1.688,-0c-0.188,-0.098 -0.386,-0.164 -0.596,-0.201c-0.491,0.155 -0.987,0.288 -1.489,0.401c-1.541,-0.083 -3.03,-0.15 -4.468,-0.2c-0.976,0.125 -1.936,0.326 -2.879,0.601c-0.487,-0.072 -0.95,-0.206 -1.39,-0.401c-0.1,0.1 -0.199,0.201 -0.298,0.301c-1.132,0.089 -2.224,0.323 -3.277,0.701c-0.198,-0.133 -0.397,-0.267 -0.595,-0.401c-0.265,0.268 -0.53,0.268 -0.795,0c-0.103,0.204 -0.268,0.338 -0.496,0.401c-0.779,-0.212 -1.54,-0.212 -2.284,0c-0.343,0.03 -0.376,0.163 -0.099,0.401c-0.186,0.211 -0.418,0.345 -0.695,0.401c-0.465,-0.106 -0.928,-0.373 -1.39,-0.802c-0.209,0.452 -0.507,0.519 -0.893,0.201c-0.248,0.108 -0.48,0.242 -0.695,0.4c-0.488,-0.242 -0.984,-0.242 -1.49,0c-0.242,0.153 -0.44,0.354 -0.595,0.602c-0.138,-0.106 -0.237,-0.239 -0.298,-0.401c-0.062,0.162 -0.161,0.295 -0.298,0.401c-0.953,-0.152 -1.912,-0.219 -2.88,-0.201c-0.856,0.534 -1.717,0.534 -2.581,0c-0.737,0.23 -1.498,0.364 -2.284,0.401c-0.425,-0.023 -0.789,-0.156 -1.092,-0.401c-0.424,0.357 -0.92,0.49 -1.489,0.401c-0.025,-0.656 -0.29,-0.689 -0.794,-0.1c-0.437,0.075 -0.867,0.175 -1.291,0.301c-0.806,-0.3 -1.699,-0.434 -2.681,-0.401l0,0.601c-0.477,-0.073 -0.941,-0.207 -1.39,-0.401c-0.578,0.137 -1.075,0.404 -1.489,0.802c-0.47,-0.11 -0.9,-0.31 -1.291,-0.601c-0.514,0.087 -0.978,0.287 -1.39,0.601c-0.399,-0.17 -0.73,-0.037 -0.993,0.401c-0.562,-0.431 -1.092,-0.431 -1.588,-0c-0.372,-0.254 -0.736,-0.254 -1.092,-0c-0.359,-0.413 -0.79,-0.48 -1.291,-0.201c0.034,0.265 -0.033,0.499 -0.199,0.702c-0.632,0.093 -1.195,0.059 -1.688,-0.101c-1.017,0.374 -2.01,0.374 -2.978,0c-0.329,0.198 -0.66,0.398 -0.993,0.602c-0.165,-0.167 -0.331,-0.335 -0.496,-0.501c-0.836,-0.053 -1.663,-0.153 -2.483,-0.301c-0.888,0.336 -1.781,0.569 -2.68,0.701c0.066,-0.066 0.132,-0.133 0.198,-0.2c-0.238,-0.181 -0.404,-0.415 -0.496,-0.701c-0.999,0.167 -1.992,0.368 -2.979,0.601c-0.073,-0.283 -0.238,-0.483 -0.496,-0.601c-0.485,0.299 -1.015,0.499 -1.589,0.601c-0.312,-0.52 -0.775,-0.72 -1.39,-0.601l0,-0.602c-1.297,0.387 -2.522,0.254 -3.673,-0.4c-1.127,0.076 -2.252,-0.057 -3.376,-0.401c-0.619,0.055 -1.215,0.055 -1.787,-0c-0.1,-0.234 -0.265,-0.401 -0.497,-0.501c-0.692,-0.321 -1.42,-0.555 -2.184,-0.702c-0.574,-0.914 -1.368,-1.516 -2.383,-1.803l-0.199,-0c-0.253,-0.581 -0.253,-1.182 0,-1.804c0.123,-0.022 0.222,-0.089 0.298,-0.2c0.164,-0.678 0.131,-1.346 -0.099,-2.004c-0.312,-0.562 -0.676,-1.096 -1.092,-1.604c-0.82,-0.179 -1.416,-0.647 -1.787,-1.402c0.024,-1.335 0.024,-2.671 -0,-4.009c-0.378,-0.389 -0.544,-0.856 -0.497,-1.402c0.331,-0.201 0.596,-0.468 0.795,-0.802c0.197,0.034 0.329,-0.032 0.397,-0.2c0.927,-0.003 1.787,-0.203 2.581,-0.602l0.199,0c2.647,-0.461 5.295,-0.728 7.943,-0.801c0.278,-0.095 0.543,-0.228 0.794,-0.401c4.169,-0.183 8.339,-0.317 12.51,-0.401c2.683,-0.036 5.331,-0.17 7.943,-0.401c-0,-0.133 0.066,-0.2 0.199,-0.2c2.885,0.045 5.731,-0.089 8.538,-0.401l0.596,0c2.416,-0.083 4.799,-0.216 7.149,-0.401c1.731,0.055 3.452,-0.011 5.162,-0.2c3.51,-0.048 7.018,-0.148 10.525,-0.301c0.374,-0.039 0.704,-0.14 0.993,-0.3c1.69,-0.06 3.345,-0.194 4.964,-0.401c1.325,-0.043 2.649,-0.109 3.971,-0.2Z" style="fill:#1b1b13;"/><path d="M60.238,42.715c2.447,0.186 4.931,0.32 7.45,0.4c1.371,0.309 2.79,0.443 4.258,0.401c2.321,0.272 4.663,0.573 7.025,0.902c1.708,0.06 3.411,0.161 5.109,0.301c2.053,0.157 4.111,0.224 6.173,0.2c3.62,0.034 7.239,0 10.857,-0.1c3.033,-0.404 6.084,-0.571 9.153,-0.501c2.558,-0.022 5.113,0.045 7.664,0.2c3.013,0.074 6.065,0.074 9.154,0c0.381,-0.027 0.736,0.04 1.064,0.201c1.806,0.199 3.651,0.265 5.535,0.2c2.445,0.2 4.929,0.266 7.45,0.201c0.58,0.092 1.147,0.226 1.703,0.4l0.213,0c0.712,0.344 1.493,0.478 2.342,0.401l10.218,0c-0.028,0.148 8.507,0.617 10.005,0.702c0.886,0.435 1.844,0.669 2.874,0.701c1.022,-0.157 2.051,-0.224 3.087,-0.2c2.409,0.127 4.823,0.194 7.237,0.2l5.322,-0c2.161,0.242 4.36,0.375 6.599,0.401l0.213,-0c2.091,0.286 4.219,0.52 6.386,0.701c1.412,0.282 2.759,0.716 4.045,1.303c0.366,0.344 0.792,0.611 1.277,0.801c0.371,0.55 0.867,0.951 1.49,1.203c0.094,0.323 0.307,0.557 0.639,0.701c0.492,0.1 0.988,0.133 1.49,0.1c1.043,0.225 2.037,0.559 2.98,1.002c0.013,0.223 0.083,0.423 0.213,0.602l0,1.202c-0.283,0.267 -0.568,0.535 -0.851,0.802c-0.556,0.021 -0.982,0.255 -1.277,0.701c-1.365,0.142 -2.5,0.643 -3.406,1.503c-0.356,0.134 -0.709,0.267 -1.065,0.401c-0.181,-0.226 -0.394,-0.226 -0.638,-0c-0.333,-0.004 -0.652,-0.071 -0.958,-0.2c-0.954,0.432 -1.912,0.833 -2.874,1.202c-0.245,-0.064 -0.422,-0.197 -0.532,-0.401c-0.433,0.549 -0.965,0.682 -1.597,0.401c-0.287,0.448 -0.713,0.716 -1.277,0.802c-0.49,-0.228 -0.952,-0.495 -1.384,-0.802c-1.241,0.888 -2.554,1.49 -3.938,1.804c-0.147,-0.106 -0.253,-0.239 -0.319,-0.401c-0.215,0.168 -0.464,0.234 -0.745,0.2c0.068,-0.445 -0.073,-0.813 -0.426,-1.102c0.145,-0.631 -0.104,-1.132 -0.745,-1.503c-0,0.472 0.106,0.94 0.319,1.403c-0.304,0.344 -0.483,0.745 -0.532,1.202c-0.779,0.11 -1.418,0.444 -1.916,1.002c-0.449,-0.145 -0.875,-0.345 -1.277,-0.601c-0.326,0.239 -0.645,0.239 -0.958,0c-0.394,0.149 -0.537,0.349 -0.426,0.601c-0.283,-0.133 -0.568,-0.267 -0.851,-0.401c-0.724,0.183 -1.397,0.183 -2.023,0c-0.142,-0.133 -0.283,-0.267 -0.426,-0.4c-0.157,0.228 -0.334,0.228 -0.532,-0c-0.153,0.397 -0.4,0.731 -0.745,1.002c-0.419,-0.229 -0.811,-0.496 -1.171,-0.802c-0.189,0.165 -0.259,0.366 -0.212,0.601c-0.292,0.032 -0.577,-0.002 -0.852,-0.1c0.605,-0.767 0.392,-1.268 -0.639,-1.503c-0.715,0.061 -1.211,0.262 -1.49,0.601c-0.2,-0.021 -0.379,-0.088 -0.532,-0.2c-0.155,0.332 -0.402,0.432 -0.745,0.3c0.202,-0.143 0.238,-0.31 0.106,-0.501c-0.227,0.139 -0.474,0.239 -0.745,0.301c0.196,0.41 0.09,0.778 -0.319,1.102c-0.643,-0.464 -1.316,-0.464 -2.022,0c-0.374,-0.126 -0.694,-0.326 -0.958,-0.601c-0.157,0.215 -0.37,0.349 -0.639,0.401c-0.478,-0.292 -1.011,-0.459 -1.596,-0.501c-0.178,-0.167 -0.355,-0.334 -0.533,-0.501c-1.051,0.543 -2.151,0.676 -3.299,0.401c0.036,0.265 -0.035,0.498 -0.213,0.701c-0.599,0.33 -1.132,0.297 -1.597,-0.1c-0.653,-0.023 -1.327,0.044 -2.022,0.2c-0.361,-0.173 -0.609,-0.44 -0.745,-0.801c-0.573,0.101 -0.893,0.335 -0.958,0.701c-0.411,0.05 -0.802,0.151 -1.171,0.301c-0.142,-0.134 -0.283,-0.268 -0.425,-0.401c-0.355,0.267 -0.71,0.267 -1.065,-0c-0.346,0.615 -0.807,0.716 -1.383,0.3c0.141,-0.133 0.283,-0.267 0.425,-0.4c-0.348,-0.099 -0.702,-0.133 -1.064,-0.101l-0,0.602c-0.362,-0.026 -0.681,-0.159 -0.958,-0.401c-0.665,0.524 -1.41,0.925 -2.235,1.202c-0.399,-0.254 -0.789,-0.254 -1.171,0c-0.273,-0.215 -0.344,-0.482 -0.213,-0.801c-0.638,-0.554 -1.383,-0.721 -2.235,-0.501c-0.661,0.969 -1.406,1.07 -2.235,0.3c-0.431,0.299 -0.785,0.232 -1.065,-0.2c-0.604,0.169 -0.994,0.536 -1.171,1.102c-0.385,-0.009 -0.74,0.024 -1.064,0.1c-0.208,-0.095 -0.385,-0.229 -0.532,-0.401c-0.151,0.296 -0.399,0.429 -0.745,0.401l-0,-0.801c0.38,0.057 0.735,-0.01 1.064,-0.201c-0.213,-0.067 -0.426,-0.133 -0.638,-0.2c-0.424,0.133 -0.814,0.133 -1.171,-0c-0.142,0.267 -0.284,0.534 -0.426,0.801c-0.417,-0.158 -0.737,-0.425 -0.958,-0.801c-0.276,0.118 -0.454,0.318 -0.532,0.601c-0.693,-0.02 -1.403,-0.087 -2.129,-0.2c-0.071,0.133 -0.142,0.267 -0.213,0.4c-0.254,-0.186 -0.538,-0.32 -0.851,-0.4c-0.355,0.267 -0.71,0.267 -1.065,-0c-0.562,0.08 -1.058,0.281 -1.49,0.601c-0.088,-0.092 -0.194,-0.159 -0.319,-0.201c-0.071,0.268 -0.142,0.535 -0.213,0.802c-0.142,-0.134 -0.284,-0.267 -0.426,-0.401c-0.345,0.389 -0.735,0.456 -1.17,0.201c-0.142,0.133 -0.284,0.267 -0.426,0.4c-0.36,-0.465 -0.751,-0.565 -1.171,-0.3c0.257,0.204 0.186,0.304 -0.213,0.3c-0.641,-0.553 -1.102,-0.42 -1.384,0.401c-0.287,-1.042 -0.536,-1.042 -0.745,0c-0.287,-0.428 -0.642,-0.495 -1.064,-0.2c0.041,-0.238 -0.065,-0.506 -0.319,-0.802c-0.107,0.201 -0.213,0.401 -0.32,0.601c-0.597,0.152 -1.165,0.352 -1.703,0.602c-0.394,-0.115 -0.785,-0.182 -1.17,-0.201c-0.158,0.215 -0.371,0.349 -0.639,0.401c-0.326,-0.239 -0.646,-0.239 -0.958,0c-0.604,-0.63 -1.243,-0.696 -1.916,-0.2c-0.32,-0.111 -0.675,-0.111 -1.064,-0c-0.071,-1.336 -0.142,-1.336 -0.213,-0c-0.742,-0.251 -1.522,-0.418 -2.342,-0.501c-0.173,-0.378 -0.457,-0.512 -0.851,-0.401c0.283,0.134 0.283,0.267 -0,0.401c-0.355,0.033 -0.71,0.066 -1.065,0.1c-0.924,-0.135 -1.846,-0.268 -2.767,-0.401l-0,0.601c-0.708,-0.197 -1.346,-0.13 -1.916,0.201c-0.52,-0.3 -1.088,-0.5 -1.703,-0.602c-0.148,0.378 -0.361,0.445 -0.639,0.201c-0.158,0.45 -0.442,0.817 -0.851,1.102c-0.611,0.063 -1.215,0.163 -1.81,0.301c-1.004,-0.485 -1.998,-0.485 -2.98,-0c-0.445,-0.016 -0.906,-0.083 -1.383,-0.201c-0.741,0.539 -1.345,0.405 -1.81,-0.401c-0.216,0.228 -0.358,0.161 -0.426,-0.2c-0.102,0.19 -0.138,0.39 -0.106,0.601c-1.195,-0.054 -2.365,-0.054 -3.513,0c-0.476,-0.111 -0.901,-0.312 -1.277,-0.601c-0.195,0.166 -0.336,0.366 -0.426,0.601c-0.157,-0.228 -0.335,-0.228 -0.532,0c-0.4,-0.229 -0.79,-0.429 -1.171,-0.601c-0.079,0.184 -0.186,0.351 -0.319,0.501c-0.851,0.036 -1.667,0.002 -2.448,-0.1c-0.494,0.132 -0.955,0.332 -1.384,0.601c-0.501,-0.119 -0.962,-0.32 -1.383,-0.601c-0.664,0.007 -1.338,0.074 -2.023,0.2c-0.142,-0.267 -0.283,-0.534 -0.425,-0.801c-0.53,0.105 -1.027,0.272 -1.49,0.501c0.141,0.066 0.283,0.133 0.425,0.2c-0.236,0.128 -0.484,0.228 -0.745,0.301c-0.712,-0.332 -1.386,-0.733 -2.022,-1.203c-0.679,0.46 -1.389,0.66 -2.129,0.601c0.142,-0.133 0.284,-0.267 0.426,-0.4c-0.28,-0.364 -0.599,-0.698 -0.958,-1.002c-0.146,0.257 -0.11,0.491 0.106,0.701c-0.318,0.102 -0.567,0.001 -0.745,-0.301c-0.332,0.345 -0.509,0.745 -0.532,1.203c-0.428,0.103 -0.854,0.136 -1.277,0.1c-0.28,-0.279 -0.209,-0.48 0.213,-0.601c-0.284,-0.067 -0.568,-0.134 -0.852,-0.201c0.446,-0.111 0.482,-0.211 0.107,-0.3c-0.812,0.295 -1.629,0.362 -2.448,0.2c-0.785,0.149 -0.927,0.449 -0.426,0.902c-0.512,0.156 -0.867,-0.011 -1.065,-0.501c-0.471,0.215 -0.968,0.349 -1.49,0.401c-0.496,-0.267 -0.993,-0.267 -1.49,-0c-0.445,0.003 -0.836,-0.131 -1.171,-0.401c-0.146,0.172 -0.324,0.305 -0.532,0.401c-0.673,-0.164 -1.276,-0.431 -1.809,-0.802c-0.131,0.324 -0.344,0.591 -0.639,0.802c-0.283,-0.199 -0.567,-0.4 -0.851,-0.601c-0.443,0.204 -0.798,0.07 -1.065,-0.401c-0.737,0.516 -1.482,0.516 -2.235,-0c-0.448,0.166 -0.874,0.233 -1.277,0.2c-0.56,-0.478 -0.986,-0.344 -1.277,0.401c-0.399,-0.288 -0.825,-0.521 -1.278,-0.701c-0.297,-0.12 -0.581,-0.086 -0.851,0.1c-0.412,-0.414 -0.873,-0.414 -1.384,-0c-0.268,-0.052 -0.481,-0.186 -0.638,-0.401c-0.336,0.27 -0.726,0.404 -1.171,0.401c-1.391,-0.327 -2.739,-0.694 -4.045,-1.102c-0.563,-0.1 -1.131,-0.133 -1.703,-0.101c-0.035,-0.671 0.001,-1.339 0.107,-2.004c0.212,-0.2 0.425,-0.4 0.638,-0.601c0.173,-0.906 0.138,-1.774 -0.106,-2.605c-0.284,-0.134 -0.284,-0.267 -0,-0.401c0.267,-1.752 -0.266,-3.288 -1.597,-4.609c-0.716,-1.414 -0.964,-2.883 -0.745,-4.409l-1.703,-0c-0.023,-0.458 -0.2,-0.858 -0.532,-1.202c-0.071,0.066 -0.142,0.133 -0.213,0.2c-0.151,-0.295 -0.399,-0.429 -0.745,-0.401c0.033,-0.275 -0.002,-0.542 -0.106,-0.801c-0.142,0.267 -0.284,0.267 -0.426,-0c-0.142,-0.401 -0.142,-0.802 -0,-1.203c0.297,-0.263 0.51,-0.196 0.638,0.201c0.565,-0.417 1.168,-0.751 1.81,-1.002l0.426,-0c0.925,0.033 1.847,-0.001 2.767,-0.101c0.118,-0.076 0.189,-0.177 0.213,-0.3l0.213,-0c1.306,0.064 2.583,-0.069 3.831,-0.401c1.351,0.033 2.699,-0 4.045,-0.1c0.401,-0.04 0.755,-0.14 1.064,-0.301l1.065,0c2.91,-0.028 5.82,-0.095 8.728,-0.2Z" style="fill:#1b1b13;"/></svg>