<svg width="100" height="100" viewBox="0 0 100 100" fill="none" xmlns="http://www.w3.org/2000/svg">
<rect width="100" height="100" fill="#171717"/>
<circle cx="49.5" cy="50.5" r="44.5" fill="#D0CCC8"/>
<path fill-rule="evenodd" clip-rule="evenodd" d="M68.7889 75.5656C68.6813 75.5541 68.5757 75.5664 68.4725 75.6016C68.4115 75.707 68.3274 75.7674 68.2191 75.7818C67.7355 75.7886 67.2504 75.7401 66.763 75.6379C66.1596 75.6023 65.5686 75.6746 64.9904 75.8541C61.97 75.6552 58.9522 75.6796 55.9368 75.926C55.6405 75.9138 55.3452 75.926 55.0505 75.9623C54.9723 75.9789 54.9089 76.0148 54.8607 76.0702C54.4818 76.0515 54.1232 75.9796 53.7844 75.8541C53.4909 75.8526 53.2063 75.9008 52.9297 75.9983C52.7396 75.9745 52.5499 75.9497 52.3598 75.926C52.234 75.931 52.1392 75.9796 52.0749 76.0702C51.8477 76.1641 51.6368 76.2835 51.4417 76.4306C51.1188 76.5093 50.8023 76.5813 50.4921 76.6467H50.4288C49.8586 76.6345 49.2888 76.6467 48.7196 76.683C48.6616 76.7032 48.6193 76.7391 48.5929 76.7909C47.1469 76.8111 45.7119 76.8596 44.2876 76.9351C43.9477 76.9272 43.6101 76.9517 43.2746 77.0071C42.4924 77.0006 41.7117 77.0369 40.9322 77.1153C40.796 77.1225 40.6904 77.1822 40.6158 77.2955C40.2979 77.2955 39.9814 77.271 39.6662 77.2236C39.4277 77.2164 39.2165 77.2883 39.033 77.4397C37.2682 77.6803 35.4953 77.7648 33.7147 77.6918C33.5229 77.5469 33.3121 77.4627 33.0819 77.4397C33.0152 77.3128 32.9097 77.2653 32.7651 77.2955C32.4609 77.2243 32.1444 77.2002 31.8155 77.2236C31.3837 77.2344 30.9616 77.1736 30.5491 77.0434C30.7734 77.0193 30.8471 76.8877 30.771 76.6467C30.6553 76.6036 30.5393 76.5554 30.4227 76.5029C29.918 76.4306 29.4115 76.4068 28.9033 76.4306C28.8268 76.3781 28.7424 76.3536 28.6499 76.3586C28.605 76.2935 28.5416 76.2691 28.4601 76.2864C28.381 75.712 28.0854 75.3998 27.5736 75.3495H27.4472C27.44 75.3049 27.4189 75.2689 27.3838 75.2412C27.0805 75.2254 26.7848 75.1657 26.4972 75.0611C26.3777 74.8118 26.3459 74.5475 26.4024 74.2684C26.5395 74.1501 26.6344 74.0062 26.6873 73.8361C27.4421 73.3948 28.2335 73.0345 29.0615 72.7551C29.0826 72.7788 29.1037 72.8032 29.1248 72.827C29.64 72.4731 30.1994 72.2692 30.8025 72.2145C30.9022 72.1005 31.0181 72.0167 31.1508 71.962C31.944 71.7768 32.7458 71.6089 33.5565 71.4575C33.6252 71.5147 33.699 71.5628 33.7781 71.6017C33.9432 71.3834 34.1436 71.3352 34.3794 71.4575C34.5374 71.4337 34.6745 71.3618 34.7911 71.2413C34.9469 71.2349 35.1054 71.2349 35.266 71.2413C35.382 71.1435 35.498 71.1194 35.6143 71.1694C36.2662 70.9435 36.9312 70.7749 37.6084 70.6648C38.0283 70.7137 38.4293 70.7375 38.8114 70.7368C38.9298 70.6958 39.0458 70.6483 39.1597 70.5925C39.3111 70.644 39.4482 70.5954 39.571 70.4487C39.5921 70.4969 39.6132 70.5443 39.6343 70.5925C39.7048 70.5055 39.7786 70.5055 39.8559 70.5925C40.0022 70.4444 40.1605 70.3958 40.3309 70.4487C40.4365 70.4001 40.5417 70.3527 40.6473 70.3045C40.7074 70.3419 40.7603 70.3901 40.8055 70.4487C40.9076 70.3728 41.0131 70.3728 41.1223 70.4487C41.2463 70.4217 41.3623 70.3735 41.4702 70.3045C41.5163 70.3447 41.569 70.3685 41.6288 70.3764C42.2343 70.1135 42.8461 70.089 43.4647 70.3045C43.6966 70.3354 43.9393 70.2879 44.1927 70.1603C44.4066 70.2221 44.6388 70.1977 44.8892 70.0883C45.1367 70.1905 45.4109 70.2387 45.7122 70.2322C46.1642 70.1818 46.6288 70.1818 47.1049 70.2322C47.347 70.2185 47.5686 70.1466 47.7699 70.016C47.9041 70.0038 48.0308 70.0275 48.1497 70.0883C48.2898 70.1444 48.448 70.1444 48.6244 70.0883C48.73 70.1365 48.8356 70.184 48.9411 70.2322C49.2177 70.1451 49.4922 70.0491 49.7641 69.9441C49.9065 69.97 50.0647 70.0175 50.239 70.0883C51.0813 70.065 51.9256 70.0412 52.7714 70.016C52.9154 70.0498 53.0421 70.1221 53.1512 70.2322C53.3954 70.1782 53.6274 70.2264 53.8478 70.3764C54.0292 70.3253 54.1874 70.2286 54.3224 70.0883C54.8521 70.1006 55.3797 70.1725 55.9052 70.3045C56.0453 70.1545 56.2142 70.0585 56.4117 70.016C56.6366 70.0682 56.8688 70.0919 57.1083 70.0883C57.2346 70.0398 57.3613 69.9923 57.488 69.9441C57.5077 70.0024 57.5392 70.0498 57.5829 70.0883C57.7518 70.0434 57.9101 69.9714 58.0579 69.8718C58.2045 69.8639 58.3627 69.888 58.5325 69.9441C58.843 69.7884 59.1491 69.7884 59.4506 69.9441C59.6936 69.9247 59.9363 69.901 60.1787 69.8718C60.2545 69.8974 60.2545 69.9333 60.1787 69.9801C60.2313 69.9923 60.2843 70.0038 60.3369 70.016C60.5519 69.9326 60.7628 69.9326 60.9701 70.016C61.0138 69.9542 61.0665 69.9067 61.1283 69.8718C61.4977 69.9189 61.8567 69.9434 62.2046 69.9441C62.3239 69.9283 62.4295 69.8805 62.5214 69.7999C62.8375 69.9614 63.1647 69.9858 63.5025 69.8718C63.6245 70.0498 63.7404 70.0498 63.8508 69.8718C64.0135 69.9535 64.1824 70.0139 64.3573 70.052C64.4417 70.1006 64.4417 70.148 64.3573 70.1962C64.4569 70.2279 64.7252 70.2944 64.7689 70.2322C64.7793 70.2685 64.9098 70.3627 64.9904 70.2685C64.9613 70.2387 64.9402 70.2027 64.9271 70.1603C65.1463 70.1149 65.3571 70.0427 65.5603 69.9441C65.6221 69.9786 65.6748 70.0261 65.7185 70.0883C65.888 70.0009 66.0674 69.9527 66.2565 69.9441C66.5637 69.97 66.8802 69.97 67.2061 69.9441C67.2011 70.1437 67.4215 70.2699 67.7126 70.2322V70.016C67.8164 70.0009 67.9116 70.0247 67.9975 70.0883C68.0484 69.9945 68.1224 69.9463 68.2191 69.9441C68.4972 69.9865 68.7714 70.0462 69.0423 70.1243C68.9668 70.1977 68.9034 70.2822 68.8523 70.3764C68.932 70.339 69.5146 70.2106 69.6122 70.0883C69.6514 70.2663 69.7044 70.4343 69.7704 70.5925C69.8287 70.5019 69.8816 70.4059 69.9286 70.3045C70.1766 70.5264 70.5496 70.6842 70.4666 70.5925C70.4167 70.7439 70.3218 70.8407 70.1817 70.881C70.2242 70.9292 70.2662 70.977 70.3084 71.0252C70.2376 71.2615 70.121 71.4539 69.9601 71.6017C69.8721 71.5211 70.245 71.9139 70.3084 72.0343C70.3509 71.9858 70.3926 71.9383 70.4351 71.8901C70.4604 72.0437 70.4604 72.1875 70.4351 72.3224C70.5407 72.2267 70.646 72.2267 70.7515 72.3224C70.8744 72.1976 70.9904 72.0782 71.0998 71.962C71.1316 72.0703 71.1631 72.1782 71.1947 72.2864C71.1233 72.3095 71.0599 72.3692 71.0049 72.4666C71.0472 72.6108 71.0891 72.7551 71.1316 72.8989C71.0593 73.2255 71.101 73.2492 71.258 72.9712C71.4284 73.1665 71.4076 73.2985 71.1947 73.3675C71.3315 73.3747 71.4582 73.4344 71.5748 73.5477C71.3139 73.7329 71.3246 73.7811 71.6063 73.6919C71.6803 73.7286 71.733 73.7883 71.7645 73.8721C71.6209 73.9059 71.4942 73.9778 71.3847 74.0882C71.4659 74.1371 71.54 74.1256 71.6063 74.0523C71.6809 74.3396 71.5861 74.4601 71.3214 74.4126C71.3163 74.6122 71.3481 74.8046 71.4165 74.9891C71.4374 74.9654 71.4588 74.9409 71.4796 74.9172C71.5849 75.1089 71.6899 75.1089 71.7963 74.9172C71.912 74.9539 71.9221 75.0136 71.8279 75.0974C71.1373 75.234 70.4407 75.3063 69.7386 75.3135C69.4114 75.3783 69.0947 75.4628 68.7889 75.5656Z" fill="#010409"/>
<path fill-rule="evenodd" clip-rule="evenodd" d="M72.2278 53.3741C72.2885 53.4068 72.3411 53.4546 72.3861 53.5183C72.6647 53.4485 72.9493 53.4244 73.2408 53.4464C73.5706 53.6456 73.8871 53.8617 74.1904 54.0948C74.1637 54.2807 74.5866 54.6418 74.6336 54.275C74.7177 54.2271 74.8025 54.2271 74.8867 54.275C74.9545 54.3901 75.0178 54.4979 75.0767 54.5994C75.1368 54.5397 75.2001 54.5278 75.2667 54.5634C75.2242 54.6594 75.1609 54.7314 75.0767 54.7795C75.1058 54.8094 75.1267 54.8454 75.14 54.8878C75.0559 54.9597 74.9711 55.0317 74.8867 55.1039C74.9078 55.1521 74.9292 55.2 74.95 55.2482C74.8456 55.4621 74.7189 55.6545 74.5702 55.8247C74.5771 55.9397 74.5982 56.0599 74.6336 56.185C74.55 56.3929 74.4866 56.609 74.4435 56.8338C74.3252 56.5152 74.1562 56.5029 73.937 56.7975C74.0599 56.8629 74.1232 56.9712 74.1271 57.1219C73.9245 57.0924 73.7345 57.0924 73.5572 57.1219C73.6358 57.2902 73.7416 57.338 73.8737 57.2661C74.1036 57.4362 74.1244 57.6405 73.937 57.8786C73.9974 57.9232 74.0498 57.9113 74.0956 57.8426C74.1535 57.8822 74.2068 57.93 74.2538 57.9868C74.222 58.0746 74.2011 58.1587 74.1904 58.2389C74.0961 58.3378 74.001 58.3497 73.9055 58.2752C73.8181 58.3619 73.7446 58.4579 73.6839 58.5633H73.1775C73.1673 58.4644 72.6671 58.833 72.196 58.6356C72.0098 58.7956 71.8094 58.8194 71.5947 58.7075C71.5033 58.7234 71.4192 58.7593 71.3413 58.8158C70.7702 58.8845 70.2221 58.9208 69.6954 58.9237C69.5086 58.6877 69.3079 58.6637 69.0937 58.8517C68.9876 58.8111 68.9034 58.7392 68.8407 58.6356C68.7723 58.7715 68.6673 58.8438 68.5239 58.8517C68.3107 58.7784 68.1099 58.7305 67.9226 58.7075C67.6118 58.8129 67.2953 58.8852 66.9729 58.9237V58.3472C66.8186 58.3198 66.7761 58.3677 66.8462 58.4914C66.8126 58.6162 66.7496 58.7122 66.6565 58.7795C65.4243 58.8158 64.1794 58.7676 62.9211 58.6356C62.5993 58.5191 62.2721 58.495 61.9396 58.5633C61.4911 58.4349 61.0373 58.3389 60.5787 58.2752C60.4472 58.3662 60.3205 58.354 60.1986 58.2389C59.0399 58.1997 57.9002 58.0677 56.7799 57.8426C56.7147 57.7886 56.6407 57.7408 56.5583 57.6984C56.5372 57.7225 56.5161 57.7466 56.495 57.7707C56.169 57.7074 55.8421 57.6354 55.5138 57.5545C55.4255 57.5632 55.341 57.5873 55.2604 57.6265C55.0986 57.5362 54.9297 57.4761 54.7539 57.4463C54.8307 57.3819 54.8307 57.3218 54.7539 57.2661C54.7168 57.2812 54.6852 57.3053 54.6591 57.338C54.5493 57.2841 54.433 57.2481 54.3108 57.2301C53.9857 56.8237 53.6056 56.4271 53.1711 56.0408C53.051 55.9376 53.0299 55.8171 53.1078 55.6804C52.9885 55.6153 52.8722 55.5431 52.7598 55.4643C52.7286 55.3711 52.7182 55.2748 52.728 55.1759C52.9347 55.1298 53.1351 55.1298 53.3293 55.1759C53.4343 54.9842 53.5399 54.9842 53.6461 55.1759C53.7451 55.0784 53.8614 55.0302 53.9944 55.0317C54.0199 54.7385 54.1466 54.5224 54.3741 54.3832C54.7611 54.225 55.1409 54.0448 55.5138 53.8427C55.9495 53.719 56.3927 53.6467 56.8432 53.6265C56.8747 53.5902 56.9066 53.5543 56.9381 53.5183C57.0413 53.4942 57.1362 53.542 57.223 53.6625C57.4467 53.6255 57.6471 53.6737 57.8247 53.8067C57.93 53.7585 58.0355 53.7103 58.1411 53.6625C58.4962 53.902 58.8445 53.9261 59.1856 53.7344C59.4336 53.7474 59.6974 53.7711 59.977 53.8067C60.0404 53.7585 60.1037 53.7103 60.1671 53.6625C60.5019 53.7776 60.8184 53.7294 61.1167 53.5183C61.4046 53.7053 61.6895 53.7053 61.9714 53.5183C62.1365 53.6158 62.3158 53.6639 62.5094 53.6625C63.2054 53.6751 63.9016 53.6514 64.5987 53.5902C64.6222 53.692 64.6749 53.7639 64.7569 53.8067C65.002 53.6168 65.2447 53.6168 65.485 53.8067C65.5376 53.7467 65.5909 53.6866 65.6435 53.6265C66.0019 53.6247 66.3499 53.5647 66.688 53.4464C66.7906 53.4625 66.8647 53.5226 66.9096 53.6265C66.8367 53.9017 67.3453 53.323 68.0493 53.4464C68.1284 53.5884 68.2232 53.6125 68.3342 53.5183C68.4397 53.6384 68.545 53.7585 68.6506 53.8786C68.7981 53.6625 68.9882 53.5183 69.2204 53.4464C69.8162 53.3611 70.4178 53.3611 71.0248 53.4464C71.1851 53.2719 71.3008 53.3198 71.3731 53.5902C71.3966 53.5244 71.4281 53.4643 71.468 53.41C71.7276 53.4356 71.9807 53.4233 72.2278 53.3741Z" fill="#010409"/>
<path fill-rule="evenodd" clip-rule="evenodd" d="M47.3467 57.6984C46.9625 57.9296 46.5824 58.1817 46.207 58.4554C46.0381 58.4791 45.8695 58.5032 45.7005 58.5273C45.2634 58.7528 44.8202 58.933 44.3711 59.0679H37.7235C35.6143 59.1772 33.5042 59.2254 31.3923 59.2121H31.3289C30.5185 59.0984 29.6955 59.0502 28.8598 59.0679C28.3584 58.988 27.8519 58.892 27.3404 58.7794C27.1316 58.6367 26.8993 58.5647 26.6438 58.5633C26.5356 58.4741 26.4089 58.4259 26.2641 58.4191C25.9693 58.2511 25.6737 58.0832 25.3778 57.9149C25.194 57.7599 24.9828 57.652 24.7446 57.5905C24.6509 57.4067 24.6931 57.2743 24.8713 57.1941C24.8882 56.8543 25.0361 56.6259 25.3144 56.5094C25.362 56.4608 25.3831 56.4008 25.3778 56.3292C25.4863 56.3199 25.5919 56.2958 25.6942 56.2569C25.9092 56.1807 26.1308 56.1084 26.3592 56.0408C26.6888 55.647 27.1004 55.4668 27.5938 55.5002C28.2603 55.2068 28.9253 54.9788 29.5879 54.8155C29.7744 54.8327 29.9748 54.8565 30.1892 54.8878C30.564 54.713 30.9441 54.617 31.3289 54.5993C31.4479 54.6299 31.543 54.7022 31.6138 54.8155C31.7664 54.6659 31.9353 54.5458 32.1203 54.4551C32.6812 54.5458 33.2404 54.4738 33.798 54.239C33.9821 54.2757 34.1614 54.3239 34.3363 54.3832C34.383 54.3059 34.4463 54.2577 34.526 54.239C34.844 54.2627 35.1396 54.2868 35.4126 54.3109C35.5343 54.1329 35.6505 54.1329 35.7606 54.3109C35.7594 54.1671 35.8436 54.071 36.014 54.0228C36.135 54.0218 36.2617 54.0459 36.3938 54.0948C36.6665 54.0361 36.9407 53.9883 37.217 53.9505C37.198 54.1483 37.2717 54.2685 37.4386 54.3109C37.714 54.2627 37.7244 54.1786 37.4701 54.0588C37.5019 54.0469 37.5334 54.0347 37.565 54.0228C37.7598 54.0412 37.9602 54.0534 38.1666 54.0588C38.3088 54.2893 38.4566 54.2893 38.6098 54.0588C38.7364 54.0347 38.8628 54.0106 38.9895 53.9869C39.7601 53.9703 40.5408 53.9462 41.3322 53.9146C41.5009 53.8905 41.6698 53.8668 41.8387 53.8427C41.8702 53.8067 41.9018 53.7704 41.9336 53.7344C42.4026 53.77 42.8668 53.8423 43.3263 53.9505C43.4251 53.8898 43.4884 53.938 43.5164 54.0948C43.6672 54.0049 43.7936 53.8847 43.8962 53.7344C43.9384 53.7826 43.9806 53.8304 44.0229 53.8786C44.1112 53.8117 44.2061 53.8117 44.3078 53.8786C44.5151 53.7855 44.7155 53.7376 44.9091 53.7344C45.004 53.7704 45.0992 53.8067 45.1941 53.8427C45.454 54.3145 45.8338 54.5306 46.3337 54.4911C46.5886 54.5903 46.8524 54.7223 47.1251 54.8878C47.0261 55.3841 46.9312 55.8886 46.8402 56.4011C46.8735 56.6234 46.9262 56.8395 46.9984 57.0499C47.0383 57.2276 47.1335 57.3477 47.2834 57.4103C47.3422 57.4959 47.3631 57.5919 47.3467 57.6984Z" fill="#010409"/>
<path fill-rule="evenodd" clip-rule="evenodd" d="M64.3272 61.9767C64.3695 62.0004 64.4117 62.0245 64.4539 62.0486C64.7008 62.1259 64.8376 62.318 64.8655 62.6251C64.9179 62.565 64.9711 62.505 65.0238 62.4449C64.8932 62.3597 64.8825 62.2755 64.9919 62.1928C65.0693 62.2568 65.1534 62.3047 65.2453 62.337C65.4428 62.2712 65.6436 62.1989 65.8467 62.1205C65.9924 62.2255 66.1298 62.2975 66.2583 62.337C66.5147 62.2522 66.7047 62.3482 66.8281 62.6251C66.9254 62.5298 68.1144 62.6384 68.2209 62.5532C68.6013 62.5417 68.9915 62.5535 69.3921 62.5891C69.5806 62.747 70.0714 63.0506 70.0253 62.9495C70.1948 62.7449 70.4062 62.6366 70.6584 62.6251C71.2092 62.7934 71.7574 62.9617 72.3043 63.1297C72.2963 63.1829 72.307 63.2315 72.3361 63.2739C72.4456 63.1959 72.5616 63.1843 72.6844 63.2379C73.1635 63.6436 73.6914 63.8123 74.2672 63.7421C74.4132 63.8209 74.4983 63.9529 74.5203 64.1388C74.6027 64.3507 74.7291 64.5186 74.9001 64.6434C74.8578 64.6671 74.8159 64.6916 74.7737 64.7153C74.876 64.9401 74.8338 65.1203 74.647 65.2559C74.6589 65.3749 74.6696 65.5065 74.6785 65.6522C74.7463 65.5238 74.8412 65.4878 74.9634 65.5443C74.8703 65.5954 74.8281 65.6795 74.8367 65.7964C75.0672 65.7417 75.1624 65.8374 75.1216 66.0848C75.0761 66.0161 75.0235 66.0039 74.9634 66.0485C75.047 66.1079 75.0895 66.1913 75.0901 66.301C74.9875 66.4855 74.84 66.6049 74.647 66.6613C74.3487 66.7419 74.0537 66.8386 73.7607 66.9494C72.809 67.003 71.8594 67.0749 70.9115 67.1659C70.8744 67.1508 70.8425 67.1267 70.8167 67.0936C70.4449 67.1325 70.0859 67.2285 69.7403 67.3821C69.503 67.3224 69.2922 67.2019 69.1072 67.0217C69.0914 67.1023 69.0599 67.1745 69.0123 67.2378C68.9534 67.1558 68.9008 67.1558 68.8541 67.2378C68.833 67.1896 68.8115 67.1422 68.7907 67.0936C68.5126 67.1429 68.2387 67.2148 67.9675 67.3098C67.825 67.2422 67.6775 67.194 67.5244 67.1659C66.8382 67.2702 66.1518 67.2947 65.4669 67.2378C64.6868 67.3569 63.8957 67.3813 63.0927 67.3098C62.3941 67.3019 61.7083 67.3504 61.0352 67.454C60.9734 67.4892 60.9103 67.5256 60.8452 67.5622C59.9057 67.5745 58.9772 67.6104 58.0594 67.6701C57.9779 67.6529 57.9145 67.6777 57.8696 67.7424C57.2459 67.7187 56.6342 67.7431 56.0334 67.8143C55.2057 67.8431 54.3828 67.7956 53.5643 67.6701C53.3776 67.6155 53.2086 67.5191 53.0578 67.3821C53.0302 67.2688 52.9668 67.1846 52.8681 67.1296C52.596 67.0584 52.3533 66.9264 52.14 66.7333C52.1014 66.548 52.1329 66.3801 52.2349 66.2287C52.2849 66.2085 52.3271 66.1726 52.3616 66.1208C52.2441 65.8144 52.2019 65.5022 52.2349 65.1839C51.9937 64.6229 51.7617 64.0579 51.5384 63.49C51.6639 63.325 51.7377 63.1326 51.76 62.9135C51.9913 62.6337 52.2763 62.4658 52.6147 62.409C52.7292 62.5068 52.8241 62.4827 52.8996 62.337C53.0567 62.5798 53.2149 62.592 53.3746 62.373C53.7588 62.2878 54.1386 62.1799 54.514 62.0486C54.7004 62.1633 54.8694 62.1396 55.0204 61.9767C55.1022 62.1187 55.2075 62.1187 55.3372 61.9767C55.4035 62.0403 55.4773 62.0882 55.5587 62.1205C55.8172 62.1177 56.081 62.1054 56.3502 62.0846C56.2651 62.2162 56.2969 62.3003 56.445 62.337C56.5783 62.245 56.705 62.173 56.8248 62.1205C56.8882 62.1687 56.9515 62.2169 57.0149 62.2647C57.0922 62.2007 57.1763 62.1529 57.268 62.1205C57.5761 62.0792 57.8821 62.031 58.1861 61.9767C58.2881 62.0357 58.3303 62.1317 58.3127 62.2647C58.4323 62.2795 58.5275 62.2313 58.5977 62.1205C58.7244 62.1687 58.8508 62.2169 58.9775 62.2647C59.0646 62.1414 59.1702 62.0454 59.2939 61.9767C59.3332 62.045 59.3224 62.1051 59.2624 62.1569C59.4328 62.1205 59.6017 62.1324 59.7689 62.1928C60.0645 62.1608 60.3494 62.0885 60.6236 61.9767C60.8841 61.9742 61.1372 61.9983 61.3832 62.0486C61.5364 61.9871 61.6946 61.9393 61.8581 61.9044C61.9533 61.9781 62.0482 62.0504 62.1431 62.1205C62.4092 61.9788 62.6623 62.027 62.9026 62.2647C62.9238 62.1928 62.9449 62.1205 62.966 62.0486C63.1748 62.109 63.3859 62.1813 63.5992 62.2647C63.6979 62.2266 63.7928 62.1788 63.8841 62.1205C64.0807 62.2392 64.2282 62.191 64.3272 61.9767Z" fill="#010409"/>
<path fill-rule="evenodd" clip-rule="evenodd" d="M43.0547 62.4809C43.1451 62.4866 43.2296 62.4629 43.3078 62.409C43.5101 62.5075 43.7212 62.5676 43.941 62.5891C44.0362 62.6492 44.1099 62.7333 44.1626 62.8412C44.1944 62.8053 44.2259 62.7693 44.2577 62.7333C44.6114 62.6438 44.9281 62.7161 45.2074 62.9495C45.3885 63.2516 45.61 63.5037 45.8721 63.7062C46.154 64.2719 46.2489 64.8725 46.157 65.508C45.9916 65.5759 45.8652 65.6961 45.7772 65.8683H45.6505C45.2987 66.0762 45.0033 66.3643 44.7642 66.7333C44.2256 66.985 43.698 67.2493 43.1814 67.5263C42.9958 67.5313 42.8272 67.5788 42.6749 67.6701C42.4507 67.6885 42.2398 67.7367 42.0417 67.8143C41.8428 67.8737 41.6319 67.9096 41.4086 67.9226C41.3735 67.9499 41.3524 67.9859 41.3452 68.0305H41.2188C40.6418 68.1222 40.072 68.1941 39.5093 68.247C39.1596 68.224 38.8217 68.2477 38.4963 68.3189C37.7558 68.3009 37.017 68.3254 36.2804 68.3908C35.1104 68.4588 33.9496 68.5307 32.7983 68.6073C31.2363 68.6052 29.6746 68.6289 28.1132 68.6793C27.969 68.5552 27.8001 68.507 27.6068 68.5351C27.1925 68.1912 26.7493 67.9032 26.2773 67.6701C26.2262 67.5816 26.1631 67.5097 26.0873 67.454C25.9915 67.3324 25.9071 67.2004 25.8342 67.0577C25.8842 66.9401 25.9475 66.8322 26.0243 66.7333C26.0843 66.6218 26.1054 66.502 26.0873 66.3729C26.2197 66.3765 26.3041 66.3046 26.3407 66.1568C26.2937 65.9449 26.2619 65.7288 26.2458 65.508C25.9877 65.2026 25.7661 64.866 25.5808 64.4992C25.5127 64.4118 25.4283 64.3643 25.3277 64.355C25.2376 64.1741 25.1323 64.0061 25.011 63.8504C25.0443 63.6565 25.1499 63.5483 25.3277 63.526C25.4122 63.3336 25.5386 63.1894 25.7075 63.0937C26.4228 62.9991 27.1401 62.8308 27.8602 62.5891C28.4835 62.624 29.0956 62.5881 29.6961 62.4809C29.7975 62.4848 29.8923 62.5086 29.981 62.5532C30.1966 62.5039 30.4182 62.432 30.6457 62.337C30.9529 62.5226 31.2589 62.5226 31.5638 62.337C31.7229 62.3917 31.8915 62.4154 32.0703 62.409C32.3912 62.3381 32.6969 62.2899 32.9884 62.2647C33.171 62.2741 33.3295 62.346 33.463 62.4809C33.9603 62.4169 34.4772 62.4046 35.0143 62.4449C35.1904 62.5093 35.3593 62.5934 35.5208 62.6974C35.6052 62.5589 35.7212 62.487 35.869 62.4809C36.0329 62.4942 36.2016 62.5179 36.3755 62.5532C36.6277 62.4172 36.8915 62.3809 37.1669 62.4449C37.2065 62.4992 37.238 62.5593 37.2618 62.6251C37.3531 62.5266 37.4584 62.4543 37.5783 62.409C38.0021 62.4122 38.4241 62.4122 38.8446 62.409C39.018 62.4654 39.1973 62.5014 39.3826 62.5172C39.4222 62.5712 39.454 62.6312 39.4778 62.6974C39.5212 62.6355 39.5742 62.5873 39.636 62.5532C39.8154 62.5589 40.0051 62.5712 40.2058 62.5891C40.2847 62.7208 40.3587 62.7085 40.4274 62.5532C40.7736 62.6028 41.1216 62.6506 41.4719 62.6974C41.7548 62.4859 42.0397 62.4618 42.3267 62.6251C42.4415 62.6258 42.5363 62.5776 42.6116 62.4809C42.7585 62.5654 42.9063 62.5654 43.0547 62.4809Z" fill="#010409"/>
<path fill-rule="evenodd" clip-rule="evenodd" d="M64.1172 45.3523H64.1805C64.2775 45.4699 64.4042 45.53 64.5603 45.5325C65.2783 45.5753 65.9956 45.6231 66.7129 45.6767C66.8973 45.686 67.0454 45.7702 67.1561 45.9288C67.3036 45.881 67.4517 45.8328 67.5992 45.7846C68.252 45.8655 68.906 45.8774 69.5621 45.8209C69.6329 45.8029 69.6962 45.7666 69.7519 45.7127C70.7306 45.6443 71.702 45.5242 72.6641 45.3523C72.8137 45.3649 72.9612 45.389 73.1075 45.4242C73.277 45.4217 73.4353 45.4695 73.5822 45.5684C73.7868 45.8493 74.0292 46.0777 74.3102 46.2532C74.4444 46.5614 74.6136 46.8376 74.8167 47.0822C74.889 47.4048 74.8471 47.7173 74.69 48.019C74.475 48.192 74.3058 48.4082 74.1835 48.6678C74.1413 48.8599 74.0994 49.0519 74.0571 49.2443C74.0063 49.3554 73.9855 49.4756 73.9938 49.6047C73.9046 49.6388 73.8626 49.7108 73.8671 49.8208C73.8246 49.8449 73.7829 49.869 73.7404 49.8927C73.3371 49.956 72.9359 49.956 72.5377 49.8927C72.444 50.0693 72.3699 50.0452 72.3161 49.8208C72.2349 49.9816 72.1192 50.1017 71.9678 50.1812C71.8855 50.1387 71.8328 50.0664 71.8096 49.965C71.7088 50.028 71.6139 50.1003 71.5247 50.1812C71.4789 50.1226 71.4266 50.0747 71.3662 50.037C71.2118 50.0449 71.0536 50.0449 70.8915 50.037C70.7827 50.1405 70.656 50.2002 70.5117 50.2171C70.1528 50.2412 69.7944 50.2653 69.4354 50.2894C69.2481 50.3096 69.0794 50.3696 68.9289 50.4696C68.5375 50.3973 68.147 50.3973 67.7577 50.4696C67.6391 50.4545 67.5341 50.4067 67.441 50.3254C67.1739 50.4987 66.9098 50.4987 66.6496 50.3254C66.2558 50.3689 65.8653 50.4171 65.4784 50.4696C65.3258 50.3283 65.1676 50.3283 65.0034 50.4696H64.5603C64.0613 50.5156 63.5759 50.4556 63.1042 50.2894C63.2157 50.0657 63.3213 49.8374 63.4209 49.6047C63.3838 49.4964 63.3311 49.4004 63.2624 49.3162C63.1524 49.5619 63.089 49.8262 63.0727 50.1092C62.9986 50.2096 62.9034 50.2696 62.7878 50.2894C62.4371 50.3063 62.0888 50.3423 61.743 50.3973C61.2109 50.388 60.6726 50.3757 60.1286 50.3614C59.9627 50.2937 59.7937 50.2337 59.6221 50.1812C59.5686 50.0434 59.5472 49.8996 59.5588 49.7489C59.0957 49.5691 58.6734 49.6529 58.2927 50.001C57.8871 49.9744 57.4969 49.9862 57.1215 50.037C56.8057 49.9168 56.4785 49.8568 56.1401 49.8568C56.0979 49.7608 56.0556 49.6647 56.0134 49.5687C55.912 49.5489 55.8171 49.513 55.7285 49.4605C55.4602 49.604 55.1857 49.6277 54.9056 49.5324C54.2959 49.6917 53.6942 49.896 53.1012 50.1452C53.0536 50.1934 53.0325 50.2535 53.0378 50.3254C52.7583 50.3898 52.526 50.534 52.3413 50.7577H52.2149C50.6687 50.8746 49.1281 50.8508 47.5932 50.6857C47.2878 50.6447 46.982 50.6685 46.6751 50.7577C46.4833 50.7735 46.2828 50.7494 46.0737 50.6857C45.8873 50.7393 45.6975 50.7753 45.5039 50.7936C43.9312 50.8274 42.3695 50.8875 40.8188 50.9738C39.9114 50.9702 39.0038 50.9461 38.0964 50.9019C37.398 50.9832 36.7015 51.0792 36.0074 51.1903C35.6273 51.1421 35.2475 51.0939 34.8677 51.0461C33.8182 51.1177 32.7737 51.1418 31.7336 51.118C31.3749 51.0702 31.0163 51.022 30.6576 50.9738C29.6994 51.0562 28.739 51.0684 27.7769 51.0101C27.423 50.6185 27.001 50.4142 26.5105 50.3973C26.2988 50.361 26.1513 50.2286 26.0674 50.001C26.1043 49.9366 26.1254 49.8647 26.1308 49.7849C26.0552 49.481 25.971 49.1807 25.8777 48.884C25.7346 48.7268 25.6397 48.5347 25.5927 48.3071C25.4434 48.2215 25.3275 48.1014 25.2445 47.9467C25.0122 47.7274 24.9489 47.463 25.0544 47.1541C25.1211 47.1649 25.1844 47.153 25.2445 47.1181C25.5368 46.7146 25.6424 46.246 25.5609 45.7127C25.773 45.7245 25.9841 45.7127 26.1941 45.6767C26.8674 45.4048 27.5321 45.1049 28.1882 44.7758C28.2516 44.8236 28.3149 44.8718 28.3783 44.92C28.9151 44.7815 29.4427 44.7815 29.9611 44.92C29.9917 44.8517 30.0021 44.7794 29.9926 44.7035C30.3599 44.8225 30.7186 44.7985 31.0689 44.6316C31.3283 44.7557 31.5924 44.7798 31.8603 44.7035C32.0507 44.801 32.2404 44.8251 32.4301 44.7758C32.7047 44.8236 32.9789 44.8718 33.2534 44.92C34.2559 44.8689 35.2478 44.8689 36.2289 44.92C36.9041 44.8632 37.5795 44.7909 38.2549 44.7035C38.8634 44.7575 39.4543 44.7815 40.0274 44.7758C40.3231 44.7276 40.6184 44.6798 40.9137 44.6316C41.6224 44.7129 42.3294 44.6888 43.0348 44.5597C43.2362 44.542 43.4262 44.542 43.6047 44.5597C43.6957 44.5014 43.7908 44.4536 43.8896 44.4154C45.4266 44.6755 46.9671 44.6995 48.511 44.4874C48.699 44.5445 48.889 44.5927 49.0808 44.6316C49.9302 44.6028 50.7743 44.6028 51.6132 44.6316C53.2422 45.0297 54.8883 45.102 56.5517 44.8477C57.6735 44.8697 58.7921 44.8697 59.9071 44.8477C60.5102 44.8377 61.0905 44.9578 61.6481 45.2081C61.7977 45.1232 61.9559 45.0754 62.1231 45.0639C62.6584 45.1067 63.1756 45.2268 63.674 45.4242C63.821 45.3886 63.9685 45.3645 64.1172 45.3523Z" fill="#010409"/>
<path fill-rule="evenodd" clip-rule="evenodd" d="M47.6125 33.8003H47.7309C49.5513 33.8723 51.3822 33.896 53.2231 33.8723C53.2231 33.9204 53.2428 33.9442 53.2823 33.9442C53.3819 34.0021 53.4804 34.0744 53.5773 34.1607C54.1451 34.0902 54.7161 34.0661 55.2901 34.0884H55.5263C56.4265 34.1754 57.3321 34.2955 58.2431 34.4488C58.3766 34.379 58.5143 34.3312 58.6565 34.3045H59.6013C59.6013 34.3527 59.621 34.3768 59.6602 34.3768C60.7142 34.4746 61.7775 34.4984 62.8493 34.4488H62.9677C63.0536 34.5577 63.6485 34.5793 63.7647 34.593C64.6701 34.7066 65.5757 34.8026 66.4816 34.8814C66.7897 34.8807 67.0749 34.8328 67.3378 34.7372H67.397C67.565 34.7469 67.7322 34.771 67.8987 34.8091C68.6342 34.6876 69.3724 34.6156 70.1135 34.593H70.4088V34.6649C70.4419 34.758 70.501 34.8181 70.5858 34.8451C71.219 34.831 71.8296 34.9393 72.4166 35.1695C72.4633 35.2853 72.5418 35.3331 72.6531 35.3137C72.64 35.3982 72.6593 35.4705 72.712 35.5298C72.8271 35.445 72.9552 35.3968 73.0959 35.3856C73.4436 35.441 73.788 35.5129 74.1294 35.6021C74.3715 35.6348 74.5984 35.5867 74.8084 35.4579C74.8539 35.4683 74.8935 35.4924 74.9268 35.5298C74.925 35.6812 74.8854 35.8251 74.8084 35.9625C74.7046 36.3714 74.7932 36.6836 75.0743 36.8993C75.1138 36.9713 75.1528 37.0435 75.1923 37.1155C75.1971 37.437 75.1575 37.7495 75.0743 38.0523C74.9526 38.066 74.8346 38.102 74.7201 38.1606C74.4158 38.5199 74.0613 38.772 73.6568 38.9173C73.6185 38.9601 73.5789 39.0079 73.5388 39.0615C73.4284 39.0295 72.9216 39.4057 73.0665 39.4578C72.96 39.5804 72.8419 39.5927 72.712 39.4938C72.5454 39.5377 72.3884 39.6096 72.2397 39.7103C72.1564 39.6261 72.0877 39.6499 72.033 39.7822C71.7948 39.5635 71.6083 39.6236 71.4718 39.9624C71.3225 40.0271 71.1949 39.9908 71.0878 39.8541C71.0596 39.9225 71.0495 39.9948 71.0584 40.0706C70.899 40.1436 70.7413 40.1436 70.5858 40.0706C70.4701 40.2519 70.3131 40.3361 70.1135 40.3227C69.9859 40.5457 69.8289 40.7259 69.6409 40.8633C69.4533 40.964 69.2659 40.9881 69.08 40.9352C68.9194 40.9963 68.7624 41.0686 68.6074 41.1517C68.5013 41.033 68.3832 40.937 68.2532 40.8633C68.2892 40.622 67.8812 40.6518 67.8693 40.8633C67.6998 40.9345 67.5522 40.8867 67.4264 40.7191C67.3619 40.8525 67.2828 40.9726 67.1903 41.0794C66.8599 41.0366 66.5152 40.9766 66.1565 40.8992C66.1271 40.8633 66.0976 40.8273 66.0682 40.7914C65.7586 40.9172 65.4433 40.9413 65.123 40.8633C65.0037 40.9726 64.8756 41.0686 64.7394 41.1517C64.6927 41.0981 64.6537 41.0381 64.6213 40.9715C64.4541 40.9561 64.2962 40.9442 64.1487 40.9352C64.1044 40.9985 64.0749 41.0704 64.0601 41.1517C64.0384 41.0855 64.0086 41.0255 63.9714 40.9715C63.5946 40.9564 63.2202 40.9205 62.8493 40.8633C62.7012 40.9981 62.5733 40.9981 62.4657 40.8633C62.2842 40.855 62.0972 40.8791 61.9045 40.9352C61.7278 40.8011 61.5407 40.8011 61.3435 40.9352C61.2832 40.85 61.2145 40.7777 61.1368 40.7191C60.9878 40.6781 60.8499 40.7259 60.7235 40.8633C60.4995 40.8568 60.3124 40.7608 60.1622 40.5749C60.0709 40.8536 59.9823 40.8536 59.8967 40.5749C59.7726 40.6461 59.6546 40.622 59.5421 40.5029C59.4717 40.5277 59.4717 40.5641 59.5421 40.6112C59.1035 40.5856 58.6803 40.5975 58.2725 40.6471C58.1669 40.5939 58.059 40.5457 57.9477 40.5029C57.7961 40.5526 57.6483 40.5766 57.5049 40.5749C57.2004 40.4803 56.8952 40.4083 56.5895 40.3587C56.4899 40.4375 56.3816 40.4857 56.2644 40.5029C55.9536 40.5137 55.6387 40.4896 55.3196 40.431C55.2889 40.504 55.2398 40.5522 55.172 40.5749C55.0144 40.4788 54.8571 40.4788 54.6995 40.5749C54.6263 40.5364 54.5573 40.4882 54.4928 40.431C54.1451 40.4101 53.7808 40.458 53.4004 40.5749C53.2478 40.5655 53.1 40.5414 52.9572 40.5029C52.7437 40.632 52.5171 40.632 52.2783 40.5029C52.1477 40.5464 52.0198 40.5946 51.8943 40.6471C51.7233 40.6266 51.546 40.6266 51.3628 40.6471C51.2002 40.4688 51.033 40.4688 50.8608 40.6471C50.8049 40.6119 50.746 40.5882 50.6836 40.5749C50.5375 40.6306 50.39 40.6784 50.2407 40.7191C49.7824 40.6892 49.3396 40.6651 48.9119 40.6471C48.6216 40.6921 48.3361 40.7644 48.0557 40.8633C47.9108 40.8374 47.7731 40.7892 47.6423 40.7191C47.6125 40.755 47.5831 40.7914 47.5536 40.8273C47.217 40.8593 46.8922 40.9435 46.579 41.0794C46.5201 41.0316 46.461 40.9834 46.4021 40.9352C46.3233 41.0316 46.2445 41.0316 46.1656 40.9352C46.135 41.0086 46.0859 41.0568 46.0181 41.0794C45.7864 41.0032 45.5601 41.0032 45.3388 41.0794C45.2368 41.0902 45.227 41.138 45.3094 41.2236C45.2541 41.2995 45.1851 41.3477 45.1027 41.3679C44.9644 41.3297 44.8267 41.2337 44.6893 41.0794C44.6271 41.242 44.5385 41.2661 44.4237 41.1517C44.35 41.1906 44.281 41.2387 44.217 41.2956C44.0719 41.2085 43.9244 41.2085 43.7739 41.2956C43.7019 41.3506 43.643 41.4229 43.5969 41.5121C43.5559 41.4739 43.5264 41.4261 43.5083 41.3679C43.4899 41.4261 43.4604 41.4739 43.4197 41.5121C43.1362 41.4574 42.851 41.4333 42.5631 41.4398C42.3086 41.6318 42.0525 41.6318 41.7955 41.4398C41.5763 41.5225 41.35 41.5707 41.1162 41.584C40.9899 41.5757 40.8816 41.5279 40.7915 41.4398C40.6654 41.5682 40.5179 41.616 40.3486 41.584C40.3412 41.3481 40.2624 41.3362 40.1125 41.548C39.9825 41.575 39.8546 41.611 39.7285 41.6563C39.4888 41.5484 39.2232 41.5002 38.9312 41.5121V41.7282C38.7893 41.702 38.6513 41.6538 38.5178 41.584C38.3459 41.6333 38.1981 41.7293 38.075 41.8724C37.9352 41.8329 37.8073 41.7609 37.691 41.6563C37.5381 41.6876 37.4001 41.7595 37.2776 41.8724C37.1589 41.8113 37.0605 41.8591 36.9823 42.0166C36.8151 41.8616 36.6575 41.8616 36.51 42.0166C36.3994 41.9253 36.2911 41.9253 36.1852 42.0166C36.0785 41.8681 35.9503 41.844 35.8013 41.9444C35.8114 42.0397 35.7915 42.1238 35.7421 42.1968C35.5541 42.2303 35.3867 42.218 35.2401 42.1605C34.9376 42.295 34.6423 42.295 34.3544 42.1605C34.2565 42.2317 34.1581 42.3036 34.0591 42.377C34.01 42.3169 33.9606 42.2565 33.9115 42.1968C33.6629 42.1778 33.417 42.1418 33.1731 42.0886C32.909 42.2094 32.6434 42.2932 32.376 42.3407C32.3957 42.3169 32.4153 42.2928 32.4349 42.2688C32.3641 42.2037 32.3148 42.1195 32.2874 42.0166C31.9903 42.0767 31.695 42.149 31.4014 42.2328C31.3797 42.131 31.3306 42.0591 31.2539 42.0166C31.1097 42.1242 30.952 42.1961 30.7813 42.2328C30.6885 42.0458 30.5508 41.9738 30.3679 42.0166V41.8001C29.9822 41.9393 29.6179 41.8915 29.2756 41.6563C28.9404 41.6836 28.6058 41.6358 28.2715 41.5121C28.0874 41.5319 27.9102 41.5319 27.74 41.5121C27.7103 41.4279 27.6612 41.3679 27.5922 41.3319C27.3864 41.2164 27.1699 41.1323 26.9427 41.0794C26.772 40.7507 26.5358 40.5342 26.234 40.431H26.1748C26.0995 40.222 26.0995 40.0059 26.1748 39.7822C26.2114 39.7743 26.2408 39.7502 26.2634 39.7103C26.3122 39.4664 26.3024 39.2262 26.234 38.9896C26.1412 38.7874 26.0329 38.5954 25.9092 38.4127C25.6653 38.3483 25.4881 38.18 25.3777 37.9085C25.3849 37.4284 25.3849 36.9479 25.3777 36.4667C25.2653 36.3268 25.2159 36.1588 25.2299 35.9625C25.3284 35.8902 25.4072 35.7942 25.4664 35.674C25.5249 35.6863 25.5642 35.6625 25.5844 35.6021C25.8601 35.601 26.1159 35.5291 26.352 35.3856H26.4112C27.1985 35.2198 27.986 35.1238 28.7735 35.0975C28.8562 35.0634 28.935 35.0155 29.0097 34.9533C30.2496 34.8875 31.4898 34.8393 32.7302 34.8091C33.5282 34.7962 34.3157 34.748 35.0926 34.6649C35.0926 34.6171 35.1122 34.593 35.1517 34.593C36.0098 34.6092 36.8562 34.561 37.691 34.4488H37.8683C38.5868 34.4189 39.2955 34.3711 39.9944 34.3045C40.5092 34.3243 41.0211 34.3006 41.5296 34.2326C42.5735 34.2153 43.6169 34.1794 44.6599 34.1244C44.7711 34.1103 44.8692 34.074 44.9552 34.0165C45.4578 33.9949 45.95 33.9467 46.4315 33.8723C46.8256 33.8568 47.2194 33.8331 47.6125 33.8003Z" fill="#010409"/>
<path fill-rule="evenodd" clip-rule="evenodd" d="M31.4074 23C32.1351 23.0669 32.8739 23.1151 33.6231 23.1439C34.0308 23.255 34.4528 23.3032 34.8894 23.2881C35.5797 23.3859 36.2763 23.4941 36.9787 23.6125C37.4867 23.634 37.9932 23.6704 38.4982 23.7207C39.1088 23.7772 39.7208 23.8013 40.3341 23.7926C41.4107 23.8049 42.487 23.7926 43.563 23.7567C44.4651 23.6114 45.3725 23.5513 46.2852 23.5765C47.046 23.5686 47.8059 23.5927 48.5646 23.6484C49.4606 23.675 50.3683 23.675 51.287 23.6484C51.4003 23.6387 51.5059 23.6628 51.6035 23.7207C52.1406 23.7923 52.6893 23.816 53.2496 23.7926C53.9768 23.8646 54.7155 23.8883 55.4653 23.8649C55.6378 23.898 55.8064 23.9462 55.9718 24.0088H56.0351C56.2469 24.1325 56.4792 24.1807 56.7317 24.153H59.7706C59.7623 24.2062 62.3006 24.3749 62.7461 24.4055C63.0096 24.5619 63.2946 24.6461 63.6009 24.6576C63.9048 24.6011 64.2109 24.577 64.519 24.5857C65.2355 24.6313 65.9534 24.6554 66.6713 24.6576H68.2541C68.8968 24.7446 69.5508 24.7924 70.2167 24.8018H70.2801C70.902 24.9046 71.5348 24.9888 72.1793 25.0539C72.5993 25.1553 72.9999 25.3114 73.3823 25.5225C73.4912 25.6462 73.6179 25.7422 73.7621 25.8106C73.8725 26.0084 74.02 26.1526 74.2053 26.2432C74.2332 26.3594 74.2966 26.4435 74.3953 26.4953C74.5416 26.5313 74.6892 26.5432 74.8385 26.5313C75.1487 26.6122 75.4443 26.7323 75.7247 26.8917C75.7286 26.9719 75.7494 27.0438 75.7881 27.1082V27.5404C75.7039 27.6365 75.6191 27.7329 75.535 27.8289C75.3696 27.8364 75.2429 27.9206 75.1552 28.081C74.7492 28.1321 74.4117 28.3122 74.1422 28.6215C74.0363 28.6697 73.9314 28.7175 73.8255 28.7657C73.7717 28.6845 73.7083 28.6845 73.6357 28.7657C73.5367 28.7643 73.4418 28.7402 73.3508 28.6938C73.0671 28.8492 72.7822 28.9934 72.4961 29.1261C72.4232 29.1031 72.3706 29.0552 72.3379 28.9819C72.2091 29.1793 72.0508 29.2272 71.8629 29.1261C71.7775 29.2872 71.6508 29.3836 71.4831 29.4145C71.3374 29.3325 71.2 29.2365 71.0715 29.1261C70.7024 29.4455 70.3119 29.662 69.9003 29.7749C69.8566 29.7368 69.825 29.6889 69.8054 29.6307C69.7415 29.6911 69.6674 29.7148 69.5839 29.7026C69.6041 29.5426 69.5621 29.4102 69.4572 29.3063C69.5003 29.0793 69.4262 28.8992 69.2356 28.7657C69.2356 28.9355 69.2671 29.1038 69.3305 29.2703C69.24 29.394 69.1868 29.5382 69.1722 29.7026C68.9406 29.7422 68.7505 29.8623 68.6024 30.063C68.4689 30.0108 68.3422 29.9389 68.2226 29.8468C68.1257 29.9328 68.0308 29.9328 67.9377 29.8468C67.8205 29.9004 67.778 29.9723 67.811 30.063C67.7268 30.0151 67.6421 29.9669 67.5579 29.9187C67.3426 29.9846 67.1424 29.9846 66.9563 29.9187C66.914 29.8709 66.8721 29.8227 66.8296 29.7749C66.7829 29.8569 66.7302 29.8569 66.6713 29.7749C66.6258 29.9177 66.5524 30.0378 66.4498 30.1352C66.3252 30.0529 66.2086 29.9569 66.1015 29.8468C66.0453 29.9062 66.0245 29.9784 66.0385 30.063C65.9516 30.0745 65.8668 30.0622 65.7851 30.027C65.965 29.7512 65.9016 29.571 65.595 29.4865C65.3824 29.5084 65.2349 29.5807 65.1519 29.7026C65.0924 29.695 65.0392 29.671 64.9937 29.6307C64.9476 29.7501 64.8741 29.786 64.7721 29.7386C64.8322 29.6871 64.8429 29.6271 64.8036 29.5584C64.7361 29.6084 64.6626 29.6443 64.582 29.6666C64.6403 29.8141 64.6088 29.9464 64.4872 30.063C64.2959 29.8961 64.0958 29.8961 63.8858 30.063C63.7746 30.0176 63.6794 29.9457 63.6009 29.8468C63.5542 29.9241 63.4909 29.9723 63.4109 29.991C63.2687 29.886 63.1102 29.826 62.9362 29.8109C62.8833 29.7508 62.8306 29.6907 62.7777 29.6307C62.4651 29.826 62.1379 29.8738 61.7965 29.7749C61.8072 29.8702 61.7861 29.954 61.7332 30.027C61.555 30.1457 61.3965 30.1338 61.2582 29.991C61.064 29.9828 60.8636 30.0069 60.6569 30.063C60.5495 30.0007 60.4757 29.9047 60.4353 29.7749C60.2649 29.8112 60.1697 29.8954 60.1504 30.027C60.0281 30.045 59.9119 30.0813 59.8021 30.1352C59.7599 30.0871 59.7179 30.0389 59.6757 29.991C59.5701 30.0871 59.4645 30.0871 59.359 29.991C59.2561 30.2122 59.119 30.2485 58.9477 30.0989C58.9896 30.0511 59.0318 30.0029 59.0741 29.9551C58.9706 29.9195 58.8653 29.9072 58.7576 29.9187V30.1352C58.6499 30.1259 58.5551 30.0781 58.4727 29.991C58.2749 30.1795 58.0534 30.3237 57.808 30.4233C57.6893 30.332 57.5733 30.332 57.4597 30.4233C57.3785 30.346 57.3574 30.25 57.3964 30.1352C57.2066 29.936 56.9851 29.8759 56.7317 29.9551C56.5351 30.3036 56.3135 30.3399 56.067 30.063C55.9388 30.1705 55.8335 30.1464 55.7502 29.991C55.5706 30.0518 55.4546 30.1838 55.402 30.3874C55.2875 30.3841 55.1819 30.396 55.0855 30.4233C55.0237 30.3892 54.971 30.341 54.9273 30.2791C54.8824 30.3856 54.8086 30.4334 54.7057 30.4233V30.1352C54.8187 30.1557 54.9243 30.1316 55.0222 30.063C54.9588 30.0389 54.8955 30.0151 54.8324 29.991C54.7063 30.0389 54.5903 30.0389 54.4842 29.991C54.4419 30.0871 54.3997 30.1831 54.3575 30.2791C54.2334 30.2223 54.1383 30.1263 54.0725 29.991C53.9905 30.0335 53.9375 30.1054 53.9143 30.2072C53.7082 30.2 53.4971 30.1759 53.2811 30.1352C53.26 30.1831 53.2389 30.2313 53.2178 30.2791C53.1423 30.2122 53.0578 30.164 52.9647 30.1352C52.8591 30.2313 52.7535 30.2313 52.648 30.1352C52.4808 30.164 52.3333 30.2363 52.2048 30.3514C52.1787 30.3183 52.1471 30.2942 52.11 30.2791C52.0888 30.3755 52.0677 30.4715 52.0466 30.5675C52.0044 30.5193 51.9621 30.4715 51.9199 30.4233C51.8173 30.5632 51.7013 30.5873 51.5719 30.4956C51.5297 30.5434 51.4875 30.5916 51.4452 30.6395C51.3382 30.4722 51.2219 30.4363 51.097 30.5316C51.1734 30.6049 51.1523 30.6409 51.0336 30.6395C50.843 30.4406 50.7059 30.4884 50.622 30.7837C50.5367 30.4089 50.4626 30.4089 50.4004 30.7837C50.3151 30.6298 50.2095 30.6057 50.084 30.7117C50.0962 30.6262 50.0647 30.5298 49.9891 30.4233C49.9573 30.4956 49.9258 30.5675 49.894 30.6395C49.7164 30.6941 49.5475 30.7661 49.3875 30.856C49.2703 30.8146 49.154 30.7905 49.0395 30.7837C48.9925 30.861 48.9292 30.9092 48.8495 30.9279C48.7525 30.8419 48.6573 30.8419 48.5646 30.9279C48.3849 30.7013 48.1949 30.6776 47.9947 30.856C47.8995 30.816 47.794 30.816 47.6783 30.856C47.6572 30.3755 47.636 30.3755 47.6149 30.856C47.3943 30.7657 47.1623 30.7056 46.9184 30.6758C46.8669 30.5398 46.7825 30.4916 46.6653 30.5316C46.7495 30.5798 46.7495 30.6276 46.6653 30.6758C46.5597 30.6877 46.4541 30.6995 46.3486 30.7117C46.0738 30.6632 45.7995 30.6154 45.5256 30.5675V30.7837C45.3151 30.7128 45.1253 30.7369 44.9558 30.856C44.8012 30.7481 44.6322 30.6761 44.4493 30.6395C44.4053 30.7754 44.342 30.7995 44.2593 30.7117C44.2123 30.8736 44.1278 31.0056 44.0062 31.1081C43.8245 31.1307 43.6448 31.1667 43.4679 31.2163C43.1693 31.0419 42.8737 31.0419 42.5816 31.2163C42.4492 31.2106 42.3121 31.1865 42.1703 31.144C41.9499 31.3379 41.7703 31.2897 41.632 30.9998C41.5677 31.0818 41.5255 31.0577 41.5053 30.9279C41.4749 30.9962 41.4642 31.0682 41.4738 31.144C41.1183 31.1246 40.7704 31.1246 40.429 31.144C40.2874 31.1041 40.161 31.0318 40.0492 30.9279C39.9912 30.9876 39.9492 31.0595 39.9225 31.144C39.8758 31.062 39.8228 31.062 39.7643 31.144C39.6453 31.0617 39.5293 30.9897 39.416 30.9279C39.3925 30.9941 39.3607 31.0541 39.3211 31.1081C39.068 31.121 38.8253 31.1088 38.5931 31.0721C38.4461 31.1196 38.309 31.1915 38.1814 31.2882C38.0324 31.2455 37.8953 31.1732 37.7701 31.0721C37.5727 31.0746 37.3722 31.0987 37.1685 31.144C37.1262 31.048 37.0843 30.952 37.0421 30.856C36.8845 30.8937 36.7366 30.9538 36.5989 31.0361C36.6409 31.0599 36.6831 31.084 36.7253 31.1081C36.6552 31.1541 36.5814 31.1901 36.5038 31.2163C36.292 31.0969 36.0916 30.9527 35.9024 30.7837C35.7005 30.9491 35.4893 31.021 35.2692 30.9998C35.3115 30.952 35.3537 30.9038 35.3959 30.856C35.3127 30.7251 35.2178 30.6049 35.111 30.4956C35.0676 30.588 35.0783 30.6722 35.1425 30.7477C35.048 30.7844 34.9739 30.7481 34.921 30.6395C34.8222 30.7635 34.7696 30.9074 34.7627 31.0721C34.6355 31.1092 34.5088 31.121 34.383 31.1081C34.2997 31.0077 34.3208 30.9354 34.4463 30.8919C34.3618 30.8678 34.2774 30.8437 34.1929 30.8196C34.3256 30.7797 34.3363 30.7438 34.2247 30.7117C33.9832 30.8178 33.7403 30.8419 33.4967 30.7837C33.2632 30.8373 33.221 30.9452 33.37 31.1081C33.2177 31.1642 33.1121 31.1041 33.0532 30.9279C32.9132 31.0052 32.7654 31.0534 32.6101 31.0721C32.4626 30.9761 32.3148 30.9761 32.167 31.0721C32.0346 31.0732 31.9183 31.025 31.8187 30.9279C31.7753 30.9897 31.7223 31.0376 31.6605 31.0721C31.4603 31.0131 31.281 30.9171 31.1225 30.7837C31.0835 30.9002 31.0202 30.9962 30.9324 31.0721C30.8483 31.0005 30.7638 30.9282 30.6793 30.856C30.5476 30.9293 30.442 30.8811 30.3626 30.7117C30.1434 30.8973 29.9218 30.8973 29.6979 30.7117C29.5647 30.7714 29.438 30.7955 29.3181 30.7837C29.1516 30.6118 29.0249 30.66 28.9383 30.9279C28.8196 30.8243 28.6929 30.7405 28.5582 30.6758C28.4699 30.6326 28.3854 30.6449 28.3051 30.7117C28.1826 30.5629 28.0455 30.5629 27.8935 30.7117C27.8138 30.693 27.7505 30.6449 27.7038 30.5675C27.6038 30.6646 27.4879 30.7128 27.3555 30.7117C26.9418 30.5941 26.5409 30.4622 26.1525 30.3154C25.985 30.2795 25.8161 30.2676 25.646 30.2791C25.6356 30.0378 25.6463 29.7975 25.6778 29.5584C25.7409 29.4865 25.8042 29.4145 25.8676 29.3422C25.919 29.0164 25.9086 28.7042 25.836 28.4054C25.7516 28.3572 25.7516 28.3094 25.836 28.2612C25.9155 27.6311 25.7569 27.0787 25.3611 26.6036C25.1481 26.0951 25.0744 25.5667 25.1395 25.0179H24.633C24.6262 24.8532 24.5736 24.7094 24.4748 24.5857C24.4537 24.6094 24.4326 24.6335 24.4115 24.6576C24.3666 24.5515 24.2928 24.5033 24.1899 24.5134C24.1997 24.4145 24.1893 24.3184 24.1584 24.2253C24.1161 24.3213 24.0739 24.3213 24.0317 24.2253C23.9894 24.0811 23.9894 23.9369 24.0317 23.7926C24.12 23.6981 24.1834 23.7222 24.2214 23.8649C24.3895 23.715 24.5688 23.5948 24.7597 23.5046H24.8864C25.1615 23.5164 25.4357 23.5042 25.7094 23.4682C25.7444 23.4409 25.7656 23.4046 25.7727 23.3604H25.836C26.2245 23.3834 26.6043 23.3355 26.9754 23.2161C27.3772 23.228 27.7781 23.2161 28.1784 23.1802C28.2977 23.1658 28.403 23.1298 28.4949 23.0719H28.8116C29.6771 23.0619 30.5425 23.0378 31.4074 23Z" fill="#010409"/>
</svg>
