<svg width="100" height="100" viewBox="0 0 100 100" fill="none" xmlns="http://www.w3.org/2000/svg">
<circle cx="50" cy="50" r="50" fill="#F0F6FC"/>
<path fill-rule="evenodd" clip-rule="evenodd" d="M71.5998 80.0316C71.4766 80.0179 71.3557 80.0325 71.2376 80.0744C71.1678 80.1996 71.0714 80.2715 70.9475 80.2886C70.3939 80.2967 69.8387 80.239 69.2807 80.1176C68.5899 80.0752 67.9135 80.1612 67.2516 80.3745C63.7941 80.1381 60.3396 80.1671 56.8878 80.46C56.5487 80.4455 56.2107 80.46 55.8733 80.5032C55.7838 80.5228 55.7113 80.5656 55.6561 80.6314C55.2224 80.6092 54.8118 80.5237 54.424 80.3745C54.088 80.3728 53.7622 80.4301 53.4456 80.5459C53.228 80.5177 53.0108 80.4882 52.7933 80.46C52.6493 80.466 52.5407 80.5237 52.4672 80.6314C52.2071 80.743 51.9657 80.8849 51.7423 81.0598C51.3726 81.1534 51.0104 81.2389 50.6553 81.3167H50.5828C49.9302 81.3022 49.2779 81.3167 48.6263 81.3599C48.5599 81.3838 48.5115 81.4266 48.4812 81.4882C46.826 81.5121 45.1833 81.5698 43.553 81.6596C43.1638 81.6502 42.7774 81.6792 42.3934 81.7451C41.498 81.7374 40.6044 81.7806 39.7121 81.8738C39.5561 81.8823 39.4353 81.9533 39.3498 82.0879C38.9859 82.0879 38.6237 82.0589 38.2628 82.0024C37.9898 81.9939 37.748 82.0794 37.538 82.2594C35.5178 82.5454 33.4884 82.6458 31.4502 82.5591C31.2306 82.3868 30.9892 82.2867 30.7257 82.2594C30.6494 82.1085 30.5286 82.052 30.3631 82.0879C30.0148 82.0033 29.6526 81.9747 29.2761 82.0024C28.7817 82.0153 28.2987 81.943 27.8265 81.7883C28.0832 81.7596 28.1676 81.6032 28.0804 81.3167C27.948 81.2654 27.8152 81.2081 27.6818 81.1457C27.104 81.0598 26.5243 81.0316 25.9424 81.0598C25.8549 80.9974 25.7583 80.9683 25.6524 80.9743C25.601 80.8969 25.5285 80.8678 25.4352 80.8884C25.3446 80.2056 25.0062 79.8345 24.4203 79.7747H24.2756C24.2675 79.7217 24.2433 79.6789 24.2031 79.646C23.8559 79.6272 23.5175 79.5562 23.1882 79.4318C23.0514 79.1356 23.015 78.8214 23.0796 78.4896C23.2366 78.349 23.3452 78.1779 23.4058 77.9757C24.2698 77.4512 25.1758 77.0228 26.1236 76.6906C26.1477 76.7189 26.1719 76.7479 26.1961 76.7761C26.7857 76.3555 27.4261 76.1131 28.1165 76.0481C28.2306 75.9126 28.3633 75.813 28.5152 75.748C29.4231 75.5278 30.341 75.3282 31.269 75.1482C31.3477 75.2162 31.4321 75.2734 31.5227 75.3196C31.7116 75.0601 31.9411 75.0028 32.211 75.1482C32.3918 75.12 32.5488 75.0345 32.6822 74.8913C32.8606 74.8836 33.0421 74.8836 33.2259 74.8913C33.3587 74.775 33.4915 74.7463 33.6246 74.8058C34.3708 74.5373 35.1321 74.3368 35.9073 74.206C36.388 74.2641 36.8469 74.2923 37.2844 74.2915C37.4198 74.2427 37.5526 74.1863 37.683 74.12C37.8563 74.1812 38.0132 74.1234 38.1538 73.949C38.178 74.0063 38.2022 74.0627 38.2264 74.12C38.307 74.0166 38.3915 74.0166 38.48 74.12C38.6475 73.9439 38.8286 73.8862 39.0237 73.949C39.1445 73.8913 39.2651 73.8349 39.3859 73.7776C39.4547 73.8221 39.5153 73.8793 39.567 73.949C39.6838 73.8588 39.8047 73.8588 39.9296 73.949C40.0716 73.917 40.2043 73.8597 40.3279 73.7776C40.3807 73.8255 40.441 73.8537 40.5094 73.8631C41.2025 73.5506 41.9028 73.5215 42.6109 73.7776C42.8765 73.8144 43.1543 73.7579 43.4444 73.6062C43.6891 73.6797 43.955 73.6506 44.2417 73.5207C44.5249 73.6421 44.8388 73.6994 45.1837 73.6917C45.7012 73.6318 46.2329 73.6318 46.778 73.6917C47.0551 73.6754 47.3087 73.5899 47.5392 73.4347C47.6928 73.4202 47.8378 73.4484 47.974 73.5207C48.1343 73.5874 48.3154 73.5874 48.5173 73.5207C48.6382 73.5779 48.759 73.6344 48.8799 73.6917C49.1965 73.5882 49.5107 73.4741 49.8219 73.3492C49.985 73.38 50.1661 73.4364 50.3656 73.5207C51.3297 73.4929 52.2963 73.4647 53.2645 73.4347C53.4293 73.4749 53.5743 73.5608 53.6992 73.6917C53.9787 73.6275 54.2443 73.6848 54.4965 73.8631C54.7042 73.8024 54.8853 73.6874 55.0399 73.5207C55.6462 73.5352 56.2502 73.6207 56.8517 73.7776C57.0121 73.5993 57.2055 73.4852 57.4315 73.4347C57.6889 73.4967 57.9548 73.5249 58.2288 73.5207C58.3735 73.4629 58.5186 73.4065 58.6636 73.3492C58.6861 73.4185 58.7221 73.4749 58.7722 73.5207C58.9656 73.4672 59.1467 73.3817 59.3159 73.2633C59.4837 73.2539 59.6648 73.2825 59.8592 73.3492C60.2146 73.1641 60.565 73.1641 60.9102 73.3492C61.1883 73.3261 61.4661 73.2979 61.7436 73.2633C61.8304 73.2936 61.8304 73.3364 61.7436 73.392C61.8038 73.4065 61.8644 73.4202 61.9247 73.4347C62.1708 73.3355 62.4122 73.3355 62.6495 73.4347C62.6996 73.3612 62.7598 73.3048 62.8306 73.2633C63.2535 73.3193 63.6644 73.3484 64.0627 73.3492C64.1992 73.3304 64.3201 73.2736 64.4253 73.1778C64.7872 73.3697 65.1617 73.3988 65.5484 73.2633C65.688 73.4749 65.8208 73.4749 65.9471 73.2633C66.1333 73.3603 66.3267 73.4322 66.5268 73.4775C66.6235 73.5352 66.6235 73.5916 66.5268 73.6489C66.6409 73.6865 66.948 73.7656 66.998 73.6917C67.0099 73.7348 67.1594 73.8468 67.2516 73.7348C67.2183 73.6994 67.1941 73.6566 67.1791 73.6062C67.43 73.5523 67.6714 73.4664 67.9039 73.3492C67.9747 73.3903 68.035 73.4467 68.085 73.5207C68.2791 73.4168 68.4844 73.3595 68.7009 73.3492C69.0526 73.38 69.4148 73.38 69.7879 73.3492C69.7822 73.5865 70.0344 73.7365 70.3677 73.6917V73.4347C70.4865 73.4168 70.5955 73.445 70.6939 73.5207C70.7521 73.4091 70.8369 73.3518 70.9475 73.3492C71.2658 73.3997 71.5797 73.4706 71.8899 73.5634C71.8034 73.6506 71.7309 73.7511 71.6723 73.8631C71.7635 73.8186 72.4305 73.666 72.5421 73.5207C72.5871 73.7323 72.6477 73.9319 72.7233 74.12C72.79 74.0123 72.8506 73.8981 72.9044 73.7776C73.1883 74.0414 73.6152 74.229 73.5202 74.12C73.4631 74.3 73.3544 74.415 73.1941 74.4629C73.2428 74.5202 73.2908 74.577 73.3391 74.6343C73.2581 74.9152 73.1246 75.1439 72.9405 75.3196C72.8397 75.2239 73.2666 75.6907 73.3391 75.8339C73.3878 75.7762 73.4355 75.7198 73.4842 75.6625C73.5131 75.845 73.5131 76.016 73.4842 76.1763C73.605 76.0626 73.7255 76.0626 73.8464 76.1763C73.987 76.028 74.1198 75.8861 74.2451 75.748C74.2815 75.8767 74.3176 76.0049 74.3537 76.1336C74.2719 76.161 74.1994 76.2319 74.1364 76.3478C74.1848 76.5192 74.2328 76.6906 74.2815 76.8616C74.1987 77.2498 74.2464 77.278 74.4262 76.9476C74.6212 77.1797 74.5974 77.3366 74.3537 77.4187C74.5103 77.4272 74.6553 77.4982 74.7887 77.6329C74.4902 77.853 74.5024 77.9103 74.8248 77.8043C74.9096 77.8479 74.9699 77.9189 75.0059 78.0185C74.8415 78.0587 74.6965 78.1442 74.5712 78.2754C74.6641 78.3336 74.7489 78.3199 74.8248 78.2327C74.9103 78.5743 74.8017 78.7175 74.4987 78.661C74.4929 78.8983 74.5293 79.127 74.6076 79.3463C74.6315 79.3181 74.656 79.289 74.6798 79.2608C74.8003 79.4887 74.9205 79.4887 75.0424 79.2608C75.1748 79.3044 75.1864 79.3754 75.0785 79.475C74.2879 79.6375 73.4906 79.7234 72.6868 79.7319C72.3123 79.8089 71.9498 79.9094 71.5998 80.0316Z" fill="#010409"/>
<path fill-rule="evenodd" clip-rule="evenodd" d="M75.5363 53.6521C75.6058 53.6911 75.666 53.7479 75.7174 53.8236C76.0364 53.7406 76.3622 53.712 76.6959 53.7381C77.0734 53.9749 77.4356 54.2319 77.7829 54.5089C77.7523 54.7299 78.2364 55.1591 78.2902 54.7231C78.3865 54.6662 78.4835 54.6662 78.5799 54.7231C78.6575 54.8599 78.73 54.9881 78.7974 55.1087C78.8662 55.0377 78.9387 55.0236 79.015 55.0659C78.9663 55.1801 78.8938 55.2656 78.7974 55.3229C78.8308 55.3583 78.8546 55.4011 78.8699 55.4515C78.7736 55.537 78.6766 55.6225 78.5799 55.7085C78.604 55.7658 78.6286 55.8226 78.6524 55.8799C78.5329 56.1343 78.3879 56.363 78.2176 56.5652C78.2255 56.702 78.2496 56.8448 78.2902 56.9936C78.1945 57.2407 78.122 57.4976 78.0726 57.7648C77.9371 57.386 77.7437 57.3715 77.4928 57.7216C77.6334 57.7994 77.706 57.9281 77.7104 58.1072C77.4785 58.0722 77.261 58.0722 77.0581 58.1072C77.148 58.3073 77.2692 58.3642 77.4203 58.2787C77.6835 58.4809 77.7073 58.7237 77.4928 59.0067C77.5619 59.0597 77.6219 59.0456 77.6743 58.964C77.7407 59.011 77.8016 59.0678 77.8554 59.1354C77.819 59.2397 77.7951 59.3397 77.7829 59.4351C77.675 59.5526 77.566 59.5667 77.4567 59.4783C77.3567 59.5813 77.2726 59.6954 77.2031 59.8207H76.6233C76.6118 59.7031 76.0391 60.1413 75.4999 59.9066C75.2868 60.0969 75.0573 60.1251 74.8115 59.9921C74.707 60.0109 74.6106 60.0537 74.5214 60.1208C73.8678 60.2024 73.2403 60.2456 72.6374 60.249C72.4236 59.9686 72.1938 59.94 71.9487 60.1635C71.8272 60.1152 71.7308 60.0297 71.659 59.9066C71.5807 60.0682 71.4605 60.1541 71.2964 60.1635C71.0523 60.0763 70.8225 60.0195 70.608 59.9921C70.2523 60.1174 69.89 60.2033 69.521 60.249V59.5638C69.3443 59.5313 69.2956 59.5881 69.376 59.7352C69.3375 59.8835 69.2653 59.9977 69.1588 60.0776C67.7483 60.1208 66.3232 60.0635 64.8828 59.9066C64.5144 59.7681 64.1399 59.7395 63.7593 59.8207C63.2459 59.6681 62.7264 59.5539 62.2014 59.4783C62.051 59.5864 61.9059 59.5719 61.7663 59.4351C60.44 59.3885 59.1354 59.2316 57.8529 58.964C57.7784 58.8998 57.6936 58.843 57.5993 58.7925C57.5751 58.8212 57.551 58.8498 57.5268 58.8785C57.1537 58.8032 56.7795 58.7177 56.4037 58.6215C56.3025 58.6318 56.2059 58.6604 56.1136 58.707C55.9284 58.5997 55.735 58.5283 55.5338 58.4928C55.6217 58.4163 55.6217 58.3449 55.5338 58.2787C55.4913 58.2966 55.4552 58.3253 55.4252 58.3642C55.2996 58.3 55.1665 58.2573 55.0266 58.2359C54.6545 57.7528 54.2194 57.2813 53.722 56.8221C53.5844 56.6994 53.5603 56.5562 53.6495 56.3938C53.5129 56.3164 53.3798 56.2305 53.2511 56.1368C53.2154 56.0261 53.2035 55.9115 53.2147 55.794C53.4513 55.7393 53.6808 55.7393 53.9031 55.794C54.0233 55.5661 54.1441 55.5661 54.2657 55.794C54.379 55.6781 54.5121 55.6208 54.6643 55.6225C54.6936 55.2741 54.8386 55.0172 55.0991 54.8517C55.542 54.6636 55.9767 54.4495 56.4037 54.2092C56.9024 54.0621 57.4097 53.9762 57.9254 53.9523C57.9615 53.9091 57.998 53.8663 58.034 53.8236C58.1522 53.7949 58.2608 53.8518 58.3602 53.995C58.6162 53.951 58.8457 54.0083 59.0489 54.1664C59.1694 54.1092 59.2903 54.0519 59.4111 53.995C59.8176 54.2797 60.2163 54.3084 60.6068 54.0805C60.8907 54.0959 61.1927 54.1241 61.5127 54.1664C61.5852 54.1092 61.6577 54.0519 61.7303 53.995C62.1136 54.1318 62.4758 54.0745 62.8173 53.8236C63.1468 54.0459 63.473 54.0459 63.7957 53.8236C63.9847 53.9394 64.19 53.9967 64.4116 53.995C65.2082 54.01 66.0052 53.9818 66.8032 53.9091C66.8301 54.0301 66.8904 54.1156 66.9843 54.1664C67.2649 53.9407 67.5427 53.9407 67.8177 54.1664C67.878 54.095 67.9389 54.0237 67.9992 53.9523C68.4094 53.9501 68.8078 53.8787 69.1948 53.7381C69.3123 53.7573 69.3971 53.8287 69.4485 53.9523C69.3651 54.2793 69.9472 53.5914 70.7531 53.7381C70.8436 53.9069 70.9522 53.9356 71.0792 53.8236C71.2001 53.9664 71.3206 54.1092 71.4414 54.2519C71.6103 53.995 71.8278 53.8236 72.0937 53.7381C72.7756 53.6368 73.4644 53.6368 74.1592 53.7381C74.3427 53.5307 74.4751 53.5876 74.5579 53.9091C74.5848 53.8309 74.6208 53.7595 74.6665 53.6949C74.9637 53.7253 75.2534 53.7107 75.5363 53.6521Z" fill="#010409"/>
<path fill-rule="evenodd" clip-rule="evenodd" d="M47.0547 58.7925C46.6149 59.0674 46.1798 59.3671 45.7501 59.6924C45.5568 59.7206 45.3637 59.7493 45.1704 59.7779C44.6699 60.046 44.1627 60.2601 43.6486 60.4205H36.039C33.6245 60.5504 31.2091 60.6077 28.7916 60.5919H28.7191C27.7914 60.4568 26.8493 60.3995 25.8927 60.4205C25.3187 60.3256 24.7389 60.2114 24.1534 60.0776C23.9144 59.9079 23.6485 59.8224 23.356 59.8207C23.2321 59.7146 23.0871 59.6574 22.9213 59.6492C22.5839 59.4496 22.2455 59.2499 21.9068 59.0499C21.6964 58.8656 21.4547 58.7374 21.182 58.6643C21.0747 58.4458 21.1231 58.2885 21.327 58.1931C21.3464 57.7891 21.5156 57.5177 21.8343 57.3792C21.8887 57.3214 21.9129 57.2501 21.9068 57.165C22.031 57.1539 22.1519 57.1252 22.269 57.0791C22.5151 56.9884 22.7688 56.9025 23.0302 56.8221C23.4075 56.354 23.8786 56.1398 24.4434 56.1796C25.2064 55.8307 25.9676 55.5597 26.7261 55.3656C26.9396 55.3861 27.169 55.4143 27.4145 55.4515C27.8434 55.2438 28.2785 55.1296 28.7191 55.1087C28.8552 55.145 28.9642 55.2309 29.0452 55.3656C29.2199 55.1877 29.4132 55.045 29.625 54.9372C30.2671 55.045 30.9071 54.9595 31.5454 54.6803C31.7562 54.7239 31.9615 54.7812 32.1616 54.8517C32.2151 54.7598 32.2876 54.7025 32.3788 54.6803C32.7428 54.7085 33.0812 54.7372 33.3937 54.7658C33.533 54.5542 33.6661 54.5542 33.792 54.7658C33.7907 54.5948 33.887 54.4806 34.0821 54.4234C34.2207 54.4221 34.3657 54.4507 34.5168 54.5089C34.829 54.4392 35.1429 54.3823 35.4592 54.3374C35.4374 54.5726 35.5218 54.7153 35.7128 54.7658C36.0281 54.7085 36.04 54.6085 35.7489 54.4661C35.7853 54.452 35.8214 54.4375 35.8575 54.4234C36.0805 54.4452 36.31 54.4597 36.5462 54.4661C36.709 54.7401 36.8782 54.7401 37.0535 54.4661C37.1985 54.4375 37.3432 54.4088 37.4882 54.3806C38.3703 54.3609 39.264 54.3323 40.1699 54.2947C40.363 54.266 40.5563 54.2378 40.7497 54.2092C40.7858 54.1664 40.8219 54.1232 40.8583 54.0805C41.3952 54.1228 41.9266 54.2087 42.4526 54.3374C42.5656 54.2652 42.6381 54.3225 42.6701 54.5089C42.8428 54.402 42.9874 54.2592 43.1049 54.0805C43.1532 54.1378 43.2016 54.1946 43.2499 54.2519C43.351 54.1724 43.4596 54.1724 43.5761 54.2519C43.8134 54.1412 44.0428 54.0843 44.2644 54.0805C44.373 54.1232 44.482 54.1664 44.5906 54.2092C44.8881 54.7701 45.3229 55.027 45.8952 54.98C46.1869 55.098 46.4889 55.2549 46.8011 55.4515C46.6877 56.0415 46.5791 56.6413 46.475 57.2505C46.5131 57.5147 46.5733 57.7716 46.6561 58.0217C46.7017 58.2329 46.8106 58.3757 46.9822 58.4501C47.0496 58.5518 47.0735 58.666 47.0547 58.7925Z" fill="#010409"/>
<path fill-rule="evenodd" clip-rule="evenodd" d="M66.4924 63.8782C66.5408 63.9064 66.5891 63.9351 66.6374 63.9637C66.92 64.0556 67.0766 64.2839 67.1086 64.649C67.1685 64.5776 67.2295 64.5062 67.2897 64.4348C67.1403 64.3335 67.128 64.2335 67.2533 64.1351C67.3418 64.2112 67.4382 64.2681 67.5434 64.3066C67.7694 64.2283 67.9992 64.1424 68.2318 64.0492C68.3986 64.174 68.5559 64.2595 68.7029 64.3066C68.9964 64.2057 69.2139 64.3198 69.3552 64.649C69.4665 64.5357 70.8276 64.6648 70.9495 64.5635C71.3849 64.5498 71.8316 64.5639 72.2902 64.6062C72.506 64.7939 73.0678 65.1547 73.015 65.0346C73.2091 64.7914 73.4511 64.6627 73.7398 64.649C74.3703 64.8491 74.9977 65.0492 75.6238 65.2488C75.6146 65.3121 75.6269 65.3698 75.6603 65.4202C75.7855 65.3275 75.9183 65.3138 76.0589 65.3775C76.6074 65.8597 77.2117 66.0602 77.8708 65.9768C78.0379 66.0705 78.1353 66.2274 78.1605 66.4484C78.2548 66.7002 78.3995 66.8998 78.5952 67.0482C78.5469 67.0764 78.4989 67.1055 78.4505 67.1337C78.5676 67.4009 78.5193 67.6151 78.3055 67.7762C78.3191 67.9177 78.3314 68.0742 78.3416 68.2473C78.4192 68.0947 78.5278 68.052 78.6677 68.1191C78.5612 68.1798 78.5128 68.2798 78.5227 68.4188C78.7866 68.3538 78.8955 68.4675 78.8489 68.7616C78.7968 68.68 78.7365 68.6655 78.6677 68.7185C78.7634 68.789 78.8121 68.8882 78.8128 69.0186C78.6953 69.2379 78.5265 69.3798 78.3055 69.4469C77.964 69.5427 77.6263 69.6577 77.291 69.7894C76.2016 69.8531 75.1145 69.9386 74.0295 70.0467C73.987 70.0288 73.9505 70.0001 73.9209 69.9608C73.4954 70.007 73.0845 70.1211 72.6889 70.3037C72.4172 70.2327 72.1758 70.0895 71.964 69.8753C71.946 69.9711 71.9099 70.057 71.8554 70.1322C71.788 70.0348 71.7278 70.0348 71.6743 70.1322C71.6502 70.0749 71.6256 70.0185 71.6018 69.9608C71.2835 70.0194 70.9699 70.1049 70.6595 70.2177C70.4964 70.1374 70.3275 70.0801 70.1522 70.0467C69.3668 70.1707 68.581 70.1998 67.797 70.1322C66.904 70.2737 65.9984 70.3028 65.0792 70.2177C64.2795 70.2083 63.4945 70.2661 62.724 70.3892C62.6532 70.4311 62.5811 70.4742 62.5065 70.5179C61.431 70.5324 60.3682 70.5751 59.3176 70.6461C59.2243 70.6256 59.1518 70.6551 59.1004 70.732C58.3864 70.7038 57.6861 70.7329 56.9984 70.8175C56.051 70.8517 55.109 70.7953 54.1721 70.6461C53.9583 70.5811 53.7649 70.4665 53.5923 70.3037C53.5606 70.169 53.4881 70.069 53.3751 70.0036C53.0636 69.9189 52.7858 69.762 52.5417 69.5324C52.4974 69.3123 52.5335 69.1126 52.6503 68.9326C52.7075 68.9087 52.7558 68.866 52.7953 68.8044C52.6608 68.4402 52.6125 68.0691 52.6503 67.6907C52.3742 67.0238 52.1086 66.3522 51.853 65.6772C51.9966 65.4809 52.0811 65.2522 52.1066 64.9919C52.3715 64.6593 52.6976 64.4596 53.085 64.3921C53.2161 64.5084 53.3247 64.4797 53.4112 64.3066C53.5909 64.5951 53.7721 64.6097 53.9549 64.3493C54.3947 64.248 54.8295 64.1197 55.2591 63.9637C55.4726 64.1001 55.6659 64.0719 55.8389 63.8782C55.9325 64.0471 56.053 64.0471 56.2015 63.8782C56.2774 63.9539 56.3618 64.0107 56.4551 64.0492C56.7509 64.0458 57.0529 64.0312 57.361 64.0065C57.2636 64.1629 57.3001 64.263 57.4696 64.3066C57.6221 64.1971 57.7672 64.1116 57.9044 64.0492C57.9769 64.1065 58.0494 64.1638 58.1219 64.2206C58.2104 64.1445 58.3068 64.0877 58.4116 64.0492C58.7643 64 59.1146 63.9428 59.4626 63.8782C59.5794 63.9483 59.6277 64.0625 59.6076 64.2206C59.7445 64.2382 59.8534 64.1809 59.9338 64.0492C60.0788 64.1065 60.2235 64.1638 60.3685 64.2206C60.4683 64.074 60.5891 63.9599 60.7307 63.8782C60.7757 63.9594 60.7634 64.0308 60.6947 64.0924C60.8897 64.0492 61.0831 64.0633 61.2744 64.1351C61.6128 64.0971 61.939 64.0112 62.2529 63.8782C62.5511 63.8752 62.8408 63.9039 63.1224 63.9637C63.2977 63.8906 63.4788 63.8337 63.6661 63.7923C63.775 63.8799 63.8836 63.9658 63.9922 64.0492C64.2969 63.8808 64.5866 63.9381 64.8617 64.2206C64.8859 64.1351 64.91 64.0492 64.9342 63.9637C65.1732 64.0355 65.4149 64.1215 65.659 64.2206C65.772 64.1753 65.8806 64.1185 65.9852 64.0492C66.2102 64.1903 66.3791 64.133 66.4924 63.8782Z" fill="#010409"/>
<path fill-rule="evenodd" clip-rule="evenodd" d="M42.1419 64.4775C42.2454 64.4844 42.3421 64.4562 42.4316 64.392C42.6631 64.5092 42.9048 64.5806 43.1564 64.6062C43.2654 64.6776 43.3498 64.7776 43.4101 64.9059C43.4465 64.8631 43.4826 64.8204 43.519 64.7776C43.9238 64.6712 44.2864 64.7571 44.606 65.0346C44.8134 65.3937 45.067 65.6934 45.3669 65.9341C45.6897 66.6065 45.7983 67.3205 45.6931 68.0759C45.5038 68.1567 45.3591 68.2995 45.2583 68.5042H45.1133C44.7105 68.7513 44.3725 69.0938 44.0988 69.5324C43.4822 69.8317 42.8783 70.1459 42.2869 70.4751C42.0745 70.481 41.8815 70.5375 41.7071 70.6461C41.4505 70.6679 41.2091 70.7252 40.9823 70.8175C40.7546 70.888 40.5132 70.9308 40.2575 70.9462C40.2174 70.9787 40.1932 71.0214 40.185 71.0744H40.0403C39.3799 71.1834 38.7276 71.2689 38.0835 71.3318C37.6831 71.3044 37.2963 71.3326 36.9239 71.4173C36.0762 71.3959 35.2305 71.425 34.3872 71.5028C33.0479 71.5836 31.7192 71.6691 30.4013 71.7602C28.6133 71.7576 26.8256 71.7858 25.0383 71.8457C24.8732 71.6982 24.6798 71.6409 24.4585 71.6742C23.9843 71.2655 23.477 70.9231 22.9367 70.6461C22.8782 70.5409 22.806 70.4554 22.7192 70.3891C22.6096 70.2446 22.5129 70.0877 22.4295 69.918C22.4867 69.7782 22.5592 69.65 22.647 69.5324C22.7158 69.3999 22.74 69.2575 22.7192 69.104C22.8707 69.1083 22.9674 69.0228 23.0092 68.8471C22.9555 68.5953 22.919 68.3384 22.9006 68.0759C22.6051 67.7129 22.3515 67.3128 22.1394 66.8767C22.0615 66.7728 21.9648 66.7164 21.8497 66.7053C21.7465 66.4902 21.626 66.2906 21.4871 66.1055C21.5253 65.8751 21.6461 65.7464 21.8497 65.7199C21.9464 65.4911 22.0911 65.3197 22.2844 65.206C23.1032 65.0936 23.9244 64.8935 24.7486 64.6062C25.4622 64.6477 26.1628 64.6049 26.8501 64.4775C26.9662 64.4822 27.0748 64.5104 27.1763 64.5635C27.4231 64.5049 27.6767 64.4194 27.9372 64.3065C28.2889 64.5271 28.6392 64.5271 28.9881 64.3065C29.1703 64.3715 29.3633 64.3997 29.5679 64.392C29.9353 64.3078 30.2852 64.2505 30.6189 64.2206C30.8279 64.2317 31.0094 64.3172 31.1622 64.4775C31.7314 64.4014 32.3231 64.3869 32.938 64.4348C33.1395 64.5113 33.3329 64.6113 33.5178 64.7349C33.6144 64.5703 33.7472 64.4848 33.9164 64.4775C34.104 64.4933 34.297 64.5216 34.4962 64.5635C34.7849 64.4019 35.0869 64.3587 35.4021 64.4348C35.4474 64.4993 35.4835 64.5707 35.5107 64.649C35.6152 64.5318 35.7357 64.4459 35.8729 64.392C36.3581 64.3959 36.8412 64.3959 37.3226 64.392C37.521 64.4591 37.7263 64.5019 37.9384 64.5207C37.9837 64.5848 38.0201 64.6562 38.0474 64.7349C38.0971 64.6614 38.1577 64.6041 38.2285 64.5635C38.4338 64.5703 38.651 64.5848 38.8808 64.6062C38.971 64.7627 39.0558 64.7481 39.1344 64.5635C39.5307 64.6225 39.929 64.6793 40.33 64.7349C40.6538 64.4835 40.98 64.4549 41.3085 64.649C41.4399 64.6498 41.5485 64.5925 41.6346 64.4775C41.8028 64.578 41.972 64.578 42.1419 64.4775Z" fill="#010409"/>
<path fill-rule="evenodd" clip-rule="evenodd" d="M66.2521 44.1165H66.3246C66.4356 44.2563 66.5806 44.3277 66.7594 44.3307C67.5812 44.3816 68.4023 44.4384 69.2235 44.5021C69.4346 44.5133 69.6041 44.6133 69.7308 44.8018C69.8996 44.745 70.0692 44.6877 70.238 44.6304C70.9853 44.7266 71.7339 44.7407 72.485 44.6736C72.566 44.6522 72.6385 44.609 72.7022 44.5449C73.8226 44.4637 74.9345 44.3209 76.0358 44.1165C76.207 44.1315 76.3759 44.1601 76.5434 44.202C76.7374 44.199 76.9186 44.2559 77.0867 44.3735C77.321 44.7074 77.5984 44.9788 77.9202 45.1874C78.0737 45.5538 78.2674 45.8821 78.4999 46.1729C78.5827 46.5563 78.5347 46.9278 78.3549 47.2865C78.1088 47.4921 77.915 47.7491 77.7751 48.0577C77.7268 48.286 77.6788 48.5143 77.6304 48.743C77.5722 48.8751 77.5484 49.0179 77.5579 49.1714C77.4558 49.212 77.4078 49.2975 77.4129 49.4283C77.3642 49.457 77.3165 49.4856 77.2679 49.5138C76.8062 49.5891 76.347 49.5891 75.8911 49.5138C75.7839 49.7237 75.6991 49.6951 75.6375 49.4283C75.5445 49.6194 75.4121 49.7622 75.2388 49.8567C75.1445 49.8063 75.0843 49.7203 75.0577 49.5998C74.9423 49.6746 74.8337 49.7605 74.7316 49.8567C74.6791 49.787 74.6192 49.7302 74.5501 49.6853C74.3734 49.6947 74.1923 49.6947 74.0067 49.6853C73.8821 49.8084 73.7371 49.8794 73.572 49.8995C73.1611 49.9281 72.7508 49.9567 72.3399 49.9854C72.1254 50.0093 71.9324 50.0807 71.7601 50.1996C71.3121 50.1136 70.8651 50.1136 70.4195 50.1996C70.2836 50.1816 70.1635 50.1248 70.0569 50.0281C69.7512 50.2342 69.4489 50.2342 69.151 50.0281C68.7002 50.0799 68.2532 50.1372 67.8103 50.1996C67.6357 50.0316 67.4546 50.0316 67.2666 50.1996H66.7594C66.1881 50.2543 65.6325 50.1829 65.0925 49.9854C65.2202 49.7195 65.3411 49.448 65.4551 49.1714C65.4126 49.0427 65.3523 48.9286 65.2737 48.8285C65.1477 49.1205 65.0752 49.4348 65.0565 49.7712C64.9717 49.8905 64.8627 49.9619 64.7303 49.9854C64.3289 50.0055 63.9303 50.0482 63.5343 50.1136C62.9253 50.1025 62.3091 50.088 61.6864 50.0709C61.4964 49.9905 61.3031 49.9191 61.1066 49.8567C61.0453 49.693 61.0208 49.522 61.0341 49.3428C60.504 49.1291 60.0206 49.2287 59.5848 49.6425C59.1205 49.6109 58.6738 49.625 58.2442 49.6853C57.8826 49.5425 57.5081 49.4711 57.1207 49.4711C57.0724 49.3569 57.024 49.2428 56.9757 49.1287C56.8596 49.1051 56.751 49.0624 56.6495 49C56.3424 49.1706 56.0282 49.1988 55.7075 49.0855C55.0096 49.2749 54.3209 49.5177 53.642 49.814C53.5876 49.8712 53.5634 49.9426 53.5695 50.0281C53.2495 50.1047 52.9836 50.2761 52.7722 50.542H52.6275C50.8575 50.6809 49.094 50.6527 47.337 50.4565C46.9874 50.4078 46.6374 50.436 46.286 50.542C46.0665 50.5608 45.837 50.5322 45.5977 50.4565C45.3842 50.5202 45.167 50.563 44.9454 50.5848C43.1451 50.6249 41.3574 50.6963 39.5824 50.7989C38.5437 50.7947 37.5046 50.766 36.4659 50.7134C35.6666 50.81 34.8692 50.9242 34.0746 51.0563C33.6396 50.999 33.2048 50.9417 32.7701 50.8849C31.5686 50.9699 30.373 50.9986 29.1825 50.9704C28.7719 50.9135 28.3613 50.8562 27.9507 50.7989C26.8538 50.8968 25.7545 50.9114 24.6532 50.8421C24.2481 50.3766 23.765 50.1337 23.2036 50.1136C22.9612 50.0705 22.7923 49.9131 22.6963 49.6425C22.7385 49.566 22.7627 49.4805 22.7688 49.3856C22.6824 49.0243 22.586 48.6674 22.4791 48.3147C22.3154 48.1279 22.2067 47.8996 22.153 47.629C21.9821 47.5272 21.8493 47.3844 21.7543 47.2006C21.4884 46.9398 21.4159 46.6256 21.5368 46.2584C21.613 46.2712 21.6855 46.2571 21.7543 46.2156C22.089 45.7359 22.2098 45.1789 22.1165 44.5449C22.3593 44.559 22.601 44.5449 22.8413 44.5021C23.6121 44.1789 24.373 43.8224 25.124 43.4312C25.1965 43.4881 25.269 43.5454 25.3416 43.6027C25.9561 43.4381 26.56 43.4381 27.1534 43.6027C27.1885 43.5214 27.2004 43.4355 27.1895 43.3453C27.6099 43.4868 28.0205 43.4582 28.4216 43.2598C28.7184 43.4073 29.0207 43.4359 29.3275 43.3453C29.5454 43.4612 29.7626 43.4898 29.9798 43.4312C30.294 43.4881 30.6079 43.5454 30.9221 43.6027C32.0698 43.542 33.2051 43.542 34.3283 43.6027C35.1011 43.5351 35.8742 43.4492 36.6474 43.3453C37.3439 43.4094 38.0204 43.4381 38.6764 43.4312C39.0148 43.374 39.3529 43.3171 39.691 43.2598C40.5022 43.3564 41.3115 43.3278 42.119 43.1743C42.3495 43.1534 42.567 43.1534 42.7713 43.1743C42.8755 43.105 42.9844 43.0482 43.0974 43.0029C44.8569 43.312 46.6204 43.3406 48.3876 43.0884C48.6028 43.1563 48.8203 43.2136 49.0399 43.2598C50.0122 43.2256 50.9784 43.2256 51.9388 43.2598C53.8034 43.7331 55.6878 43.819 57.5919 43.5167C58.876 43.5428 60.1564 43.5428 61.4328 43.5167C62.1232 43.5048 62.7874 43.6476 63.4257 43.9451C63.597 43.8442 63.7781 43.7874 63.9694 43.7737C64.5822 43.8245 65.1743 43.9673 65.7448 44.202C65.913 44.1597 66.0819 44.1311 66.2521 44.1165Z" fill="#010409"/>
<path fill-rule="evenodd" clip-rule="evenodd" d="M47.3591 30.3845H47.4946C49.5784 30.47 51.6742 30.4982 53.7816 30.47C53.7816 30.5273 53.804 30.5555 53.8493 30.5555C53.9634 30.6243 54.0761 30.7103 54.187 30.8129C54.8369 30.7291 55.4906 30.7004 56.1477 30.7269H56.418C57.4485 30.8304 58.4852 30.9732 59.5279 31.1553C59.6808 31.0724 59.8384 31.0155 60.0012 30.9839H61.0827C61.0827 31.0412 61.1052 31.0698 61.1502 31.0698C62.3567 31.1861 63.5738 31.2143 64.8007 31.1553H64.9362C65.0346 31.2848 65.7155 31.3105 65.8486 31.3267C66.8849 31.4618 67.9216 31.576 68.9586 31.6696C69.3113 31.6687 69.6378 31.6119 69.9387 31.4982H70.0065C70.1988 31.5097 70.3902 31.5384 70.5808 31.5837C71.4227 31.4392 72.2677 31.3537 73.1161 31.3267H73.4542V31.4122C73.492 31.523 73.5597 31.5944 73.6567 31.6264C74.3815 31.6097 75.0805 31.7384 75.7525 32.012C75.8059 32.1497 75.8958 32.2066 76.0232 32.1835C76.0082 32.2839 76.0303 32.3699 76.0906 32.4404C76.2223 32.3395 76.369 32.2822 76.5301 32.269C76.9281 32.3348 77.3223 32.4203 77.7131 32.5263C77.9902 32.5652 78.25 32.5079 78.4904 32.3549C78.5424 32.3673 78.5877 32.3959 78.6259 32.4404C78.6238 32.6204 78.5785 32.7914 78.4904 32.9547C78.3715 33.4408 78.473 33.8118 78.7947 34.0684C78.84 34.1539 78.8846 34.2398 78.9299 34.3253C78.9353 34.7075 78.89 35.079 78.7947 35.439C78.6555 35.4552 78.5203 35.4979 78.3892 35.5676C78.041 35.9947 77.6352 36.2944 77.1722 36.4671C77.1282 36.518 77.083 36.5748 77.037 36.6385C76.9107 36.6005 76.3306 37.0477 76.4964 37.1097C76.3745 37.2554 76.2393 37.27 76.0906 37.1524C75.8999 37.2046 75.7202 37.2901 75.5499 37.4098C75.4546 37.3097 75.376 37.3379 75.3133 37.4953C75.0406 37.2353 74.8272 37.3067 74.6709 37.7095C74.5 37.7864 74.354 37.7432 74.2314 37.5808C74.1991 37.662 74.1875 37.7479 74.1977 37.8381C74.0152 37.9249 73.8348 37.9249 73.6567 37.8381C73.5243 38.0536 73.3445 38.1536 73.1161 38.1378C72.97 38.4029 72.7903 38.6171 72.5751 38.7804C72.3603 38.9001 72.1458 38.9287 71.9331 38.8659C71.7492 38.9385 71.5695 39.0245 71.3921 39.1232C71.2705 38.9821 71.1354 38.868 70.9866 38.7804C71.0278 38.4935 70.5607 38.529 70.5471 38.7804C70.3531 38.865 70.1842 38.8082 70.0402 38.6089C69.9663 38.7675 69.8757 38.9103 69.7699 39.0373C69.3916 38.9864 68.9971 38.915 68.5865 38.8231C68.5528 38.7804 68.5191 38.7376 68.4854 38.6949C68.131 38.8445 67.7701 38.8731 67.4034 38.7804C67.2669 38.9103 67.1202 39.0245 66.9643 39.1232C66.9108 39.0595 66.8662 38.9881 66.8291 38.909C66.6378 38.8907 66.457 38.8766 66.2881 38.8659C66.2374 38.9411 66.2037 39.0266 66.1867 39.1232C66.1618 39.0446 66.1278 38.9732 66.0852 38.909C65.6539 38.8911 65.2253 38.8483 64.8007 38.7804C64.6312 38.9407 64.4848 38.9407 64.3616 38.7804C64.1539 38.7705 63.9398 38.7992 63.7191 38.8659C63.5169 38.7064 63.3028 38.7064 63.0771 38.8659C63.008 38.7645 62.9293 38.6786 62.8405 38.6089C62.6699 38.5602 62.5119 38.6171 62.3672 38.7804C62.1109 38.7727 61.8967 38.6585 61.7248 38.4375C61.6203 38.7688 61.5189 38.7688 61.4208 38.4375C61.2788 38.5221 61.1437 38.4935 61.015 38.352C60.9343 38.3815 60.9343 38.4247 61.015 38.4807C60.5128 38.4503 60.0284 38.4644 59.5616 38.5234C59.4408 38.4602 59.3172 38.4029 59.1899 38.352C59.0162 38.411 58.847 38.4396 58.683 38.4375C58.3343 38.3251 57.985 38.2396 57.6351 38.1806C57.521 38.2742 57.3971 38.3315 57.263 38.352C56.9072 38.3648 56.5467 38.3362 56.1814 38.2665C56.1463 38.3533 56.0901 38.4106 56.0125 38.4375C55.8321 38.3234 55.652 38.3234 55.4715 38.4375C55.3878 38.3918 55.3088 38.3345 55.2349 38.2665C54.8369 38.2417 54.4199 38.2986 53.9845 38.4375C53.8098 38.4264 53.6406 38.3977 53.4772 38.352C53.2328 38.5055 52.9734 38.5055 52.7 38.352C52.5505 38.4037 52.4041 38.461 52.2605 38.5234C52.0647 38.4991 51.8618 38.4991 51.6521 38.5234C51.4659 38.3114 51.2745 38.3114 51.0774 38.5234C51.0134 38.4815 50.946 38.4533 50.8745 38.4375C50.7074 38.5038 50.5385 38.5606 50.3676 38.6089C49.843 38.5735 49.336 38.5448 48.8465 38.5234C48.5142 38.5769 48.1874 38.6628 47.8663 38.7804C47.7006 38.7496 47.5429 38.6923 47.3931 38.6089C47.3591 38.6517 47.3254 38.6949 47.2917 38.7376C46.9063 38.7757 46.5345 38.8757 46.176 39.0373C46.1086 38.9804 46.0409 38.9232 45.9735 38.8659C45.8833 38.9804 45.793 38.9804 45.7028 38.8659C45.6678 38.9531 45.6116 39.0104 45.534 39.0373C45.2688 38.9467 45.0097 38.9467 44.7564 39.0373C44.6396 39.0501 44.6284 39.107 44.7227 39.2087C44.6594 39.2989 44.5804 39.3562 44.4861 39.3802C44.3278 39.3348 44.1701 39.2207 44.0129 39.0373C43.9417 39.2305 43.8403 39.2592 43.7088 39.1232C43.6244 39.1694 43.5454 39.2267 43.4722 39.2942C43.3061 39.1908 43.1372 39.1908 42.965 39.2942C42.8826 39.3596 42.8152 39.4456 42.7624 39.5516C42.7154 39.5063 42.6817 39.4494 42.661 39.3802C42.6398 39.4494 42.6061 39.5063 42.5595 39.5516C42.2351 39.4866 41.9086 39.458 41.579 39.4657C41.2876 39.694 40.9945 39.694 40.7003 39.4657C40.4494 39.564 40.1903 39.6213 39.9228 39.6371C39.7781 39.6273 39.6541 39.5704 39.551 39.4657C39.4066 39.6183 39.2378 39.6751 39.0441 39.6371C39.0356 39.3566 38.9453 39.3425 38.7738 39.5943C38.625 39.6264 38.4786 39.6692 38.3342 39.723C38.0598 39.5948 37.7558 39.5375 37.4215 39.5516V39.8085C37.2591 39.7773 37.1012 39.72 36.9483 39.6371C36.7515 39.6957 36.5823 39.8098 36.4414 39.98C36.2814 39.9329 36.135 39.8474 36.0019 39.723C35.8269 39.7602 35.6689 39.8457 35.5286 39.98C35.3928 39.9073 35.2801 39.9641 35.1906 40.1514C34.9992 39.9671 34.8188 39.9671 34.65 40.1514C34.5233 40.0428 34.3994 40.0428 34.2782 40.1514C34.156 39.9748 34.0092 39.9462 33.8387 40.0655C33.8502 40.1787 33.8274 40.2788 33.7709 40.3656C33.5558 40.4053 33.3641 40.3908 33.1963 40.3224C32.85 40.4823 32.512 40.4823 32.1824 40.3224C32.0704 40.407 31.9577 40.4925 31.8443 40.5798C31.7882 40.5084 31.7317 40.4365 31.6755 40.3656C31.3909 40.3429 31.1093 40.3002 30.8302 40.2369C30.5279 40.3805 30.2238 40.4801 29.9178 40.5366C29.9402 40.5084 29.9627 40.4797 29.9852 40.4511C29.9042 40.3737 29.8476 40.2737 29.8163 40.1514C29.4762 40.2228 29.1382 40.3087 28.8021 40.4083C28.7773 40.2873 28.7211 40.2018 28.6333 40.1514C28.4682 40.2792 28.2877 40.3647 28.0923 40.4083C27.9861 40.186 27.8285 40.1005 27.6191 40.1514V39.894C27.1775 40.0595 26.7605 40.0026 26.3686 39.723C25.985 39.7555 25.602 39.6987 25.2193 39.5516C25.0086 39.5751 24.8057 39.5751 24.6109 39.5516C24.5769 39.4516 24.5207 39.3802 24.4417 39.3374C24.2061 39.2002 23.9583 39.1001 23.6982 39.0373C23.5028 38.6466 23.2325 38.3892 22.8869 38.2665H22.8192C22.733 38.0181 22.733 37.7612 22.8192 37.4953C22.861 37.4859 22.8947 37.4572 22.9206 37.4098C22.9765 37.1199 22.9652 36.8343 22.8869 36.553C22.7807 36.3128 22.6568 36.0845 22.5151 35.8673C22.236 35.7908 22.0331 35.5907 21.9068 35.2679C21.9149 34.6972 21.9149 34.1261 21.9068 33.5541C21.7781 33.3878 21.7216 33.1881 21.7376 32.9547C21.8503 32.8688 21.9405 32.7546 22.0082 32.6118C22.0753 32.6264 22.1202 32.5981 22.1434 32.5263C22.459 32.525 22.7518 32.4395 23.0221 32.269H23.0898C23.991 32.0719 24.8925 31.9577 25.794 31.9265C25.8886 31.8859 25.9788 31.8291 26.0643 31.7551C27.4836 31.6769 28.9032 31.6196 30.3232 31.5837C31.2367 31.5683 32.1382 31.511 33.0274 31.4122C33.0274 31.3554 33.0499 31.3267 33.0951 31.3267C34.0773 31.346 35.0462 31.2887 36.0019 31.1553H36.2048C37.0273 31.1198 37.8386 31.063 38.6386 30.9839C39.2279 31.0074 39.8138 30.9792 40.396 30.8984C41.5909 30.8779 42.7852 30.8351 43.9792 30.7697C44.1065 30.753 44.2188 30.7098 44.3172 30.6414C44.8926 30.6158 45.456 30.5585 46.0072 30.47C46.4583 30.4516 46.909 30.4234 47.3591 30.3845Z" fill="#010409"/>
<path fill-rule="evenodd" clip-rule="evenodd" d="M28.809 17.546C29.6421 17.6255 30.4877 17.6828 31.3453 17.717C31.8121 17.8491 32.2951 17.9064 32.7949 17.8884C33.5851 18.0047 34.3824 18.1334 35.1865 18.274C35.768 18.2997 36.3478 18.3429 36.9259 18.4027C37.6248 18.4698 38.3254 18.4985 39.0274 18.4882C40.2598 18.5027 41.4919 18.4882 42.7236 18.4455C43.7562 18.2727 44.7949 18.2013 45.8397 18.2313C46.7106 18.2219 47.5804 18.2505 48.4489 18.3168C49.4747 18.3484 50.5137 18.3484 51.5653 18.3168C51.695 18.3052 51.8159 18.3339 51.9276 18.4027C52.5424 18.4878 53.1705 18.516 53.8119 18.4882C54.6443 18.5737 55.49 18.6019 56.3482 18.5741C56.5457 18.6135 56.7387 18.6708 56.928 18.7451H57.0005C57.2429 18.8922 57.5088 18.9495 57.7978 18.9166H61.2765C61.267 18.9798 64.1727 19.1803 64.6827 19.2167C64.9843 19.4027 65.3104 19.5027 65.6611 19.5164C66.009 19.4492 66.3593 19.4206 66.712 19.4309C67.5322 19.4852 68.354 19.5138 69.1758 19.5164H70.9877C71.7234 19.6198 72.472 19.6767 73.2343 19.6878H73.3068C74.0187 19.8101 74.7431 19.9101 75.4809 19.9875C75.9616 20.108 76.4202 20.2936 76.858 20.5445C76.9826 20.6916 77.1276 20.8057 77.2927 20.887C77.419 21.1221 77.5879 21.2935 77.8 21.4013C77.832 21.5393 77.9045 21.6394 78.0175 21.7009C78.185 21.7437 78.3539 21.7578 78.5248 21.7437C78.8799 21.8399 79.2183 21.9827 79.5393 22.1721C79.5437 22.2674 79.5676 22.3529 79.6118 22.4294V22.9433C79.5155 23.0574 79.4185 23.172 79.3221 23.2861C79.1328 23.2951 78.9878 23.3952 78.8874 23.5858C78.4227 23.6465 78.0363 23.8607 77.7278 24.2284C77.6066 24.2857 77.4864 24.3425 77.3652 24.3998C77.3036 24.3032 77.2311 24.3032 77.148 24.3998C77.0347 24.3981 76.9261 24.3695 76.8219 24.3143C76.4971 24.499 76.171 24.6704 75.8434 24.8282C75.76 24.8008 75.6998 24.744 75.6623 24.6567C75.5149 24.8914 75.3338 24.9483 75.1186 24.8282C75.0209 25.0197 74.8759 25.1343 74.6839 25.171C74.5171 25.0736 74.3598 24.9594 74.2127 24.8282C73.7902 25.2078 73.3432 25.4652 72.8721 25.5994C72.822 25.5541 72.7859 25.4972 72.7634 25.428C72.6903 25.4998 72.6055 25.528 72.5098 25.5135C72.533 25.3232 72.485 25.1659 72.3648 25.0424C72.4142 24.7726 72.3294 24.5584 72.1112 24.3998C72.1112 24.6016 72.1472 24.8017 72.2198 24.9996C72.1163 25.1467 72.0553 25.3181 72.0386 25.5135C71.7734 25.5605 71.5559 25.7033 71.3864 25.9418C71.2335 25.8798 71.0885 25.7943 70.9516 25.6849C70.8406 25.7871 70.732 25.7871 70.6255 25.6849C70.4913 25.7486 70.4426 25.8341 70.4804 25.9418C70.3841 25.885 70.2871 25.8277 70.1907 25.7704C69.9442 25.8486 69.7151 25.8486 69.502 25.7704C69.4536 25.7135 69.4056 25.6563 69.357 25.5994C69.3035 25.6969 69.2433 25.6969 69.1758 25.5994C69.1238 25.7691 69.0397 25.9119 68.9222 26.0278C68.7796 25.9299 68.6461 25.8157 68.5236 25.6849C68.4592 25.7554 68.4354 25.8414 68.4514 25.9418C68.352 25.9555 68.2549 25.941 68.1613 25.8991C68.3673 25.5712 68.2948 25.357 67.9438 25.2565C67.7004 25.2826 67.5315 25.3685 67.4365 25.5135C67.3684 25.5045 67.3075 25.4759 67.2554 25.428C67.2026 25.5699 67.1185 25.6127 67.0018 25.5562C67.0705 25.4951 67.0828 25.4237 67.0379 25.342C66.9606 25.4015 66.8765 25.4442 66.7842 25.4707C66.8509 25.646 66.8149 25.8033 66.6756 25.9418C66.4567 25.7435 66.2276 25.7435 65.9872 25.9418C65.8599 25.888 65.751 25.8025 65.6611 25.6849C65.6076 25.7768 65.5351 25.8341 65.4435 25.8563C65.2808 25.7315 65.0994 25.6601 64.9002 25.6422C64.8396 25.5708 64.7793 25.4994 64.7187 25.428C64.3609 25.6601 63.9864 25.717 63.5956 25.5994C63.6079 25.7127 63.5837 25.8123 63.5231 25.8991C63.3192 26.0402 63.1377 26.0261 62.9794 25.8563C62.7571 25.8465 62.5276 25.8751 62.291 25.9418C62.1681 25.8679 62.0837 25.7537 62.0374 25.5994C61.8423 25.6426 61.7334 25.7426 61.7113 25.8991C61.5713 25.9205 61.4382 25.9636 61.3126 26.0278C61.2643 25.9705 61.2163 25.9132 61.1679 25.8563C61.0471 25.9705 60.9262 25.9705 60.8053 25.8563C60.6875 26.1193 60.5306 26.1624 60.3345 25.9846C60.3825 25.9277 60.4308 25.8704 60.4792 25.8136C60.3607 25.7713 60.2402 25.7567 60.117 25.7704V26.0278C59.9937 26.0167 59.8851 25.9598 59.7908 25.8563C59.5644 26.0803 59.3108 26.2518 59.0299 26.3702C58.8941 26.2616 58.7613 26.2616 58.6313 26.3702C58.5383 26.2783 58.5141 26.1641 58.5587 26.0278C58.3415 25.7909 58.0879 25.7195 57.7978 25.8136C57.5728 26.2278 57.3192 26.271 57.037 25.9418C56.8902 26.0697 56.7697 26.041 56.6744 25.8563C56.4688 25.9286 56.336 26.0855 56.2757 26.3275C56.1447 26.3236 56.0238 26.3377 55.9135 26.3702C55.8427 26.3296 55.7824 26.2723 55.7324 26.1988C55.681 26.3253 55.5965 26.3822 55.4787 26.3702V26.0278C55.6081 26.0521 55.729 26.0235 55.841 25.9418C55.7685 25.9132 55.6959 25.885 55.6238 25.8563C55.4794 25.9132 55.3466 25.9132 55.2251 25.8563C55.1768 25.9705 55.1284 26.0846 55.0801 26.1988C54.9381 26.1312 54.8292 26.0171 54.7539 25.8563C54.66 25.9068 54.5994 25.9923 54.5728 26.1133C54.3369 26.1047 54.0952 26.0761 53.848 26.0278C53.8238 26.0846 53.7997 26.1419 53.7755 26.1988C53.689 26.1193 53.5923 26.062 53.4858 26.0278C53.3649 26.1419 53.2441 26.1419 53.1232 26.0278C52.9319 26.062 52.763 26.1479 52.6159 26.2847C52.586 26.2454 52.5499 26.2167 52.5073 26.1988C52.4832 26.3133 52.459 26.4275 52.4348 26.5416C52.3865 26.4843 52.3381 26.4275 52.2898 26.3702C52.1723 26.5365 52.0396 26.5651 51.8915 26.4561C51.8431 26.513 51.7948 26.5703 51.7464 26.6271C51.6239 26.4283 51.4908 26.3856 51.3478 26.4989C51.4353 26.5861 51.4111 26.6288 51.2753 26.6271C51.057 26.3907 50.9001 26.4476 50.8041 26.7986C50.7064 26.3531 50.6216 26.3531 50.5505 26.7986C50.4528 26.6156 50.3319 26.5869 50.1882 26.7131C50.2022 26.6113 50.1661 26.4967 50.0796 26.3702C50.0432 26.4561 50.0071 26.5416 49.9707 26.6271C49.7674 26.6921 49.5741 26.7776 49.3909 26.8845C49.2568 26.8353 49.1237 26.8067 48.9926 26.7986C48.9388 26.8905 48.8663 26.9478 48.775 26.97C48.6641 26.8678 48.5551 26.8678 48.4489 26.97C48.2433 26.7007 48.0257 26.6725 47.7966 26.8845C47.6877 26.837 47.5668 26.837 47.4344 26.8845C47.4102 26.3133 47.386 26.3133 47.3619 26.8845C47.1093 26.7772 46.8437 26.7058 46.5645 26.6703C46.5056 26.5087 46.409 26.4514 46.2748 26.4989C46.3712 26.5562 46.3712 26.613 46.2748 26.6703C46.154 26.6844 46.0331 26.6985 45.9122 26.7131C45.5977 26.6553 45.2838 26.5985 44.9702 26.5416V26.7986C44.7292 26.7143 44.512 26.743 44.3179 26.8845C44.1409 26.7562 43.9475 26.6707 43.7382 26.6271C43.6878 26.7887 43.6153 26.8174 43.5206 26.7131C43.4668 26.9054 43.3701 27.0623 43.2309 27.1842C43.0229 27.2111 42.8173 27.2539 42.6147 27.3129C42.2729 27.1055 41.9345 27.1055 41.6002 27.3129C41.4487 27.306 41.2917 27.2774 41.1293 27.2269C40.8771 27.4574 40.6714 27.4001 40.5131 27.0555C40.4396 27.153 40.3913 27.1243 40.3681 26.97C40.3334 27.0512 40.3211 27.1367 40.332 27.2269C39.9252 27.2038 39.5269 27.2038 39.136 27.2269C38.974 27.1795 38.8293 27.0935 38.7013 26.97C38.6349 27.041 38.5869 27.1265 38.5563 27.2269C38.5028 27.1295 38.4422 27.1295 38.3751 27.2269C38.239 27.129 38.1062 27.0435 37.9765 26.97C37.9496 27.0487 37.9132 27.1201 37.8679 27.1842C37.5782 27.1996 37.3004 27.185 37.0345 27.1414C36.8663 27.1979 36.7093 27.2834 36.5633 27.3984C36.3927 27.3475 36.2358 27.2616 36.0925 27.1414C35.8664 27.1444 35.6369 27.1731 35.4037 27.2269C35.3554 27.1128 35.3074 26.9986 35.2591 26.8845C35.0786 26.9294 34.9094 27.0008 34.7518 27.0987C34.7998 27.1269 34.8481 27.1555 34.8965 27.1842C34.8161 27.2389 34.7317 27.2817 34.6429 27.3129C34.4005 27.1709 34.171 26.9995 33.9545 26.7986C33.7233 26.9952 33.4816 27.0807 33.2297 27.0555C33.278 26.9986 33.3264 26.9414 33.3747 26.8845C33.2794 26.7289 33.1708 26.5861 33.0485 26.4561C32.9988 26.566 33.0111 26.666 33.0846 26.7558C32.9764 26.7994 32.8916 26.7562 32.831 26.6271C32.718 26.7746 32.6577 26.9456 32.6499 27.1414C32.5042 27.1855 32.3591 27.1996 32.2151 27.1842C32.1198 27.0649 32.144 26.979 32.2877 26.9272C32.191 26.8986 32.0943 26.87 31.9976 26.8413C32.1494 26.7939 32.1617 26.7511 32.034 26.7131C31.7576 26.8392 31.4794 26.8678 31.2006 26.7986C30.9334 26.8623 30.885 26.9905 31.0556 27.1842C30.8813 27.2509 30.7604 27.1795 30.693 26.97C30.5327 27.0619 30.3635 27.1192 30.1858 27.1414C30.0169 27.0273 29.8477 27.0273 29.6785 27.1414C29.527 27.1427 29.3939 27.0854 29.2798 26.97C29.2301 27.0435 29.1695 27.1004 29.0987 27.1414C28.8696 27.0713 28.6643 26.9572 28.4828 26.7986C28.4382 26.9371 28.3657 27.0512 28.2653 27.1414C28.169 27.0564 28.0723 26.9704 27.9756 26.8845C27.8248 26.9717 27.7039 26.9144 27.613 26.7131C27.3621 26.9337 27.1085 26.9337 26.8521 26.7131C26.6996 26.784 26.5546 26.8127 26.4174 26.7986C26.2267 26.5942 26.0817 26.6515 25.9826 26.97C25.8468 26.8469 25.7018 26.7473 25.5475 26.6703C25.4464 26.619 25.3497 26.6335 25.2578 26.7131C25.1176 26.5361 24.9606 26.5361 24.7866 26.7131C24.6954 26.6908 24.6229 26.6335 24.5694 26.5416C24.455 26.6571 24.3223 26.7143 24.1708 26.7131C23.6972 26.5733 23.2383 26.4164 22.7937 26.2419C22.602 26.1992 22.4086 26.1851 22.2139 26.1988C22.202 25.9119 22.2142 25.6263 22.2503 25.342C22.3225 25.2565 22.395 25.171 22.4675 25.0851C22.5264 24.6978 22.5145 24.3267 22.4314 23.9714C22.3348 23.9142 22.3348 23.8573 22.4314 23.8C22.5223 23.051 22.3409 22.3944 21.8878 21.8296C21.644 21.2251 21.5596 20.5971 21.6341 19.9447H21.0543C21.0465 19.7489 20.9863 19.5779 20.8732 19.4309C20.8491 19.4591 20.8249 19.4877 20.8007 19.5164C20.7493 19.3903 20.6649 19.333 20.5471 19.3449C20.5583 19.2274 20.5464 19.1132 20.511 19.0025C20.4627 19.1166 20.4143 19.1166 20.366 19.0025C20.3176 18.8311 20.3176 18.6596 20.366 18.4882C20.4671 18.3758 20.5396 18.4044 20.5832 18.5741C20.7755 18.3959 20.9808 18.2531 21.1994 18.1458H21.3444C21.6593 18.1599 21.9732 18.1453 22.2864 18.1026C22.3266 18.0701 22.3508 18.0269 22.3589 17.9743H22.4314C22.8761 18.0017 23.3108 17.9448 23.7357 17.8029C24.1956 17.817 24.6545 17.8029 25.1128 17.7602C25.2493 17.7431 25.3698 17.7003 25.475 17.6315H25.8376C26.8283 17.6195 27.819 17.5909 28.809 17.546Z" fill="#010409"/>
</svg>
