<?xml version="1.0" encoding="UTF-8" standalone="no"?>
<!DOCTYPE svg PUBLIC "-//W3C//DTD SVG 1.1//EN" "http://www.w3.org/Graphics/SVG/1.1/DTD/svg11.dtd">
<svg width="100%" height="100%" viewBox="0 0 100 100" version="1.1" xmlns="http://www.w3.org/2000/svg" xmlns:xlink="http://www.w3.org/1999/xlink" xml:space="preserve" xmlns:serif="http://www.serif.com/" style="fill-rule:evenodd;clip-rule:evenodd;">
    <circle cx="50" cy="50" r="43.636" style="fill:url(#_Radial1);stroke:rgb(255,215,0);stroke-width:5.45px;"/>
    <circle cx="50" cy="50" r="41.818" style="fill:none;"/>
    <path d="M45.946,37.737L28.105,37.737L28.105,43L45.946,43L45.946,37.737ZM54.367,37.737L54.367,43L72.105,43L72.105,37.737L54.367,37.737Z" style="fill:rgb(255,215,0);"/>
    <g transform="matrix(1,0,0,1,-0.210526,9.47368)">
        <path d="M45.946,37.737L28.105,37.737L28.105,43L45.946,43L45.946,37.737ZM54.367,37.737L54.367,43L72.105,43L72.105,37.737L54.367,37.737Z" style="fill:rgb(255,215,0);"/>
    </g>
    <g transform="matrix(1,0,0,1,0.210526,20.421)">
        <path d="M45.946,37.737L28.105,37.737L28.105,43L45.946,43L45.946,37.737ZM54.367,37.737L54.367,43L72.105,43L72.105,37.737L54.367,37.737Z" style="fill:rgb(255,215,0);"/>
    </g>
    <defs>
        <radialGradient id="_Radial1" cx="0" cy="0" r="1" gradientUnits="userSpaceOnUse" gradientTransform="matrix(43.6364,0,0,43.6364,50,50)"><stop offset="0" style="stop-color:rgb(255,215,0);stop-opacity:1"/><stop offset="1" style="stop-color:rgb(218,165,32);stop-opacity:1"/></radialGradient>
    </defs>
</svg>
