<svg width="241" height="232" viewBox="0 0 241 232" fill="none" xmlns="http://www.w3.org/2000/svg">
<path d="M120.217 230.274C186.134 230.274 239.57 178.852 239.57 115.42C239.57 51.9879 186.134 0.565994 120.217 0.565994C54.3002 0.565994 0.864014 51.9879 0.864014 115.42C0.864014 178.852 54.3002 230.274 120.217 230.274Z" fill="#986334"/>
<path fill-rule="evenodd" clip-rule="evenodd" d="M172.538 187.162C172.239 187.13 171.945 187.164 171.658 187.262C171.489 187.555 171.255 187.723 170.954 187.763C169.609 187.782 168.26 187.647 166.905 187.363C165.227 187.264 163.584 187.465 161.976 187.964C153.578 187.411 145.187 187.479 136.802 188.164C135.978 188.13 135.157 188.164 134.338 188.265C134.12 188.311 133.944 188.411 133.81 188.565C132.756 188.513 131.759 188.313 130.817 187.964C130.001 187.96 129.21 188.094 128.441 188.365C127.912 188.299 127.385 188.23 126.856 188.164C126.506 188.178 126.242 188.313 126.064 188.565C125.432 188.826 124.846 189.158 124.303 189.567C123.405 189.786 122.525 189.986 121.663 190.168H121.487C119.901 190.134 118.317 190.168 116.734 190.269C116.573 190.325 116.455 190.425 116.382 190.569C112.361 190.625 108.371 190.76 104.411 190.97C103.465 190.948 102.527 191.016 101.594 191.17C99.4192 191.152 97.2484 191.253 95.0809 191.471C94.7022 191.491 94.4086 191.657 94.2011 191.972C93.317 191.972 92.4371 191.904 91.5606 191.772C90.8973 191.752 90.3102 191.952 89.8 192.373C84.8928 193.042 79.9633 193.277 75.0122 193.074C74.4789 192.671 73.8925 192.437 73.2525 192.373C73.0672 192.02 72.7737 191.888 72.3718 191.972C71.5258 191.774 70.6459 191.707 69.7313 191.772C68.5305 191.802 67.3571 191.633 66.2101 191.271C66.8336 191.204 67.0387 190.838 66.827 190.168C66.5053 190.048 66.1828 189.914 65.8586 189.768C64.4553 189.567 63.0469 189.501 61.6337 189.567C61.4211 189.421 61.1863 189.353 60.9291 189.367C60.8042 189.186 60.6281 189.118 60.4015 189.166C60.1815 187.569 59.3595 186.701 57.9363 186.561H57.5849C57.565 186.437 57.5063 186.337 57.4087 186.26C56.5652 186.216 55.7432 186.05 54.9436 185.759C54.6111 185.066 54.5226 184.331 54.6798 183.555C55.061 183.226 55.3248 182.826 55.472 182.353C57.5708 181.126 59.7713 180.124 62.0736 179.347C62.1323 179.413 62.191 179.481 62.2498 179.547C63.682 178.563 65.2376 177.996 66.9146 177.844C67.1917 177.527 67.5142 177.294 67.883 177.142C70.0885 176.627 72.318 176.16 74.5723 175.739C74.7633 175.898 74.9684 176.032 75.1884 176.14C75.6474 175.533 76.2047 175.399 76.8605 175.739C77.2996 175.673 77.6808 175.473 78.005 175.138C78.4383 175.12 78.8791 175.12 79.3257 175.138C79.6482 174.866 79.9707 174.799 80.294 174.938C82.1067 174.31 83.9558 173.841 85.8388 173.535C87.0065 173.671 88.1212 173.737 89.1839 173.735C89.513 173.621 89.8355 173.489 90.1523 173.334C90.5732 173.477 90.9544 173.342 91.2959 172.934C91.3547 173.068 91.4134 173.2 91.4721 173.334C91.6681 173.092 91.8732 173.092 92.0882 173.334C92.495 172.922 92.935 172.787 93.4088 172.934C93.7024 172.799 93.9951 172.667 94.2887 172.533C94.4558 172.637 94.603 172.771 94.7287 172.934C95.0123 172.723 95.3059 172.723 95.6094 172.934C95.9542 172.859 96.2767 172.725 96.5769 172.533C96.7051 172.645 96.8515 172.711 97.0177 172.733C98.7014 172.002 100.402 171.934 102.123 172.533C102.768 172.619 103.442 172.487 104.147 172.132C104.742 172.304 105.387 172.236 106.084 171.932C106.772 172.216 107.534 172.35 108.372 172.332C109.629 172.192 110.921 172.192 112.245 172.332C112.918 172.294 113.534 172.094 114.094 171.731C114.467 171.697 114.819 171.763 115.15 171.932C115.539 172.088 115.979 172.088 116.469 171.932C116.763 172.066 117.057 172.198 117.35 172.332C118.119 172.09 118.883 171.823 119.638 171.531C120.034 171.603 120.474 171.735 120.959 171.932C123.301 171.867 125.649 171.801 128.001 171.731C128.401 171.825 128.753 172.026 129.057 172.332C129.736 172.182 130.381 172.316 130.993 172.733C131.498 172.591 131.938 172.322 132.313 171.932C133.786 171.966 135.253 172.166 136.714 172.533C137.104 172.116 137.574 171.849 138.123 171.731C138.748 171.876 139.394 171.942 140.059 171.932C140.411 171.797 140.763 171.665 141.115 171.531C141.17 171.693 141.258 171.825 141.379 171.932C141.849 171.807 142.289 171.607 142.7 171.33C143.108 171.308 143.547 171.375 144.02 171.531C144.883 171.098 145.734 171.098 146.573 171.531C147.248 171.477 147.923 171.411 148.597 171.33C148.808 171.401 148.808 171.501 148.597 171.631C148.743 171.665 148.89 171.697 149.037 171.731C149.635 171.499 150.221 171.499 150.797 171.731C150.919 171.559 151.065 171.427 151.237 171.33C152.264 171.461 153.263 171.529 154.23 171.531C154.562 171.487 154.855 171.354 155.111 171.13C155.99 171.579 156.9 171.647 157.839 171.33C158.178 171.825 158.501 171.825 158.807 171.33C159.26 171.557 159.729 171.725 160.216 171.831C160.451 171.966 160.451 172.098 160.216 172.232C160.493 172.32 161.239 172.505 161.36 172.332C161.389 172.433 161.752 172.695 161.976 172.433C161.895 172.35 161.837 172.25 161.8 172.132C162.41 172.006 162.996 171.805 163.561 171.531C163.733 171.627 163.879 171.759 164.001 171.932C164.472 171.689 164.971 171.555 165.497 171.531C166.351 171.603 167.231 171.603 168.137 171.531C168.123 172.086 168.736 172.437 169.545 172.332V171.731C169.834 171.689 170.099 171.755 170.338 171.932C170.479 171.671 170.685 171.537 170.954 171.531C171.727 171.649 172.489 171.815 173.243 172.032C173.033 172.236 172.857 172.471 172.714 172.733C172.936 172.629 174.556 172.272 174.827 171.932C174.936 172.427 175.084 172.894 175.267 173.334C175.429 173.082 175.577 172.815 175.707 172.533C176.397 173.15 177.434 173.589 177.203 173.334C177.064 173.755 176.8 174.024 176.411 174.136C176.529 174.27 176.646 174.403 176.763 174.537C176.566 175.194 176.242 175.729 175.795 176.14C175.55 175.916 176.587 177.008 176.763 177.343C176.881 177.208 176.997 177.076 177.115 176.942C177.186 177.369 177.186 177.769 177.115 178.144C177.409 177.878 177.702 177.878 177.995 178.144C178.337 177.797 178.659 177.465 178.964 177.142C179.052 177.443 179.14 177.743 179.228 178.044C179.029 178.108 178.853 178.274 178.7 178.545C178.817 178.946 178.934 179.347 179.052 179.747C178.851 180.655 178.967 180.721 179.404 179.948C179.878 180.491 179.82 180.858 179.228 181.05C179.608 181.07 179.96 181.236 180.284 181.551C179.559 182.066 179.589 182.2 180.372 181.952C180.578 182.054 180.724 182.22 180.812 182.453C180.413 182.547 180.06 182.747 179.756 183.054C179.982 183.19 180.188 183.158 180.372 182.954C180.58 183.753 180.316 184.088 179.58 183.956C179.566 184.511 179.654 185.046 179.844 185.559C179.902 185.493 179.962 185.425 180.02 185.359C180.313 185.892 180.604 185.892 180.9 185.359C181.222 185.461 181.25 185.627 180.988 185.86C179.068 186.24 177.131 186.441 175.179 186.461C174.269 186.641 173.388 186.876 172.538 187.162Z" fill="#654527"/>
<path fill-rule="evenodd" clip-rule="evenodd" d="M182.1 125.457C182.269 125.548 182.416 125.681 182.54 125.858C183.315 125.664 184.107 125.597 184.917 125.658C185.834 126.212 186.714 126.813 187.558 127.461C187.483 127.978 188.659 128.982 188.79 127.962C189.024 127.829 189.259 127.829 189.493 127.962C189.682 128.282 189.858 128.582 190.022 128.864C190.189 128.698 190.365 128.665 190.55 128.764C190.432 129.031 190.256 129.231 190.022 129.365C190.103 129.448 190.161 129.548 190.198 129.666C189.964 129.866 189.728 130.066 189.493 130.267C189.552 130.401 189.612 130.534 189.67 130.668C189.379 131.263 189.027 131.798 188.614 132.271C188.633 132.591 188.691 132.925 188.79 133.273C188.557 133.851 188.381 134.452 188.261 135.077C187.932 134.191 187.462 134.157 186.853 134.976C187.195 135.158 187.371 135.459 187.381 135.878C186.818 135.796 186.29 135.796 185.797 135.878C186.015 136.346 186.31 136.479 186.677 136.279C187.316 136.752 187.374 137.32 186.853 137.982C187.021 138.106 187.166 138.073 187.294 137.882C187.455 137.992 187.603 138.125 187.734 138.283C187.645 138.527 187.587 138.761 187.558 138.984C187.295 139.259 187.031 139.292 186.765 139.085C186.522 139.326 186.318 139.593 186.149 139.886H184.741C184.713 139.611 183.322 140.636 182.012 140.087C181.494 140.532 180.937 140.598 180.34 140.287C180.086 140.331 179.852 140.431 179.635 140.588C178.048 140.779 176.523 140.88 175.059 140.888C174.54 140.232 173.981 140.165 173.386 140.688C173.091 140.575 172.857 140.375 172.682 140.087C172.492 140.465 172.2 140.666 171.801 140.688C171.209 140.484 170.65 140.351 170.129 140.287C169.265 140.58 168.385 140.781 167.489 140.888V139.285C167.06 139.209 166.941 139.342 167.137 139.686C167.043 140.033 166.868 140.3 166.609 140.487C163.183 140.588 159.721 140.454 156.222 140.087C155.328 139.763 154.418 139.696 153.493 139.886C152.246 139.529 150.984 139.262 149.709 139.085C149.344 139.338 148.991 139.304 148.652 138.984C145.431 138.875 142.262 138.508 139.146 137.882C138.965 137.732 138.759 137.599 138.53 137.481C138.472 137.548 138.413 137.615 138.354 137.682C137.448 137.506 136.539 137.306 135.626 137.081C135.38 137.105 135.146 137.172 134.921 137.281C134.472 137.03 134.002 136.863 133.513 136.78C133.727 136.601 133.727 136.434 133.513 136.279C133.41 136.321 133.322 136.388 133.249 136.479C132.944 136.329 132.621 136.229 132.281 136.179C131.377 135.049 130.32 133.946 129.112 132.872C128.778 132.585 128.719 132.25 128.936 131.87C128.604 131.689 128.281 131.488 127.968 131.269C127.882 131.01 127.853 130.742 127.88 130.467C128.455 130.339 129.012 130.339 129.552 130.467C129.844 129.934 130.138 129.934 130.433 130.467C130.708 130.196 131.031 130.062 131.401 130.066C131.472 129.251 131.825 128.65 132.457 128.263C133.533 127.823 134.589 127.322 135.626 126.76C136.838 126.416 138.07 126.215 139.323 126.159C139.41 126.058 139.499 125.958 139.586 125.858C139.873 125.791 140.137 125.924 140.379 126.259C141 126.156 141.558 126.29 142.052 126.66C142.344 126.526 142.638 126.392 142.931 126.259C143.919 126.925 144.887 126.992 145.836 126.459C146.525 126.495 147.259 126.561 148.036 126.66C148.212 126.526 148.389 126.392 148.565 126.259C149.496 126.579 150.376 126.445 151.205 125.858C152.006 126.378 152.798 126.378 153.582 125.858C154.041 126.129 154.539 126.263 155.078 126.259C157.013 126.294 158.949 126.228 160.887 126.058C160.953 126.341 161.099 126.541 161.327 126.66C162.009 126.132 162.683 126.132 163.352 126.66C163.498 126.493 163.646 126.326 163.792 126.159C164.789 126.154 165.756 125.987 166.697 125.658C166.982 125.703 167.188 125.87 167.313 126.159C167.11 126.924 168.524 125.315 170.482 125.658C170.702 126.053 170.965 126.12 171.274 125.858C171.567 126.192 171.86 126.526 172.154 126.86C172.564 126.259 173.092 125.858 173.738 125.658C175.395 125.421 177.068 125.421 178.755 125.658C179.201 125.173 179.523 125.306 179.724 126.058C179.789 125.875 179.877 125.708 179.988 125.557C180.709 125.628 181.413 125.594 182.1 125.457Z" fill="#654527"/>
<path fill-rule="evenodd" clip-rule="evenodd" d="M112.917 137.481C111.848 138.124 110.792 138.825 109.748 139.586C109.278 139.652 108.809 139.719 108.34 139.786C107.124 140.413 105.892 140.914 104.643 141.289H86.1589C80.2941 141.593 74.4268 141.727 68.5546 141.69H68.3784C66.125 141.374 63.8368 141.24 61.513 141.289C60.1187 141.067 58.7104 140.8 57.2881 140.487C56.7075 140.09 56.0617 139.89 55.3513 139.886C55.0503 139.638 54.698 139.504 54.2953 139.485C53.4758 139.018 52.6538 138.551 51.8309 138.083C51.3199 137.652 50.7327 137.352 50.0703 137.181C49.8098 136.67 49.9273 136.302 50.4226 136.079C50.4698 135.134 50.8808 134.499 51.6548 134.175C51.7871 134.04 51.8458 133.873 51.8309 133.674C52.1328 133.648 52.4263 133.581 52.7108 133.473C53.3087 133.261 53.9248 133.06 54.5599 132.872C55.4762 131.777 56.6207 131.276 57.9926 131.369C59.8458 130.553 61.6949 129.919 63.5374 129.465C64.0559 129.513 64.6133 129.579 65.2095 129.666C66.2515 129.18 67.3083 128.913 68.3784 128.864C68.7092 128.949 68.9738 129.15 69.1707 129.465C69.5949 129.049 70.0646 128.715 70.579 128.463C72.1386 128.715 73.6933 128.515 75.2439 127.862C75.7557 127.964 76.2544 128.098 76.7407 128.263C76.8705 128.048 77.0466 127.914 77.2683 127.862C78.1523 127.928 78.9743 127.995 79.7334 128.062C80.0717 127.567 80.395 127.567 80.701 128.062C80.6977 127.662 80.9317 127.395 81.4055 127.261C81.7421 127.258 82.0944 127.325 82.4616 127.461C83.2199 127.298 83.9824 127.165 84.7506 127.06C84.6977 127.61 84.9028 127.944 85.3667 128.062C86.1325 127.928 86.1614 127.694 85.4544 127.361C85.5428 127.328 85.6305 127.294 85.7182 127.261C86.2598 127.312 86.8172 127.346 87.3911 127.361C87.7864 128.002 88.1974 128.002 88.6233 127.361C88.9756 127.294 89.327 127.227 89.6793 127.161C91.822 127.115 93.9927 127.048 96.1933 126.96C96.6622 126.893 97.1319 126.827 97.6016 126.76C97.6892 126.66 97.7769 126.559 97.8654 126.459C99.1695 126.558 100.46 126.759 101.738 127.06C102.013 126.891 102.189 127.025 102.266 127.461C102.686 127.211 103.037 126.877 103.323 126.459C103.44 126.593 103.557 126.726 103.675 126.86C103.92 126.674 104.184 126.674 104.467 126.86C105.043 126.601 105.601 126.468 106.139 126.459C106.403 126.559 106.668 126.66 106.931 126.76C107.654 128.072 108.71 128.673 110.1 128.563C110.809 128.839 111.542 129.206 112.301 129.666C112.025 131.046 111.762 132.449 111.509 133.874C111.601 134.492 111.748 135.093 111.949 135.678C112.059 136.172 112.324 136.506 112.741 136.68C112.905 136.918 112.962 137.185 112.917 137.481Z" fill="#654527"/>
<path fill-rule="evenodd" clip-rule="evenodd" d="M160.132 149.377C160.25 149.443 160.367 149.51 160.485 149.577C161.171 149.792 161.551 150.326 161.629 151.18C161.775 151.013 161.923 150.846 162.069 150.679C161.706 150.442 161.676 150.208 161.981 149.978C162.196 150.156 162.43 150.289 162.685 150.379C163.234 150.196 163.792 149.995 164.357 149.777C164.762 150.069 165.145 150.269 165.502 150.379C166.215 150.143 166.743 150.41 167.086 151.18C167.357 150.915 170.663 151.217 170.959 150.98C172.017 150.948 173.102 150.981 174.215 151.08C174.74 151.519 176.104 152.363 175.976 152.082C176.447 151.513 177.035 151.212 177.737 151.18C179.268 151.648 180.792 152.116 182.313 152.583C182.291 152.731 182.321 152.866 182.402 152.984C182.706 152.767 183.028 152.735 183.37 152.884C184.702 154.012 186.17 154.481 187.771 154.286C188.177 154.505 188.414 154.872 188.475 155.389C188.704 155.978 189.055 156.445 189.531 156.792C189.413 156.858 189.297 156.926 189.179 156.992C189.464 157.617 189.346 158.118 188.827 158.495C188.86 158.826 188.89 159.192 188.915 159.597C189.103 159.24 189.367 159.14 189.707 159.297C189.448 159.439 189.331 159.673 189.355 159.998C189.996 159.846 190.26 160.112 190.147 160.8C190.02 160.609 189.874 160.575 189.707 160.699C189.939 160.864 190.058 161.096 190.059 161.401C189.774 161.914 189.364 162.246 188.827 162.403C187.998 162.627 187.177 162.896 186.363 163.204C183.716 163.353 181.076 163.553 178.44 163.806C178.337 163.764 178.249 163.697 178.177 163.605C177.143 163.713 176.145 163.98 175.184 164.407C174.524 164.241 173.938 163.906 173.423 163.405C173.379 163.629 173.292 163.83 173.159 164.006C172.996 163.778 172.849 163.778 172.719 164.006C172.661 163.872 172.601 163.74 172.543 163.605C171.77 163.742 171.009 163.942 170.254 164.206C169.858 164.018 169.448 163.884 169.022 163.806C167.114 164.096 165.206 164.164 163.301 164.006C161.132 164.337 158.932 164.405 156.7 164.206C154.757 164.184 152.85 164.319 150.979 164.607C150.807 164.705 150.631 164.806 150.45 164.908C147.838 164.942 145.256 165.042 142.704 165.208C142.478 165.16 142.301 165.229 142.176 165.409C140.442 165.343 138.741 165.411 137.071 165.609C134.769 165.689 132.481 165.557 130.205 165.208C129.686 165.056 129.216 164.788 128.797 164.407C128.72 164.092 128.544 163.858 128.269 163.705C127.513 163.507 126.838 163.14 126.245 162.603C126.138 162.088 126.225 161.621 126.509 161.2C126.648 161.144 126.765 161.044 126.861 160.9C126.535 160.048 126.417 159.18 126.509 158.295C125.838 156.735 125.193 155.164 124.572 153.585C124.921 153.126 125.126 152.591 125.188 151.982C125.832 151.204 126.624 150.737 127.565 150.579C127.883 150.851 128.147 150.784 128.357 150.379C128.794 151.054 129.234 151.088 129.678 150.479C130.746 150.242 131.802 149.942 132.846 149.577C133.364 149.896 133.834 149.83 134.254 149.377C134.482 149.772 134.774 149.772 135.135 149.377C135.319 149.554 135.524 149.687 135.751 149.777C136.47 149.769 137.203 149.735 137.952 149.677C137.715 150.043 137.804 150.277 138.215 150.379C138.586 150.123 138.938 149.923 139.271 149.777C139.448 149.911 139.624 150.045 139.8 150.178C140.015 150 140.249 149.867 140.504 149.777C141.36 149.662 142.211 149.528 143.056 149.377C143.34 149.541 143.457 149.808 143.409 150.178C143.741 150.219 144.006 150.085 144.201 149.777C144.553 149.911 144.905 150.045 145.257 150.178C145.499 149.835 145.793 149.568 146.137 149.377C146.246 149.567 146.216 149.734 146.049 149.878C146.523 149.777 146.993 149.81 147.457 149.978C148.279 149.889 149.072 149.688 149.834 149.377C150.559 149.37 151.262 149.437 151.946 149.577C152.372 149.406 152.812 149.273 153.267 149.176C153.531 149.381 153.795 149.582 154.059 149.777C154.799 149.383 155.503 149.517 156.171 150.178C156.23 149.978 156.289 149.777 156.347 149.577C156.928 149.745 157.515 149.946 158.108 150.178C158.382 150.072 158.646 149.939 158.9 149.777C159.447 150.107 159.857 149.973 160.132 149.377Z" fill="#654527"/>
<path fill-rule="evenodd" clip-rule="evenodd" d="M100.983 150.779C101.234 150.795 101.469 150.729 101.687 150.579C102.249 150.853 102.836 151.02 103.447 151.08C103.712 151.247 103.917 151.481 104.063 151.781C104.152 151.681 104.24 151.581 104.328 151.481C105.311 151.232 106.192 151.433 106.969 152.082C107.472 152.922 108.088 153.623 108.817 154.186C109.601 155.759 109.865 157.429 109.609 159.196C109.149 159.385 108.798 159.719 108.553 160.198H108.201C107.222 160.776 106.401 161.577 105.736 162.603C104.239 163.303 102.772 164.038 101.335 164.808C100.819 164.822 100.35 164.954 99.927 165.208C99.3035 165.259 98.7171 165.393 98.1664 165.609C97.6132 165.774 97.0268 165.874 96.4058 165.91C96.3082 165.986 96.2495 166.086 96.2296 166.21H95.8782C94.2739 166.465 92.6894 166.665 91.1248 166.812C90.1523 166.748 89.2129 166.814 88.3082 167.012C86.249 166.962 84.1949 167.03 82.1465 167.212C78.8932 167.401 75.6656 167.601 72.4644 167.814C68.1212 167.808 63.7789 167.874 59.4373 168.014C59.0362 167.669 58.5665 167.535 58.029 167.613C56.877 166.657 55.6449 165.856 54.3325 165.208C54.1902 164.962 54.0149 164.762 53.8041 164.607C53.5378 164.269 53.3029 163.902 53.1003 163.505C53.2392 163.178 53.4154 162.878 53.6287 162.603C53.7958 162.293 53.8545 161.96 53.8041 161.601C54.172 161.611 54.4069 161.411 54.5086 161C54.378 160.411 54.2895 159.81 54.2448 159.196C53.527 158.347 52.9109 157.411 52.3957 156.391C52.2064 156.148 51.9715 156.016 51.692 155.99C51.4414 155.487 51.1487 155.02 50.8113 154.587C50.9039 154.048 51.1975 153.747 51.692 153.685C51.9269 153.15 52.2783 152.749 52.748 152.483C54.7369 152.22 56.7315 151.752 58.7336 151.08C60.4669 151.177 62.1688 151.077 63.8384 150.779C64.1204 150.79 64.3842 150.856 64.6306 150.98C65.2302 150.843 65.8463 150.643 66.4789 150.379C67.3331 150.895 68.1841 150.895 69.0317 150.379C69.4741 150.531 69.943 150.597 70.44 150.579C71.3323 150.382 72.1824 150.248 72.9929 150.178C73.5006 150.204 73.9414 150.404 74.3127 150.779C75.6954 150.601 77.1326 150.567 78.6261 150.679C79.1157 150.858 79.5854 151.092 80.0344 151.381C80.2693 150.996 80.5918 150.796 81.0028 150.779C81.4585 150.816 81.9274 150.882 82.4111 150.98C83.1124 150.602 83.8459 150.501 84.6117 150.679C84.7216 150.83 84.8093 150.997 84.8755 151.18C85.1293 150.906 85.4221 150.705 85.7554 150.579C86.9338 150.588 88.1072 150.588 89.2766 150.579C89.7587 150.736 90.2573 150.836 90.7725 150.88C90.8825 151.03 90.971 151.197 91.0372 151.381C91.1579 151.209 91.3051 151.075 91.4771 150.98C91.9758 150.996 92.5034 151.03 93.0616 151.08C93.2807 151.446 93.4866 151.412 93.6776 150.98C94.6402 151.118 95.6078 151.251 96.5819 151.381C97.3684 150.793 98.1606 150.726 98.9586 151.18C99.2778 151.182 99.5416 151.048 99.7508 150.779C100.159 151.014 100.57 151.014 100.983 150.779Z" fill="#654527"/>
<path fill-rule="evenodd" clip-rule="evenodd" d="M159.548 103.152H159.724C159.994 103.479 160.346 103.646 160.78 103.653C162.777 103.772 164.771 103.905 166.766 104.054C167.279 104.08 167.691 104.314 167.998 104.755C168.408 104.622 168.82 104.488 169.23 104.354C171.046 104.579 172.864 104.612 174.688 104.455C174.885 104.405 175.061 104.304 175.216 104.154C177.937 103.964 180.638 103.63 183.314 103.152C183.729 103.187 184.14 103.254 184.547 103.352C185.018 103.345 185.458 103.478 185.866 103.753C186.435 104.534 187.109 105.169 187.891 105.657C188.264 106.514 188.734 107.282 189.299 107.962C189.5 108.859 189.383 109.728 188.947 110.567C188.349 111.048 187.878 111.649 187.538 112.371C187.421 112.905 187.304 113.439 187.187 113.974C187.046 114.283 186.988 114.617 187.011 114.976C186.763 115.071 186.646 115.271 186.659 115.577C186.54 115.644 186.425 115.711 186.306 115.777C185.185 115.953 184.069 115.953 182.962 115.777C182.702 116.268 182.496 116.201 182.346 115.577C182.12 116.024 181.799 116.358 181.378 116.579C181.149 116.461 181.002 116.26 180.938 115.978C180.657 116.153 180.394 116.354 180.145 116.579C180.018 116.416 179.873 116.283 179.705 116.178C179.275 116.2 178.836 116.2 178.385 116.178C178.082 116.466 177.73 116.632 177.329 116.679C176.331 116.746 175.334 116.813 174.336 116.88C173.815 116.936 173.346 117.103 172.928 117.381C171.839 117.18 170.754 117.18 169.671 117.381C169.341 117.339 169.049 117.206 168.79 116.98C168.048 117.462 167.313 117.462 166.59 116.98C165.495 117.101 164.409 117.235 163.333 117.381C162.909 116.988 162.469 116.988 162.013 117.381H160.78C159.393 117.509 158.043 117.342 156.732 116.88C157.042 116.258 157.335 115.623 157.612 114.976C157.509 114.675 157.363 114.408 157.172 114.174C156.866 114.857 156.69 115.592 156.644 116.379C156.438 116.658 156.173 116.825 155.852 116.88C154.877 116.927 153.908 117.027 152.947 117.18C151.467 117.154 149.97 117.12 148.458 117.08C147.996 116.892 147.527 116.725 147.05 116.579C146.901 116.196 146.841 115.796 146.873 115.377C145.586 114.877 144.412 115.11 143.353 116.078C142.225 116.004 141.14 116.037 140.097 116.178C139.218 115.844 138.309 115.677 137.368 115.677C137.25 115.41 137.133 115.143 137.015 114.876C136.733 114.821 136.469 114.721 136.223 114.575C135.477 114.974 134.714 115.04 133.935 114.775C132.24 115.218 130.567 115.786 128.918 116.479C128.785 116.613 128.727 116.78 128.742 116.98C127.964 117.159 127.318 117.56 126.805 118.182H126.453C122.154 118.507 117.87 118.441 113.602 117.982C112.753 117.868 111.903 117.934 111.05 118.182C110.516 118.226 109.959 118.159 109.377 117.982C108.859 118.131 108.331 118.231 107.793 118.282C103.42 118.376 99.0776 118.543 94.7658 118.783C92.2428 118.773 89.7189 118.706 87.1958 118.583C85.2541 118.809 83.3174 119.076 81.3873 119.385C80.3304 119.251 79.2744 119.117 78.2183 118.984C75.3 119.183 72.3957 119.25 69.5038 119.184C68.5065 119.051 67.5092 118.917 66.5119 118.783C63.8474 119.012 61.1771 119.046 58.5019 118.884C57.5178 117.795 56.3444 117.227 54.9807 117.18C54.3919 117.079 53.9818 116.711 53.7486 116.078C53.8511 115.899 53.9098 115.699 53.9247 115.477C53.7146 114.632 53.4806 113.797 53.221 112.972C52.8232 112.535 52.5594 112.001 52.4287 111.368C52.0136 111.13 51.6911 110.796 51.4604 110.366C50.8145 109.756 50.6384 109.021 50.9319 108.162C51.1172 108.192 51.2933 108.159 51.4604 108.062C52.2733 106.94 52.5668 105.637 52.3402 104.154C52.9299 104.187 53.517 104.154 54.1008 104.054C55.9731 103.298 57.8213 102.464 59.6456 101.549C59.8218 101.682 59.9979 101.816 60.174 101.95C61.6667 101.565 63.1337 101.565 64.5751 101.95C64.6603 101.76 64.6893 101.559 64.6628 101.348C65.6841 101.679 66.6814 101.612 67.6556 101.148C68.3767 101.493 69.111 101.56 69.8561 101.348C70.3854 101.619 70.913 101.686 71.4406 101.549C72.2038 101.682 72.9663 101.816 73.7296 101.95C76.5173 101.808 79.2752 101.808 82.0033 101.95C83.8805 101.792 85.7586 101.591 87.6366 101.348C89.3286 101.498 90.9717 101.565 92.5653 101.549C93.3873 101.415 94.2085 101.282 95.0296 101.148C97.0003 101.374 98.966 101.307 100.928 100.948C101.487 100.899 102.016 100.899 102.512 100.948C102.765 100.786 103.03 100.653 103.304 100.547C107.578 101.27 111.862 101.337 116.154 100.747C116.677 100.906 117.205 101.04 117.739 101.148C120.101 101.068 122.448 101.068 124.78 101.148C129.31 102.255 133.887 102.456 138.512 101.749C141.631 101.81 144.742 101.81 147.842 101.749C149.519 101.721 151.132 102.055 152.683 102.751C153.099 102.515 153.539 102.382 154.004 102.35C155.492 102.469 156.93 102.803 158.316 103.352C158.725 103.253 159.135 103.186 159.548 103.152Z" fill="#654527"/>
<path fill-rule="evenodd" clip-rule="evenodd" d="M113.656 71.031H113.985C119.047 71.231 124.138 71.297 129.257 71.231C129.257 71.365 129.311 71.431 129.421 71.431C129.698 71.592 129.972 71.793 130.242 72.033C131.82 71.837 133.408 71.77 135.004 71.832H135.661C138.164 72.074 140.682 72.408 143.215 72.834C143.586 72.64 143.969 72.507 144.365 72.433H146.992C146.992 72.567 147.046 72.634 147.156 72.634C150.086 72.906 153.043 72.972 156.023 72.834H156.352C156.591 73.137 158.245 73.197 158.568 73.235C161.086 73.551 163.604 73.818 166.123 74.037C166.979 74.035 167.773 73.902 168.504 73.636H168.668C169.135 73.663 169.6 73.73 170.063 73.836C172.108 73.498 174.161 73.298 176.222 73.235H177.043V73.435C177.135 73.694 177.299 73.861 177.535 73.936C179.295 73.897 180.993 74.198 182.626 74.838C182.755 75.16 182.974 75.293 183.283 75.239C183.247 75.474 183.3 75.675 183.447 75.84C183.767 75.604 184.123 75.47 184.514 75.439C185.481 75.593 186.439 75.793 187.388 76.041C188.061 76.132 188.692 75.998 189.276 75.64C189.403 75.669 189.512 75.736 189.605 75.84C189.6 76.261 189.49 76.661 189.276 77.043C188.987 78.18 189.234 79.048 190.015 79.648C190.125 79.848 190.234 80.049 190.344 80.249C190.357 81.143 190.247 82.012 190.015 82.854C189.677 82.892 189.349 82.992 189.03 83.155C188.184 84.154 187.199 84.855 186.074 85.259C185.967 85.378 185.857 85.511 185.746 85.66C185.439 85.571 184.03 86.617 184.432 86.762C184.136 87.103 183.808 87.137 183.447 86.862C182.984 86.984 182.547 87.184 182.134 87.464C181.902 87.23 181.711 87.296 181.559 87.664C180.896 87.056 180.378 87.223 179.998 88.165C179.583 88.345 179.228 88.244 178.931 87.864C178.852 88.054 178.824 88.255 178.849 88.466C178.406 88.669 177.967 88.669 177.535 88.466C177.213 88.97 176.776 89.204 176.222 89.167C175.867 89.787 175.43 90.288 174.908 90.67C174.386 90.95 173.865 91.017 173.348 90.87C172.901 91.04 172.465 91.241 172.034 91.472C171.739 91.142 171.41 90.875 171.049 90.67C171.149 89.999 170.014 90.082 169.981 90.67C169.51 90.868 169.1 90.735 168.75 90.269C168.571 90.64 168.351 90.974 168.093 91.271C167.175 91.152 166.216 90.985 165.219 90.77C165.137 90.67 165.055 90.57 164.973 90.47C164.112 90.82 163.236 90.887 162.345 90.67C162.014 90.974 161.657 91.241 161.278 91.472C161.149 91.323 161.04 91.156 160.95 90.971C160.485 90.928 160.046 90.895 159.636 90.87C159.513 91.046 159.431 91.246 159.39 91.472C159.329 91.288 159.247 91.121 159.143 90.971C158.095 90.929 157.054 90.829 156.023 90.67C155.611 91.045 155.256 91.045 154.956 90.67C154.452 90.647 153.932 90.714 153.396 90.87C152.905 90.497 152.384 90.497 151.836 90.87C151.668 90.633 151.477 90.432 151.261 90.269C150.847 90.155 150.463 90.288 150.112 90.67C149.489 90.652 148.969 90.385 148.551 89.868C148.298 90.643 148.051 90.643 147.813 89.868C147.468 90.066 147.14 89.999 146.827 89.668C146.631 89.737 146.631 89.838 146.827 89.969C145.607 89.898 144.431 89.931 143.297 90.069C143.003 89.921 142.703 89.787 142.394 89.668C141.972 89.806 141.561 89.873 141.163 89.868C140.316 89.605 139.467 89.405 138.617 89.267C138.34 89.486 138.039 89.62 137.713 89.668C136.849 89.698 135.973 89.631 135.086 89.468C135.001 89.671 134.864 89.805 134.676 89.868C134.238 89.601 133.8 89.601 133.362 89.868C133.158 89.761 132.967 89.627 132.787 89.468C131.82 89.41 130.807 89.543 129.75 89.868C129.325 89.842 128.914 89.775 128.517 89.668C127.924 90.027 127.294 90.027 126.63 89.668C126.266 89.789 125.911 89.923 125.562 90.069C125.086 90.012 124.594 90.012 124.084 90.069C123.632 89.573 123.167 89.573 122.688 90.069C122.533 89.971 122.369 89.905 122.195 89.868C121.789 90.023 121.379 90.156 120.964 90.269C119.69 90.186 118.458 90.119 117.269 90.069C116.462 90.194 115.668 90.395 114.888 90.67C114.486 90.598 114.103 90.464 113.739 90.269C113.656 90.369 113.574 90.47 113.492 90.57C112.556 90.659 111.653 90.893 110.782 91.271C110.619 91.138 110.454 91.004 110.29 90.87C110.071 91.138 109.852 91.138 109.633 90.87C109.548 91.074 109.411 91.208 109.223 91.271C108.579 91.059 107.949 91.059 107.334 91.271C107.05 91.301 107.023 91.434 107.252 91.672C107.098 91.883 106.907 92.017 106.677 92.073C106.293 91.967 105.91 91.7 105.528 91.271C105.355 91.723 105.109 91.79 104.789 91.472C104.584 91.58 104.393 91.714 104.215 91.872C103.811 91.63 103.401 91.63 102.983 91.872C102.782 92.025 102.619 92.226 102.491 92.474C102.376 92.368 102.295 92.235 102.244 92.073C102.193 92.235 102.111 92.368 101.998 92.474C101.21 92.322 100.417 92.255 99.616 92.273C98.9081 92.807 98.1961 92.807 97.4816 92.273C96.8722 92.503 96.2428 92.637 95.5928 92.674C95.2414 92.651 94.9404 92.518 94.6898 92.273C94.3392 92.63 93.929 92.763 93.4585 92.674C93.4378 92.018 93.2186 91.985 92.8019 92.574C92.4405 92.649 92.0849 92.749 91.7342 92.875C91.0677 92.575 90.3292 92.441 89.5172 92.474V93.075C89.1227 93.002 88.739 92.868 88.3677 92.674C87.8897 92.811 87.4787 93.078 87.1363 93.476C86.7477 93.366 86.3921 93.166 86.0687 92.875C85.6437 92.962 85.26 93.162 84.9193 93.476C84.5893 93.306 84.3156 93.439 84.0981 93.877C83.6333 93.446 83.195 93.446 82.7849 93.877C82.4772 93.623 82.1762 93.623 81.8818 93.877C81.585 93.464 81.2285 93.397 80.8142 93.676C80.8423 93.941 80.7869 94.175 80.6497 94.378C80.127 94.471 79.6614 94.437 79.2537 94.277C78.4127 94.651 77.5916 94.651 76.7911 94.277C76.519 94.475 76.2453 94.675 75.9699 94.879C75.8334 94.712 75.6962 94.544 75.5597 94.378C74.8684 94.325 74.1845 94.225 73.5064 94.077C72.772 94.413 72.0335 94.646 71.2901 94.778C71.3447 94.712 71.3993 94.645 71.4538 94.578C71.257 94.397 71.1198 94.163 71.0437 93.877C70.2175 94.044 69.3964 94.245 68.5802 94.478C68.5198 94.195 68.3833 93.995 68.17 93.877C67.7689 94.176 67.3306 94.376 66.8559 94.478C66.5979 93.958 66.215 93.758 65.7065 93.877V93.275C64.6339 93.662 63.6209 93.529 62.669 92.875C61.7371 92.951 60.8067 92.818 59.8772 92.474C59.3653 92.529 58.8725 92.529 58.3994 92.474C58.3167 92.24 58.1803 92.073 57.9884 91.973C57.4162 91.652 56.8142 91.418 56.1824 91.271C55.7077 90.357 55.0511 89.755 54.2117 89.468H54.0471C53.8379 88.887 53.8379 88.286 54.0471 87.664C54.1489 87.642 54.2307 87.575 54.2936 87.464C54.4292 86.786 54.4019 86.118 54.2117 85.46C53.9537 84.898 53.6527 84.364 53.3087 83.856C52.6306 83.677 52.1377 83.209 51.8309 82.454C51.8507 81.119 51.8507 79.783 51.8309 78.445C51.5183 78.056 51.381 77.589 51.4199 77.043C51.6936 76.842 51.9128 76.575 52.0773 76.241C52.2402 76.275 52.3494 76.209 52.4056 76.041C53.1722 76.038 53.8834 75.838 54.54 75.439H54.7046C56.8935 74.978 59.0833 74.711 61.2731 74.638C61.503 74.543 61.7222 74.41 61.9297 74.237C65.3773 74.054 68.8258 73.92 72.275 73.836C74.4938 73.8 76.6835 73.666 78.8436 73.435C78.8436 73.302 78.8982 73.235 79.0081 73.235C81.3939 73.28 83.7475 73.146 86.0687 72.834H86.5616C88.5595 72.751 90.5302 72.618 92.4735 72.433C93.905 72.488 95.3282 72.422 96.7423 72.233C99.645 72.185 102.546 72.085 105.446 71.932C105.755 71.893 106.028 71.792 106.267 71.632C107.665 71.572 109.033 71.438 110.372 71.231C111.468 71.188 112.563 71.122 113.656 71.031Z" fill="#654527"/>
<path fill-rule="evenodd" clip-rule="evenodd" d="M68.5967 41C70.6203 41.186 72.6745 41.32 74.7576 41.4C75.8913 41.709 77.0648 41.843 78.2788 41.801C80.1981 42.073 82.1349 42.374 84.0882 42.703C85.5006 42.763 86.9089 42.864 88.3131 43.004C90.0109 43.161 91.7128 43.228 93.4179 43.204C96.4115 43.238 99.4043 43.204 102.396 43.104C104.904 42.7 107.428 42.533 109.965 42.603C112.081 42.581 114.194 42.648 116.303 42.803C118.795 42.877 121.319 42.877 123.873 42.803C124.188 42.776 124.482 42.843 124.753 43.004C126.247 43.203 127.772 43.269 129.33 43.204C131.352 43.404 133.406 43.47 135.491 43.405C135.971 43.497 136.44 43.631 136.9 43.805H137.076C137.665 44.149 138.31 44.283 139.012 44.206H147.462C147.439 44.354 154.497 44.823 155.736 44.908C156.469 45.343 157.261 45.577 158.113 45.609C158.958 45.452 159.809 45.385 160.666 45.409C162.658 45.536 164.654 45.603 166.65 45.609H171.051C172.838 45.851 174.657 45.984 176.509 46.01H176.685C178.414 46.296 180.174 46.53 181.966 46.711C183.133 46.993 184.247 47.427 185.311 48.014C185.613 48.358 185.966 48.625 186.367 48.815C186.674 49.365 187.084 49.766 187.599 50.018C187.677 50.341 187.853 50.575 188.127 50.719C188.534 50.819 188.944 50.852 189.36 50.819C190.222 51.044 191.044 51.378 191.824 51.821C191.835 52.044 191.892 52.244 192 52.423V53.625C191.766 53.892 191.53 54.16 191.296 54.427C190.836 54.448 190.484 54.682 190.24 55.128C189.111 55.27 188.173 55.771 187.424 56.631C187.129 56.765 186.837 56.898 186.543 57.032C186.393 56.806 186.217 56.806 186.015 57.032C185.74 57.028 185.476 56.961 185.223 56.832C184.434 57.264 183.642 57.665 182.846 58.034C182.644 57.97 182.497 57.837 182.406 57.633C182.048 58.182 181.608 58.315 181.086 58.034C180.848 58.482 180.496 58.75 180.03 58.836C179.625 58.608 179.242 58.341 178.885 58.034C177.859 58.922 176.773 59.524 175.629 59.838C175.507 59.732 175.419 59.599 175.365 59.437C175.187 59.605 174.981 59.671 174.749 59.637C174.805 59.192 174.688 58.824 174.396 58.535C174.516 57.904 174.31 57.403 173.78 57.032C173.78 57.504 173.868 57.972 174.044 58.435C173.793 58.779 173.645 59.18 173.604 59.637C172.96 59.747 172.432 60.081 172.02 60.639C171.648 60.494 171.296 60.294 170.964 60.038C170.694 60.277 170.43 60.277 170.172 60.038C169.846 60.187 169.727 60.387 169.819 60.639C169.585 60.506 169.35 60.372 169.115 60.238C168.517 60.421 167.96 60.421 167.443 60.238C167.325 60.105 167.209 59.971 167.09 59.838C166.96 60.066 166.814 60.066 166.65 59.838C166.524 60.235 166.32 60.569 166.034 60.84C165.688 60.611 165.364 60.344 165.066 60.038C164.91 60.203 164.852 60.404 164.891 60.639C164.649 60.671 164.413 60.637 164.186 60.539C164.686 59.772 164.51 59.271 163.658 59.036C163.066 59.097 162.656 59.298 162.425 59.637C162.26 59.616 162.112 59.549 161.985 59.437C161.857 59.769 161.653 59.869 161.369 59.737C161.536 59.594 161.566 59.427 161.457 59.236C161.269 59.375 161.065 59.475 160.841 59.537C161.003 59.947 160.915 60.315 160.577 60.639C160.045 60.175 159.489 60.175 158.905 60.639C158.596 60.513 158.331 60.313 158.113 60.038C157.983 60.253 157.807 60.387 157.584 60.439C157.189 60.147 156.748 59.98 156.265 59.938C156.117 59.771 155.971 59.604 155.824 59.437C154.955 59.98 154.045 60.113 153.096 59.838C153.125 60.103 153.067 60.336 152.919 60.539C152.424 60.869 151.983 60.836 151.599 60.439C151.059 60.416 150.501 60.483 149.927 60.639C149.628 60.466 149.423 60.199 149.311 59.838C148.837 59.939 148.572 60.173 148.518 60.539C148.178 60.589 147.855 60.69 147.55 60.84C147.433 60.706 147.316 60.572 147.199 60.439C146.905 60.706 146.611 60.706 146.318 60.439C146.032 61.054 145.65 61.155 145.174 60.739C145.291 60.606 145.408 60.472 145.526 60.339C145.238 60.24 144.945 60.206 144.646 60.238V60.84C144.346 60.814 144.083 60.681 143.853 60.439C143.304 60.963 142.687 61.364 142.005 61.641C141.675 61.387 141.353 61.387 141.037 61.641C140.811 61.426 140.752 61.159 140.861 60.84C140.333 60.286 139.717 60.119 139.012 60.339C138.466 61.308 137.85 61.409 137.164 60.639C136.808 60.938 136.515 60.871 136.283 60.439C135.784 60.608 135.461 60.975 135.315 61.541C134.997 61.532 134.703 61.565 134.435 61.641C134.263 61.546 134.117 61.412 133.995 61.24C133.87 61.536 133.665 61.669 133.379 61.641V60.84C133.693 60.897 133.987 60.83 134.259 60.639C134.083 60.572 133.907 60.506 133.731 60.439C133.381 60.572 133.058 60.572 132.763 60.439C132.646 60.706 132.528 60.973 132.411 61.24C132.066 61.082 131.801 60.815 131.619 60.439C131.39 60.557 131.243 60.757 131.179 61.04C130.606 61.02 130.018 60.953 129.418 60.84C129.359 60.973 129.301 61.107 129.242 61.24C129.032 61.054 128.797 60.92 128.538 60.84C128.245 61.107 127.951 61.107 127.657 60.84C127.193 60.92 126.783 61.121 126.425 61.441C126.353 61.349 126.265 61.282 126.161 61.24C126.103 61.508 126.044 61.775 125.985 62.042C125.868 61.908 125.75 61.775 125.633 61.641C125.348 62.03 125.025 62.097 124.666 61.842C124.548 61.975 124.431 62.109 124.313 62.242C124.016 61.777 123.692 61.677 123.345 61.942C123.557 62.146 123.499 62.246 123.169 62.242C122.639 61.689 122.257 61.822 122.024 62.643C121.787 61.601 121.581 61.601 121.408 62.643C121.171 62.215 120.877 62.148 120.528 62.443C120.562 62.205 120.474 61.937 120.264 61.641C120.176 61.842 120.088 62.042 120 62.242C119.506 62.394 119.036 62.594 118.591 62.844C118.266 62.729 117.942 62.662 117.624 62.643C117.493 62.858 117.317 62.992 117.096 63.044C116.826 62.805 116.561 62.805 116.303 63.044C115.804 62.414 115.275 62.348 114.719 62.844C114.454 62.733 114.161 62.733 113.839 62.844C113.78 61.508 113.722 61.508 113.663 62.844C113.049 62.593 112.404 62.426 111.726 62.343C111.583 61.965 111.348 61.831 111.022 61.942C111.256 62.076 111.256 62.209 111.022 62.343C110.729 62.376 110.435 62.409 110.142 62.443C109.377 62.308 108.615 62.175 107.853 62.042V62.643C107.268 62.446 106.74 62.513 106.269 62.844C105.839 62.544 105.369 62.344 104.861 62.242C104.738 62.62 104.562 62.687 104.332 62.443C104.202 62.893 103.967 63.26 103.628 63.545C103.123 63.608 102.624 63.708 102.132 63.846C101.301 63.361 100.479 63.361 99.6673 63.846C99.2993 63.83 98.9181 63.763 98.5236 63.645C97.9108 64.184 97.4113 64.05 97.0268 63.244C96.8482 63.472 96.7308 63.405 96.6745 63.044C96.5902 63.234 96.5604 63.434 96.5869 63.645C95.5986 63.591 94.6311 63.591 93.6817 63.645C93.2881 63.534 92.9367 63.333 92.6257 63.044C92.4645 63.21 92.3479 63.41 92.2734 63.645C92.1436 63.417 91.9964 63.417 91.8335 63.645C91.5027 63.416 91.1802 63.216 90.8651 63.044C90.7998 63.228 90.7113 63.395 90.6013 63.545C89.8976 63.581 89.2228 63.547 88.5769 63.445C88.1684 63.577 87.7872 63.777 87.4324 64.046C87.0181 63.927 86.6369 63.726 86.2887 63.445C85.7396 63.452 85.1822 63.519 84.6158 63.645C84.4983 63.378 84.3817 63.111 84.2643 62.844C83.826 62.949 83.415 63.116 83.0321 63.345C83.1487 63.411 83.2662 63.478 83.3836 63.545C83.1884 63.673 82.9834 63.773 82.7675 63.846C82.1787 63.514 81.6213 63.113 81.0954 62.643C80.5339 63.103 79.9468 63.303 79.3348 63.244C79.4522 63.111 79.5697 62.977 79.6871 62.844C79.4555 62.48 79.1917 62.146 78.8949 61.842C78.7741 62.099 78.8039 62.333 78.9825 62.543C78.7195 62.645 78.5136 62.544 78.3664 62.242C78.0919 62.587 77.9455 62.987 77.9265 63.445C77.5725 63.548 77.2203 63.581 76.8705 63.545C76.6389 63.266 76.6976 63.065 77.0466 62.944C76.8117 62.877 76.5769 62.81 76.342 62.743C76.7108 62.632 76.7406 62.532 76.4305 62.443C75.759 62.738 75.0834 62.805 74.4061 62.643C73.7569 62.792 73.6395 63.092 74.0538 63.545C73.6304 63.701 73.3369 63.534 73.1731 63.044C72.7836 63.259 72.3726 63.393 71.9409 63.445C71.5308 63.178 71.1198 63.178 70.7088 63.445C70.3408 63.448 70.0174 63.314 69.7404 63.044C69.6197 63.216 69.4725 63.349 69.3005 63.445C68.7439 63.281 68.2453 63.014 67.8045 62.643C67.6961 62.967 67.52 63.234 67.2761 63.445C67.042 63.246 66.8072 63.045 66.5723 62.844C66.206 63.048 65.9124 62.914 65.6916 62.443C65.0821 62.959 64.466 62.959 63.8433 62.443C63.4729 62.609 63.1206 62.676 62.7873 62.643C62.3242 62.165 61.9719 62.299 61.7313 63.044C61.4013 62.756 61.049 62.523 60.6744 62.343C60.4288 62.223 60.194 62.257 59.9707 62.443C59.63 62.029 59.2487 62.029 58.8262 62.443C58.6045 62.391 58.4284 62.257 58.2986 62.042C58.0207 62.312 57.6982 62.446 57.3302 62.443C56.1799 62.116 55.0651 61.749 53.9851 61.341C53.5196 61.241 53.0498 61.208 52.5768 61.24C52.5479 60.569 52.5776 59.901 52.6653 59.236C52.8406 59.036 53.0168 58.836 53.1929 58.635C53.336 57.729 53.307 56.861 53.1052 56.03C52.8704 55.896 52.8704 55.763 53.1052 55.629C53.326 53.877 52.8853 52.341 51.7846 51.02C51.1925 49.606 50.9874 48.137 51.1685 46.611H49.7602C49.7412 46.153 49.5948 45.753 49.3202 45.409C49.2615 45.475 49.2028 45.542 49.1441 45.609C49.0192 45.314 48.8141 45.18 48.528 45.208C48.5553 44.933 48.5264 44.666 48.4404 44.407C48.3229 44.674 48.2055 44.674 48.0881 44.407C47.9706 44.006 47.9706 43.605 48.0881 43.204C48.3337 42.941 48.5098 43.008 48.6157 43.405C49.0829 42.988 49.5816 42.654 50.1125 42.403H50.4648C51.2297 42.436 51.9922 42.402 52.753 42.302C52.8505 42.226 52.9093 42.125 52.9291 42.002H53.1052C54.1853 42.066 55.2413 41.933 56.2733 41.601C57.3906 41.634 58.5053 41.601 59.6184 41.501C59.95 41.461 60.2427 41.361 60.4983 41.2H61.379C63.7854 41.172 66.1919 41.105 68.5967 41Z" fill="#654527"/>
<path fill-rule="evenodd" clip-rule="evenodd" d="M172.538 184.162C172.239 184.13 171.945 184.164 171.658 184.262C171.489 184.555 171.255 184.723 170.954 184.763C169.609 184.782 168.26 184.647 166.905 184.363C165.227 184.264 163.584 184.465 161.976 184.964C153.578 184.411 145.187 184.479 136.802 185.164C135.978 185.13 135.157 185.164 134.338 185.265C134.12 185.311 133.944 185.411 133.81 185.565C132.756 185.513 131.759 185.313 130.817 184.964C130.001 184.96 129.21 185.094 128.441 185.365C127.912 185.299 127.385 185.23 126.856 185.164C126.506 185.178 126.242 185.313 126.064 185.565C125.432 185.826 124.846 186.158 124.303 186.567C123.405 186.786 122.525 186.986 121.663 187.168H121.487C119.901 187.134 118.317 187.168 116.734 187.269C116.573 187.325 116.455 187.425 116.382 187.569C112.361 187.625 108.371 187.76 104.411 187.97C103.465 187.948 102.527 188.016 101.594 188.17C99.4192 188.152 97.2484 188.253 95.0809 188.471C94.7022 188.491 94.4086 188.657 94.2011 188.972C93.317 188.972 92.4371 188.904 91.5606 188.772C90.8973 188.752 90.3102 188.952 89.8 189.373C84.8928 190.042 79.9633 190.277 75.0122 190.074C74.4789 189.671 73.8925 189.437 73.2525 189.373C73.0672 189.02 72.7737 188.888 72.3718 188.972C71.5258 188.774 70.6459 188.707 69.7313 188.772C68.5305 188.802 67.3571 188.633 66.2101 188.271C66.8336 188.204 67.0387 187.838 66.827 187.168C66.5053 187.048 66.1828 186.914 65.8586 186.768C64.4553 186.567 63.0469 186.501 61.6337 186.567C61.4211 186.421 61.1863 186.353 60.9291 186.367C60.8042 186.186 60.6281 186.118 60.4015 186.166C60.1815 184.569 59.3595 183.701 57.9363 183.561H57.5849C57.565 183.437 57.5063 183.337 57.4087 183.26C56.5652 183.216 55.7432 183.05 54.9436 182.759C54.6111 182.066 54.5226 181.331 54.6798 180.555C55.061 180.226 55.3248 179.826 55.472 179.353C57.5708 178.126 59.7713 177.124 62.0736 176.347C62.1323 176.413 62.191 176.481 62.2498 176.547C63.682 175.563 65.2376 174.996 66.9146 174.844C67.1917 174.527 67.5142 174.294 67.883 174.142C70.0885 173.627 72.318 173.16 74.5723 172.739C74.7633 172.898 74.9684 173.032 75.1884 173.14C75.6474 172.533 76.2047 172.399 76.8605 172.739C77.2996 172.673 77.6808 172.473 78.005 172.138C78.4383 172.12 78.8791 172.12 79.3257 172.138C79.6482 171.866 79.9707 171.799 80.294 171.938C82.1067 171.31 83.9558 170.841 85.8388 170.535C87.0065 170.671 88.1212 170.737 89.1839 170.735C89.513 170.621 89.8355 170.489 90.1523 170.334C90.5732 170.477 90.9544 170.342 91.2959 169.934C91.3547 170.068 91.4134 170.2 91.4721 170.334C91.6681 170.092 91.8732 170.092 92.0882 170.334C92.495 169.922 92.935 169.787 93.4088 169.934C93.7024 169.799 93.9951 169.667 94.2887 169.533C94.4558 169.637 94.603 169.771 94.7287 169.934C95.0123 169.723 95.3059 169.723 95.6094 169.934C95.9542 169.859 96.2767 169.725 96.5769 169.533C96.7051 169.645 96.8515 169.711 97.0177 169.733C98.7014 169.002 100.402 168.934 102.123 169.533C102.768 169.619 103.442 169.487 104.147 169.132C104.742 169.304 105.387 169.236 106.084 168.932C106.772 169.216 107.534 169.35 108.372 169.332C109.629 169.192 110.921 169.192 112.245 169.332C112.918 169.294 113.534 169.094 114.094 168.731C114.467 168.697 114.819 168.763 115.15 168.932C115.539 169.088 115.979 169.088 116.469 168.932C116.763 169.066 117.057 169.198 117.35 169.332C118.119 169.09 118.883 168.823 119.638 168.531C120.034 168.603 120.474 168.735 120.959 168.932C123.301 168.867 125.649 168.801 128.001 168.731C128.401 168.825 128.753 169.026 129.057 169.332C129.736 169.182 130.381 169.316 130.993 169.733C131.498 169.591 131.938 169.322 132.313 168.932C133.786 168.966 135.253 169.166 136.714 169.533C137.104 169.116 137.574 168.849 138.123 168.731C138.748 168.876 139.394 168.942 140.059 168.932C140.411 168.797 140.763 168.665 141.115 168.531C141.17 168.693 141.258 168.825 141.379 168.932C141.849 168.807 142.289 168.607 142.7 168.33C143.108 168.308 143.547 168.375 144.02 168.531C144.883 168.098 145.734 168.098 146.573 168.531C147.248 168.477 147.923 168.411 148.597 168.33C148.808 168.401 148.808 168.501 148.597 168.631C148.743 168.665 148.89 168.697 149.037 168.731C149.635 168.499 150.221 168.499 150.797 168.731C150.919 168.559 151.065 168.427 151.237 168.33C152.264 168.461 153.263 168.529 154.23 168.531C154.562 168.487 154.855 168.354 155.111 168.13C155.99 168.579 156.9 168.647 157.839 168.33C158.178 168.825 158.501 168.825 158.807 168.33C159.26 168.557 159.729 168.725 160.216 168.831C160.451 168.966 160.451 169.098 160.216 169.232C160.493 169.32 161.239 169.505 161.36 169.332C161.389 169.433 161.752 169.695 161.976 169.433C161.895 169.35 161.837 169.25 161.8 169.132C162.41 169.006 162.996 168.805 163.561 168.531C163.733 168.627 163.879 168.759 164.001 168.932C164.472 168.689 164.971 168.555 165.497 168.531C166.351 168.603 167.231 168.603 168.137 168.531C168.123 169.086 168.736 169.437 169.545 169.332V168.731C169.834 168.689 170.099 168.755 170.338 168.932C170.479 168.671 170.685 168.537 170.954 168.531C171.727 168.649 172.489 168.815 173.243 169.032C173.033 169.236 172.857 169.471 172.714 169.733C172.936 169.629 174.556 169.272 174.827 168.932C174.936 169.427 175.084 169.894 175.267 170.334C175.429 170.082 175.577 169.815 175.707 169.533C176.397 170.15 177.434 170.589 177.203 170.334C177.064 170.755 176.8 171.024 176.411 171.136C176.529 171.27 176.646 171.403 176.763 171.537C176.566 172.194 176.242 172.729 175.795 173.14C175.55 172.916 176.587 174.008 176.763 174.343C176.881 174.208 176.997 174.076 177.115 173.942C177.186 174.369 177.186 174.769 177.115 175.144C177.409 174.878 177.702 174.878 177.995 175.144C178.337 174.797 178.659 174.465 178.964 174.142C179.052 174.443 179.14 174.743 179.228 175.044C179.029 175.108 178.853 175.274 178.7 175.545C178.817 175.946 178.934 176.347 179.052 176.747C178.851 177.655 178.967 177.721 179.404 176.948C179.878 177.491 179.82 177.858 179.228 178.05C179.608 178.07 179.96 178.236 180.284 178.551C179.559 179.066 179.589 179.2 180.372 178.952C180.578 179.054 180.724 179.22 180.812 179.453C180.413 179.547 180.06 179.747 179.756 180.054C179.982 180.19 180.188 180.158 180.372 179.954C180.58 180.753 180.316 181.088 179.58 180.956C179.566 181.511 179.654 182.046 179.844 182.559C179.902 182.493 179.962 182.425 180.02 182.359C180.313 182.892 180.604 182.892 180.9 182.359C181.222 182.461 181.25 182.627 180.988 182.86C179.068 183.24 177.131 183.441 175.179 183.461C174.269 183.641 173.388 183.876 172.538 184.162Z" fill="#C69263"/>
<path fill-rule="evenodd" clip-rule="evenodd" d="M182.1 122.457C182.269 122.548 182.416 122.681 182.54 122.858C183.315 122.664 184.107 122.597 184.917 122.658C185.834 123.212 186.714 123.813 187.558 124.461C187.483 124.978 188.659 125.982 188.79 124.962C189.024 124.829 189.259 124.829 189.493 124.962C189.682 125.282 189.858 125.582 190.022 125.864C190.189 125.698 190.365 125.665 190.55 125.764C190.432 126.031 190.256 126.231 190.022 126.365C190.103 126.448 190.161 126.548 190.198 126.666C189.964 126.866 189.728 127.066 189.493 127.267C189.552 127.401 189.612 127.534 189.67 127.668C189.379 128.263 189.027 128.798 188.614 129.271C188.633 129.591 188.691 129.925 188.79 130.273C188.557 130.851 188.381 131.452 188.261 132.077C187.932 131.191 187.462 131.157 186.853 131.976C187.195 132.158 187.371 132.459 187.381 132.878C186.818 132.796 186.29 132.796 185.797 132.878C186.015 133.346 186.31 133.479 186.677 133.279C187.316 133.752 187.374 134.32 186.853 134.982C187.021 135.106 187.166 135.073 187.294 134.882C187.455 134.992 187.603 135.125 187.734 135.283C187.645 135.527 187.587 135.761 187.558 135.984C187.295 136.259 187.031 136.292 186.765 136.085C186.522 136.326 186.318 136.593 186.149 136.886H184.741C184.713 136.611 183.322 137.636 182.012 137.087C181.494 137.532 180.937 137.598 180.34 137.287C180.086 137.331 179.852 137.431 179.635 137.588C178.048 137.779 176.523 137.88 175.059 137.888C174.54 137.232 173.981 137.165 173.386 137.688C173.091 137.575 172.857 137.375 172.682 137.087C172.492 137.465 172.2 137.666 171.801 137.688C171.209 137.484 170.65 137.351 170.129 137.287C169.265 137.58 168.385 137.781 167.489 137.888V136.285C167.06 136.209 166.941 136.342 167.137 136.686C167.043 137.033 166.868 137.3 166.609 137.487C163.183 137.588 159.721 137.454 156.222 137.087C155.328 136.763 154.418 136.696 153.493 136.886C152.246 136.529 150.984 136.262 149.709 136.085C149.344 136.338 148.991 136.304 148.652 135.984C145.431 135.875 142.262 135.508 139.146 134.882C138.965 134.732 138.759 134.599 138.53 134.481C138.472 134.548 138.413 134.615 138.354 134.682C137.448 134.506 136.539 134.306 135.626 134.081C135.38 134.105 135.146 134.172 134.921 134.281C134.472 134.03 134.002 133.863 133.513 133.78C133.727 133.601 133.727 133.434 133.513 133.279C133.41 133.321 133.322 133.388 133.249 133.479C132.944 133.329 132.621 133.229 132.281 133.179C131.377 132.049 130.32 130.946 129.112 129.872C128.778 129.585 128.719 129.25 128.936 128.87C128.604 128.689 128.281 128.488 127.968 128.269C127.882 128.01 127.853 127.742 127.88 127.467C128.455 127.339 129.012 127.339 129.552 127.467C129.844 126.934 130.138 126.934 130.433 127.467C130.708 127.196 131.031 127.062 131.401 127.066C131.472 126.251 131.825 125.65 132.457 125.263C133.533 124.823 134.589 124.322 135.626 123.76C136.838 123.416 138.07 123.215 139.323 123.159C139.41 123.058 139.499 122.958 139.586 122.858C139.873 122.791 140.137 122.924 140.379 123.259C141 123.156 141.558 123.29 142.052 123.66C142.344 123.526 142.638 123.392 142.931 123.259C143.919 123.925 144.887 123.992 145.836 123.459C146.525 123.495 147.259 123.561 148.036 123.66C148.212 123.526 148.389 123.392 148.565 123.259C149.496 123.579 150.376 123.445 151.205 122.858C152.006 123.378 152.798 123.378 153.582 122.858C154.041 123.129 154.539 123.263 155.078 123.259C157.013 123.294 158.949 123.228 160.887 123.058C160.953 123.341 161.099 123.541 161.327 123.66C162.009 123.132 162.683 123.132 163.352 123.66C163.498 123.493 163.646 123.326 163.792 123.159C164.789 123.154 165.756 122.987 166.697 122.658C166.982 122.703 167.188 122.87 167.313 123.159C167.11 123.924 168.524 122.315 170.482 122.658C170.702 123.053 170.965 123.12 171.274 122.858C171.567 123.192 171.86 123.526 172.154 123.86C172.564 123.259 173.092 122.858 173.738 122.658C175.395 122.421 177.068 122.421 178.755 122.658C179.201 122.173 179.523 122.306 179.724 123.058C179.789 122.875 179.877 122.708 179.988 122.557C180.709 122.628 181.413 122.594 182.1 122.457Z" fill="#C69263"/>
<path fill-rule="evenodd" clip-rule="evenodd" d="M112.917 134.481C111.848 135.124 110.792 135.825 109.748 136.586C109.278 136.652 108.809 136.719 108.34 136.786C107.124 137.413 105.892 137.914 104.643 138.289H86.1589C80.2941 138.593 74.4268 138.727 68.5546 138.69H68.3784C66.125 138.374 63.8368 138.24 61.513 138.289C60.1187 138.067 58.7104 137.8 57.2881 137.487C56.7075 137.09 56.0617 136.89 55.3513 136.886C55.0503 136.638 54.698 136.504 54.2953 136.485C53.4758 136.018 52.6538 135.551 51.8309 135.083C51.3199 134.652 50.7327 134.352 50.0703 134.181C49.8098 133.67 49.9273 133.302 50.4226 133.079C50.4698 132.134 50.8808 131.499 51.6548 131.175C51.7871 131.04 51.8458 130.873 51.8309 130.674C52.1328 130.648 52.4263 130.581 52.7108 130.473C53.3087 130.261 53.9248 130.06 54.5599 129.872C55.4762 128.777 56.6207 128.276 57.9926 128.369C59.8458 127.553 61.6949 126.919 63.5374 126.465C64.0559 126.513 64.6133 126.579 65.2095 126.666C66.2515 126.18 67.3083 125.913 68.3784 125.864C68.7092 125.949 68.9738 126.15 69.1707 126.465C69.5949 126.049 70.0646 125.715 70.579 125.463C72.1386 125.715 73.6933 125.515 75.2439 124.862C75.7557 124.964 76.2544 125.098 76.7407 125.263C76.8705 125.048 77.0466 124.914 77.2683 124.862C78.1523 124.928 78.9743 124.995 79.7334 125.062C80.0717 124.567 80.395 124.567 80.701 125.062C80.6977 124.662 80.9317 124.395 81.4055 124.261C81.7421 124.258 82.0944 124.325 82.4616 124.461C83.2199 124.298 83.9824 124.165 84.7506 124.06C84.6977 124.61 84.9028 124.944 85.3667 125.062C86.1325 124.928 86.1614 124.694 85.4544 124.361C85.5428 124.328 85.6305 124.294 85.7182 124.261C86.2598 124.312 86.8172 124.346 87.3911 124.361C87.7864 125.002 88.1974 125.002 88.6233 124.361C88.9756 124.294 89.327 124.227 89.6793 124.161C91.822 124.115 93.9927 124.048 96.1933 123.96C96.6622 123.893 97.1319 123.827 97.6016 123.76C97.6892 123.66 97.7769 123.559 97.8654 123.459C99.1695 123.558 100.46 123.759 101.738 124.06C102.013 123.891 102.189 124.025 102.266 124.461C102.686 124.211 103.037 123.877 103.323 123.459C103.44 123.593 103.557 123.726 103.675 123.86C103.92 123.674 104.184 123.674 104.467 123.86C105.043 123.601 105.601 123.468 106.139 123.459C106.403 123.559 106.668 123.66 106.931 123.76C107.654 125.072 108.71 125.673 110.1 125.563C110.809 125.839 111.542 126.206 112.301 126.666C112.025 128.046 111.762 129.449 111.509 130.874C111.601 131.492 111.748 132.093 111.949 132.678C112.059 133.172 112.324 133.506 112.741 133.68C112.905 133.918 112.962 134.185 112.917 134.481Z" fill="#C69263"/>
<path fill-rule="evenodd" clip-rule="evenodd" d="M160.132 146.377C160.25 146.443 160.367 146.51 160.485 146.577C161.171 146.792 161.551 147.326 161.629 148.18C161.775 148.013 161.923 147.846 162.069 147.679C161.706 147.442 161.676 147.208 161.981 146.978C162.196 147.156 162.43 147.289 162.685 147.379C163.234 147.196 163.792 146.995 164.357 146.777C164.762 147.069 165.145 147.269 165.502 147.379C166.215 147.143 166.743 147.41 167.086 148.18C167.357 147.915 170.663 148.217 170.959 147.98C172.017 147.948 173.102 147.981 174.215 148.08C174.74 148.519 176.104 149.363 175.976 149.082C176.447 148.513 177.035 148.212 177.737 148.18C179.268 148.648 180.792 149.116 182.313 149.583C182.291 149.731 182.321 149.866 182.402 149.984C182.706 149.767 183.028 149.735 183.37 149.884C184.702 151.012 186.17 151.481 187.771 151.286C188.177 151.505 188.414 151.872 188.475 152.389C188.704 152.978 189.055 153.445 189.531 153.792C189.413 153.858 189.297 153.926 189.179 153.992C189.464 154.617 189.346 155.118 188.827 155.495C188.86 155.826 188.89 156.192 188.915 156.597C189.103 156.24 189.367 156.14 189.707 156.297C189.448 156.439 189.331 156.673 189.355 156.998C189.996 156.846 190.26 157.112 190.147 157.8C190.02 157.609 189.874 157.575 189.707 157.699C189.939 157.864 190.058 158.096 190.059 158.401C189.774 158.914 189.364 159.246 188.827 159.403C187.998 159.627 187.177 159.896 186.363 160.204C183.716 160.353 181.076 160.553 178.44 160.806C178.337 160.764 178.249 160.697 178.177 160.605C177.143 160.713 176.145 160.98 175.184 161.407C174.524 161.241 173.938 160.906 173.423 160.405C173.379 160.629 173.292 160.83 173.159 161.006C172.996 160.778 172.849 160.778 172.719 161.006C172.661 160.872 172.601 160.74 172.543 160.605C171.77 160.742 171.009 160.942 170.254 161.206C169.858 161.018 169.448 160.884 169.022 160.806C167.114 161.096 165.206 161.164 163.301 161.006C161.132 161.337 158.932 161.405 156.7 161.206C154.757 161.184 152.85 161.319 150.979 161.607C150.807 161.705 150.631 161.806 150.45 161.908C147.838 161.942 145.256 162.042 142.704 162.208C142.478 162.16 142.301 162.229 142.176 162.409C140.442 162.343 138.741 162.411 137.071 162.609C134.769 162.689 132.481 162.557 130.205 162.208C129.686 162.056 129.216 161.788 128.797 161.407C128.72 161.092 128.544 160.858 128.269 160.705C127.513 160.507 126.838 160.14 126.245 159.603C126.138 159.088 126.225 158.621 126.509 158.2C126.648 158.144 126.765 158.044 126.861 157.9C126.535 157.048 126.417 156.18 126.509 155.295C125.838 153.735 125.193 152.164 124.572 150.585C124.921 150.126 125.126 149.591 125.188 148.982C125.832 148.204 126.624 147.737 127.565 147.579C127.883 147.851 128.147 147.784 128.357 147.379C128.794 148.054 129.234 148.088 129.678 147.479C130.746 147.242 131.802 146.942 132.846 146.577C133.364 146.896 133.834 146.83 134.254 146.377C134.482 146.772 134.774 146.772 135.135 146.377C135.319 146.554 135.524 146.687 135.751 146.777C136.47 146.769 137.203 146.735 137.952 146.677C137.715 147.043 137.804 147.277 138.215 147.379C138.586 147.123 138.938 146.923 139.271 146.777C139.448 146.911 139.624 147.045 139.8 147.178C140.015 147 140.249 146.867 140.504 146.777C141.36 146.662 142.211 146.528 143.056 146.377C143.34 146.541 143.457 146.808 143.409 147.178C143.741 147.219 144.006 147.085 144.201 146.777C144.553 146.911 144.905 147.045 145.257 147.178C145.499 146.835 145.793 146.568 146.137 146.377C146.246 146.567 146.216 146.734 146.049 146.878C146.523 146.777 146.993 146.81 147.457 146.978C148.279 146.889 149.072 146.688 149.834 146.377C150.559 146.37 151.262 146.437 151.946 146.577C152.372 146.406 152.812 146.273 153.267 146.176C153.531 146.381 153.795 146.582 154.059 146.777C154.799 146.383 155.503 146.517 156.171 147.178C156.23 146.978 156.289 146.777 156.347 146.577C156.928 146.745 157.515 146.946 158.108 147.178C158.382 147.072 158.646 146.939 158.9 146.777C159.447 147.107 159.857 146.973 160.132 146.377Z" fill="#C69263"/>
<path fill-rule="evenodd" clip-rule="evenodd" d="M100.983 147.779C101.234 147.795 101.469 147.729 101.687 147.579C102.249 147.853 102.836 148.02 103.447 148.08C103.712 148.247 103.917 148.481 104.063 148.781C104.152 148.681 104.24 148.581 104.328 148.481C105.311 148.232 106.192 148.433 106.969 149.082C107.472 149.922 108.088 150.623 108.817 151.186C109.601 152.759 109.865 154.429 109.609 156.196C109.149 156.385 108.798 156.719 108.553 157.198H108.201C107.222 157.776 106.401 158.577 105.736 159.603C104.239 160.303 102.772 161.038 101.335 161.808C100.819 161.822 100.35 161.954 99.927 162.208C99.3035 162.259 98.7171 162.393 98.1664 162.609C97.6132 162.774 97.0268 162.874 96.4058 162.91C96.3082 162.986 96.2495 163.086 96.2296 163.21H95.8782C94.2739 163.465 92.6894 163.665 91.1248 163.812C90.1523 163.748 89.2129 163.814 88.3082 164.012C86.249 163.962 84.1949 164.03 82.1465 164.212C78.8932 164.401 75.6656 164.601 72.4644 164.814C68.1212 164.808 63.7789 164.874 59.4373 165.014C59.0362 164.669 58.5665 164.535 58.029 164.613C56.877 163.657 55.6449 162.856 54.3325 162.208C54.1902 161.962 54.0149 161.762 53.8041 161.607C53.5378 161.269 53.3029 160.902 53.1003 160.505C53.2392 160.178 53.4154 159.878 53.6287 159.603C53.7958 159.293 53.8545 158.96 53.8041 158.601C54.172 158.611 54.4069 158.411 54.5086 158C54.378 157.411 54.2895 156.81 54.2448 156.196C53.527 155.347 52.9109 154.411 52.3957 153.391C52.2064 153.148 51.9715 153.016 51.692 152.99C51.4414 152.487 51.1487 152.02 50.8113 151.587C50.9039 151.048 51.1975 150.747 51.692 150.685C51.9269 150.15 52.2783 149.749 52.748 149.483C54.7369 149.22 56.7315 148.752 58.7336 148.08C60.4669 148.177 62.1688 148.077 63.8384 147.779C64.1204 147.79 64.3842 147.856 64.6306 147.98C65.2302 147.843 65.8463 147.643 66.4789 147.379C67.3331 147.895 68.1841 147.895 69.0317 147.379C69.4741 147.531 69.943 147.597 70.44 147.579C71.3323 147.382 72.1824 147.248 72.9929 147.178C73.5006 147.204 73.9414 147.404 74.3127 147.779C75.6954 147.601 77.1326 147.567 78.6261 147.679C79.1157 147.858 79.5854 148.092 80.0344 148.381C80.2693 147.996 80.5918 147.796 81.0028 147.779C81.4585 147.816 81.9274 147.882 82.4111 147.98C83.1124 147.602 83.8459 147.501 84.6117 147.679C84.7216 147.83 84.8093 147.997 84.8755 148.18C85.1293 147.906 85.4221 147.705 85.7554 147.579C86.9338 147.588 88.1072 147.588 89.2766 147.579C89.7587 147.736 90.2573 147.836 90.7725 147.88C90.8825 148.03 90.971 148.197 91.0372 148.381C91.1579 148.209 91.3051 148.075 91.4771 147.98C91.9758 147.996 92.5034 148.03 93.0616 148.08C93.2807 148.446 93.4866 148.412 93.6776 147.98C94.6402 148.118 95.6078 148.251 96.5819 148.381C97.3684 147.793 98.1606 147.726 98.9586 148.18C99.2778 148.182 99.5416 148.048 99.7508 147.779C100.159 148.014 100.57 148.014 100.983 147.779Z" fill="#C69263"/>
<path fill-rule="evenodd" clip-rule="evenodd" d="M159.548 100.152H159.724C159.994 100.479 160.346 100.646 160.78 100.653C162.777 100.772 164.771 100.905 166.766 101.054C167.279 101.08 167.691 101.314 167.998 101.755C168.408 101.622 168.82 101.488 169.23 101.354C171.046 101.579 172.864 101.612 174.688 101.455C174.885 101.405 175.061 101.304 175.216 101.154C177.937 100.964 180.638 100.63 183.314 100.152C183.729 100.187 184.14 100.254 184.547 100.352C185.018 100.345 185.458 100.478 185.866 100.753C186.435 101.534 187.109 102.169 187.891 102.657C188.264 103.514 188.734 104.282 189.299 104.962C189.5 105.859 189.383 106.728 188.947 107.567C188.349 108.048 187.878 108.649 187.538 109.371C187.421 109.905 187.304 110.439 187.187 110.974C187.046 111.283 186.988 111.617 187.011 111.976C186.763 112.071 186.646 112.271 186.659 112.577C186.54 112.644 186.425 112.711 186.306 112.777C185.185 112.953 184.069 112.953 182.962 112.777C182.702 113.268 182.496 113.201 182.346 112.577C182.12 113.024 181.799 113.358 181.378 113.579C181.149 113.461 181.002 113.26 180.938 112.978C180.657 113.153 180.394 113.354 180.145 113.579C180.018 113.416 179.873 113.283 179.705 113.178C179.275 113.2 178.836 113.2 178.385 113.178C178.082 113.466 177.73 113.632 177.329 113.679C176.331 113.746 175.334 113.813 174.336 113.88C173.815 113.936 173.346 114.103 172.928 114.381C171.839 114.18 170.754 114.18 169.671 114.381C169.341 114.339 169.049 114.206 168.79 113.98C168.048 114.462 167.313 114.462 166.59 113.98C165.495 114.101 164.409 114.235 163.333 114.381C162.909 113.988 162.469 113.988 162.013 114.381H160.78C159.393 114.509 158.043 114.342 156.732 113.88C157.042 113.258 157.335 112.623 157.612 111.976C157.509 111.675 157.363 111.408 157.172 111.174C156.866 111.857 156.69 112.592 156.644 113.379C156.438 113.658 156.173 113.825 155.852 113.88C154.877 113.927 153.908 114.027 152.947 114.18C151.467 114.154 149.97 114.12 148.458 114.08C147.996 113.892 147.527 113.725 147.05 113.579C146.901 113.196 146.841 112.796 146.873 112.377C145.586 111.877 144.412 112.11 143.353 113.078C142.225 113.004 141.14 113.037 140.097 113.178C139.218 112.844 138.309 112.677 137.368 112.677C137.25 112.41 137.133 112.143 137.015 111.876C136.733 111.821 136.469 111.721 136.223 111.575C135.477 111.974 134.714 112.04 133.935 111.775C132.24 112.218 130.567 112.786 128.918 113.479C128.785 113.613 128.727 113.78 128.742 113.98C127.964 114.159 127.318 114.56 126.805 115.182H126.453C122.154 115.507 117.87 115.441 113.602 114.982C112.753 114.868 111.903 114.934 111.05 115.182C110.516 115.226 109.959 115.159 109.377 114.982C108.859 115.131 108.331 115.231 107.793 115.282C103.42 115.376 99.0776 115.543 94.7658 115.783C92.2428 115.773 89.7189 115.706 87.1958 115.583C85.2541 115.809 83.3174 116.076 81.3873 116.385C80.3304 116.251 79.2744 116.117 78.2183 115.984C75.3 116.183 72.3957 116.25 69.5038 116.184C68.5065 116.051 67.5092 115.917 66.5119 115.783C63.8474 116.012 61.1771 116.046 58.5019 115.884C57.5178 114.795 56.3444 114.227 54.9807 114.18C54.3919 114.079 53.9818 113.711 53.7486 113.078C53.8511 112.899 53.9098 112.699 53.9247 112.477C53.7146 111.632 53.4806 110.797 53.221 109.972C52.8232 109.535 52.5594 109.001 52.4287 108.368C52.0136 108.13 51.6911 107.796 51.4604 107.366C50.8145 106.756 50.6384 106.021 50.9319 105.162C51.1172 105.192 51.2933 105.159 51.4604 105.062C52.2733 103.94 52.5668 102.637 52.3402 101.154C52.9299 101.187 53.517 101.154 54.1008 101.054C55.9731 100.298 57.8213 99.464 59.6456 98.549C59.8218 98.682 59.9979 98.816 60.174 98.95C61.6667 98.565 63.1337 98.565 64.5751 98.95C64.6603 98.76 64.6893 98.559 64.6628 98.348C65.6841 98.679 66.6814 98.612 67.6556 98.148C68.3767 98.493 69.111 98.56 69.8561 98.348C70.3854 98.619 70.913 98.686 71.4406 98.549C72.2038 98.682 72.9663 98.816 73.7296 98.95C76.5173 98.808 79.2752 98.808 82.0033 98.95C83.8805 98.792 85.7586 98.591 87.6366 98.348C89.3286 98.498 90.9717 98.565 92.5653 98.549C93.3873 98.415 94.2085 98.282 95.0296 98.148C97.0003 98.374 98.966 98.307 100.928 97.948C101.487 97.899 102.016 97.899 102.512 97.948C102.765 97.786 103.03 97.653 103.304 97.547C107.578 98.27 111.862 98.337 116.154 97.747C116.677 97.906 117.205 98.04 117.739 98.148C120.101 98.068 122.448 98.068 124.78 98.148C129.31 99.255 133.887 99.456 138.512 98.749C141.631 98.81 144.742 98.81 147.842 98.749C149.519 98.721 151.132 99.055 152.683 99.751C153.099 99.515 153.539 99.382 154.004 99.35C155.492 99.469 156.93 99.803 158.316 100.352C158.725 100.253 159.135 100.186 159.548 100.152Z" fill="#C69263"/>
<path fill-rule="evenodd" clip-rule="evenodd" d="M113.656 68.031H113.985C119.047 68.231 124.138 68.297 129.257 68.231C129.257 68.365 129.311 68.431 129.421 68.431C129.698 68.592 129.972 68.793 130.242 69.033C131.82 68.837 133.408 68.77 135.004 68.832H135.661C138.164 69.074 140.682 69.408 143.215 69.834C143.586 69.64 143.969 69.507 144.365 69.433H146.992C146.992 69.567 147.046 69.634 147.156 69.634C150.086 69.906 153.043 69.972 156.023 69.834H156.352C156.591 70.137 158.245 70.197 158.568 70.235C161.086 70.551 163.604 70.818 166.123 71.037C166.979 71.035 167.773 70.902 168.504 70.636H168.668C169.135 70.663 169.6 70.73 170.063 70.836C172.108 70.498 174.161 70.298 176.222 70.235H177.043V70.435C177.135 70.694 177.299 70.861 177.535 70.936C179.295 70.897 180.993 71.198 182.626 71.838C182.755 72.16 182.974 72.293 183.283 72.239C183.247 72.474 183.3 72.675 183.447 72.84C183.767 72.604 184.123 72.47 184.514 72.439C185.481 72.593 186.439 72.793 187.388 73.041C188.061 73.132 188.692 72.998 189.276 72.64C189.403 72.669 189.512 72.736 189.605 72.84C189.6 73.261 189.49 73.661 189.276 74.043C188.987 75.18 189.234 76.048 190.015 76.648C190.125 76.848 190.234 77.049 190.344 77.249C190.357 78.143 190.247 79.012 190.015 79.854C189.677 79.892 189.349 79.992 189.03 80.155C188.184 81.154 187.199 81.855 186.074 82.259C185.967 82.378 185.857 82.511 185.746 82.66C185.439 82.571 184.03 83.617 184.432 83.762C184.136 84.103 183.808 84.137 183.447 83.862C182.984 83.984 182.547 84.184 182.134 84.464C181.902 84.23 181.711 84.296 181.559 84.664C180.896 84.056 180.378 84.223 179.998 85.165C179.583 85.345 179.228 85.244 178.931 84.864C178.852 85.054 178.824 85.255 178.849 85.466C178.406 85.669 177.967 85.669 177.535 85.466C177.213 85.97 176.776 86.204 176.222 86.167C175.867 86.787 175.43 87.288 174.908 87.67C174.386 87.95 173.865 88.017 173.348 87.87C172.901 88.04 172.465 88.241 172.034 88.472C171.739 88.142 171.41 87.875 171.049 87.67C171.149 86.999 170.014 87.082 169.981 87.67C169.51 87.868 169.1 87.735 168.75 87.269C168.571 87.64 168.351 87.974 168.093 88.271C167.175 88.152 166.216 87.985 165.219 87.77C165.137 87.67 165.055 87.57 164.973 87.47C164.112 87.82 163.236 87.887 162.345 87.67C162.014 87.974 161.657 88.241 161.278 88.472C161.149 88.323 161.04 88.156 160.95 87.971C160.485 87.928 160.046 87.895 159.636 87.87C159.513 88.046 159.431 88.246 159.39 88.472C159.329 88.288 159.247 88.121 159.143 87.971C158.095 87.929 157.054 87.829 156.023 87.67C155.611 88.045 155.256 88.045 154.956 87.67C154.452 87.647 153.932 87.714 153.396 87.87C152.905 87.497 152.384 87.497 151.836 87.87C151.668 87.633 151.477 87.432 151.261 87.269C150.847 87.155 150.463 87.288 150.112 87.67C149.489 87.652 148.969 87.385 148.551 86.868C148.298 87.643 148.051 87.643 147.813 86.868C147.468 87.066 147.14 86.999 146.827 86.668C146.631 86.737 146.631 86.838 146.827 86.969C145.607 86.898 144.431 86.931 143.297 87.069C143.003 86.921 142.703 86.787 142.394 86.668C141.972 86.806 141.561 86.873 141.163 86.868C140.316 86.605 139.467 86.405 138.617 86.267C138.34 86.486 138.039 86.62 137.713 86.668C136.849 86.698 135.973 86.631 135.086 86.468C135.001 86.671 134.864 86.805 134.676 86.868C134.238 86.601 133.8 86.601 133.362 86.868C133.158 86.761 132.967 86.627 132.787 86.468C131.82 86.41 130.807 86.543 129.75 86.868C129.325 86.842 128.914 86.775 128.517 86.668C127.924 87.027 127.294 87.027 126.63 86.668C126.266 86.789 125.911 86.923 125.562 87.069C125.086 87.012 124.594 87.012 124.084 87.069C123.632 86.573 123.167 86.573 122.688 87.069C122.533 86.971 122.369 86.905 122.195 86.868C121.789 87.023 121.379 87.156 120.964 87.269C119.69 87.186 118.458 87.119 117.269 87.069C116.462 87.194 115.668 87.395 114.888 87.67C114.486 87.598 114.103 87.464 113.739 87.269C113.656 87.369 113.574 87.47 113.492 87.57C112.556 87.659 111.653 87.893 110.782 88.271C110.619 88.138 110.454 88.004 110.29 87.87C110.071 88.138 109.852 88.138 109.633 87.87C109.548 88.074 109.411 88.208 109.223 88.271C108.579 88.059 107.949 88.059 107.334 88.271C107.05 88.301 107.023 88.434 107.252 88.672C107.098 88.883 106.907 89.017 106.677 89.073C106.293 88.967 105.91 88.7 105.528 88.271C105.355 88.723 105.109 88.79 104.789 88.472C104.584 88.58 104.393 88.714 104.215 88.872C103.811 88.63 103.401 88.63 102.983 88.872C102.782 89.025 102.619 89.226 102.491 89.474C102.376 89.368 102.295 89.235 102.244 89.073C102.193 89.235 102.111 89.368 101.998 89.474C101.21 89.322 100.417 89.255 99.616 89.273C98.9081 89.807 98.1961 89.807 97.4816 89.273C96.8722 89.503 96.2428 89.637 95.5928 89.674C95.2414 89.651 94.9404 89.518 94.6898 89.273C94.3392 89.63 93.929 89.763 93.4585 89.674C93.4378 89.018 93.2186 88.985 92.8019 89.574C92.4405 89.649 92.0849 89.749 91.7342 89.875C91.0677 89.575 90.3292 89.441 89.5172 89.474V90.075C89.1227 90.002 88.739 89.868 88.3677 89.674C87.8897 89.811 87.4787 90.078 87.1363 90.476C86.7477 90.366 86.3921 90.166 86.0687 89.875C85.6437 89.962 85.26 90.162 84.9193 90.476C84.5893 90.306 84.3156 90.439 84.0981 90.877C83.6333 90.446 83.195 90.446 82.7849 90.877C82.4772 90.623 82.1762 90.623 81.8818 90.877C81.585 90.464 81.2285 90.397 80.8142 90.676C80.8423 90.941 80.7869 91.175 80.6497 91.378C80.127 91.471 79.6614 91.437 79.2537 91.277C78.4127 91.651 77.5916 91.651 76.7911 91.277C76.519 91.475 76.2453 91.675 75.9699 91.879C75.8334 91.712 75.6962 91.544 75.5597 91.378C74.8684 91.325 74.1845 91.225 73.5064 91.077C72.772 91.413 72.0335 91.646 71.2901 91.778C71.3447 91.712 71.3993 91.645 71.4538 91.578C71.257 91.397 71.1198 91.163 71.0437 90.877C70.2175 91.044 69.3964 91.245 68.5802 91.478C68.5198 91.195 68.3833 90.995 68.17 90.877C67.7689 91.176 67.3306 91.376 66.8559 91.478C66.5979 90.958 66.215 90.758 65.7065 90.877V90.275C64.6339 90.662 63.6209 90.529 62.669 89.875C61.7371 89.951 60.8067 89.818 59.8772 89.474C59.3653 89.529 58.8725 89.529 58.3994 89.474C58.3167 89.24 58.1803 89.073 57.9884 88.973C57.4162 88.652 56.8142 88.418 56.1824 88.271C55.7077 87.357 55.0511 86.755 54.2117 86.468H54.0471C53.8379 85.887 53.8379 85.286 54.0471 84.664C54.1489 84.642 54.2307 84.575 54.2936 84.464C54.4292 83.786 54.4019 83.118 54.2117 82.46C53.9537 81.898 53.6527 81.364 53.3087 80.856C52.6306 80.677 52.1377 80.209 51.8309 79.454C51.8507 78.119 51.8507 76.783 51.8309 75.445C51.5183 75.056 51.381 74.589 51.4199 74.043C51.6936 73.842 51.9128 73.575 52.0773 73.241C52.2402 73.275 52.3494 73.209 52.4056 73.041C53.1722 73.038 53.8834 72.838 54.54 72.439H54.7046C56.8935 71.978 59.0833 71.711 61.2731 71.638C61.503 71.543 61.7222 71.41 61.9297 71.237C65.3773 71.054 68.8258 70.92 72.275 70.836C74.4938 70.8 76.6835 70.666 78.8436 70.435C78.8436 70.302 78.8982 70.235 79.0081 70.235C81.3939 70.28 83.7475 70.146 86.0687 69.834H86.5616C88.5595 69.751 90.5302 69.618 92.4735 69.433C93.905 69.488 95.3282 69.422 96.7423 69.233C99.645 69.185 102.546 69.085 105.446 68.932C105.755 68.893 106.028 68.792 106.267 68.632C107.665 68.572 109.033 68.438 110.372 68.231C111.468 68.188 112.563 68.122 113.656 68.031Z" fill="#C69263"/>
<path fill-rule="evenodd" clip-rule="evenodd" d="M68.5967 38C70.6203 38.186 72.6745 38.32 74.7576 38.4C75.8913 38.709 77.0648 38.843 78.2788 38.801C80.1981 39.073 82.1349 39.374 84.0882 39.703C85.5006 39.763 86.9089 39.864 88.3131 40.004C90.0109 40.161 91.7128 40.228 93.4179 40.204C96.4115 40.238 99.4043 40.204 102.396 40.104C104.904 39.7 107.428 39.533 109.965 39.603C112.081 39.581 114.194 39.648 116.303 39.803C118.795 39.877 121.319 39.877 123.873 39.803C124.188 39.776 124.482 39.843 124.753 40.004C126.247 40.203 127.772 40.269 129.33 40.204C131.352 40.404 133.406 40.47 135.491 40.405C135.971 40.497 136.44 40.631 136.9 40.805H137.076C137.665 41.149 138.31 41.283 139.012 41.206H147.462C147.439 41.354 154.497 41.823 155.736 41.908C156.469 42.343 157.261 42.577 158.113 42.609C158.958 42.452 159.809 42.385 160.666 42.409C162.658 42.536 164.654 42.603 166.65 42.609H171.051C172.838 42.851 174.657 42.984 176.509 43.01H176.685C178.414 43.296 180.174 43.53 181.966 43.711C183.133 43.993 184.247 44.427 185.311 45.014C185.613 45.358 185.966 45.625 186.367 45.815C186.674 46.365 187.084 46.766 187.599 47.018C187.677 47.341 187.853 47.575 188.127 47.719C188.534 47.819 188.944 47.852 189.36 47.819C190.222 48.044 191.044 48.378 191.824 48.821C191.835 49.044 191.892 49.244 192 49.423V50.625C191.766 50.892 191.53 51.16 191.296 51.427C190.836 51.448 190.484 51.682 190.24 52.128C189.111 52.27 188.173 52.771 187.424 53.631C187.129 53.765 186.837 53.898 186.543 54.032C186.393 53.806 186.217 53.806 186.015 54.032C185.74 54.028 185.476 53.961 185.223 53.832C184.434 54.264 183.642 54.665 182.846 55.034C182.644 54.97 182.497 54.837 182.406 54.633C182.048 55.182 181.608 55.315 181.086 55.034C180.848 55.482 180.496 55.75 180.03 55.836C179.625 55.608 179.242 55.341 178.885 55.034C177.859 55.922 176.773 56.524 175.629 56.838C175.507 56.732 175.419 56.599 175.365 56.437C175.187 56.605 174.981 56.671 174.749 56.637C174.805 56.192 174.688 55.824 174.396 55.535C174.516 54.904 174.31 54.403 173.78 54.032C173.78 54.504 173.868 54.972 174.044 55.435C173.793 55.779 173.645 56.18 173.604 56.637C172.96 56.747 172.432 57.081 172.02 57.639C171.648 57.494 171.296 57.294 170.964 57.038C170.694 57.277 170.43 57.277 170.172 57.038C169.846 57.187 169.727 57.387 169.819 57.639C169.585 57.506 169.35 57.372 169.115 57.238C168.517 57.421 167.96 57.421 167.443 57.238C167.325 57.105 167.209 56.971 167.09 56.838C166.96 57.066 166.814 57.066 166.65 56.838C166.524 57.235 166.32 57.569 166.034 57.84C165.688 57.611 165.364 57.344 165.066 57.038C164.91 57.203 164.852 57.404 164.891 57.639C164.649 57.671 164.413 57.637 164.186 57.539C164.686 56.772 164.51 56.271 163.658 56.036C163.066 56.097 162.656 56.298 162.425 56.637C162.26 56.616 162.112 56.549 161.985 56.437C161.857 56.769 161.653 56.869 161.369 56.737C161.536 56.594 161.566 56.427 161.457 56.236C161.269 56.375 161.065 56.475 160.841 56.537C161.003 56.947 160.915 57.315 160.577 57.639C160.045 57.175 159.489 57.175 158.905 57.639C158.596 57.513 158.331 57.313 158.113 57.038C157.983 57.253 157.807 57.387 157.584 57.439C157.189 57.147 156.748 56.98 156.265 56.938C156.117 56.771 155.971 56.604 155.824 56.437C154.955 56.98 154.045 57.113 153.096 56.838C153.125 57.103 153.067 57.336 152.919 57.539C152.424 57.869 151.983 57.836 151.599 57.439C151.059 57.416 150.501 57.483 149.927 57.639C149.628 57.466 149.423 57.199 149.311 56.838C148.837 56.939 148.572 57.173 148.518 57.539C148.178 57.589 147.855 57.69 147.55 57.84C147.433 57.706 147.316 57.572 147.199 57.439C146.905 57.706 146.611 57.706 146.318 57.439C146.032 58.054 145.65 58.155 145.174 57.739C145.291 57.606 145.408 57.472 145.526 57.339C145.238 57.24 144.945 57.206 144.646 57.238V57.84C144.346 57.814 144.083 57.681 143.853 57.439C143.304 57.963 142.687 58.364 142.005 58.641C141.675 58.387 141.353 58.387 141.037 58.641C140.811 58.426 140.752 58.159 140.861 57.84C140.333 57.286 139.717 57.119 139.012 57.339C138.466 58.308 137.85 58.409 137.164 57.639C136.808 57.938 136.515 57.871 136.283 57.439C135.784 57.608 135.461 57.975 135.315 58.541C134.997 58.532 134.703 58.565 134.435 58.641C134.263 58.546 134.117 58.412 133.995 58.24C133.87 58.536 133.665 58.669 133.379 58.641V57.84C133.693 57.897 133.987 57.83 134.259 57.639C134.083 57.572 133.907 57.506 133.731 57.439C133.381 57.572 133.058 57.572 132.763 57.439C132.646 57.706 132.528 57.973 132.411 58.24C132.066 58.082 131.801 57.815 131.619 57.439C131.39 57.557 131.243 57.757 131.179 58.04C130.606 58.02 130.018 57.953 129.418 57.84C129.359 57.973 129.301 58.107 129.242 58.24C129.032 58.054 128.797 57.92 128.538 57.84C128.245 58.107 127.951 58.107 127.657 57.84C127.193 57.92 126.783 58.121 126.425 58.441C126.353 58.349 126.265 58.282 126.161 58.24C126.103 58.508 126.044 58.775 125.985 59.042C125.868 58.908 125.75 58.775 125.633 58.641C125.348 59.03 125.025 59.097 124.666 58.842C124.548 58.975 124.431 59.109 124.313 59.242C124.016 58.777 123.692 58.677 123.345 58.942C123.557 59.146 123.499 59.246 123.169 59.242C122.639 58.689 122.257 58.822 122.024 59.643C121.787 58.601 121.581 58.601 121.408 59.643C121.171 59.215 120.877 59.148 120.528 59.443C120.562 59.205 120.474 58.937 120.264 58.641C120.176 58.842 120.088 59.042 120 59.242C119.506 59.394 119.036 59.594 118.591 59.844C118.266 59.729 117.942 59.662 117.624 59.643C117.493 59.858 117.317 59.992 117.096 60.044C116.826 59.805 116.561 59.805 116.303 60.044C115.804 59.414 115.275 59.348 114.719 59.844C114.454 59.733 114.161 59.733 113.839 59.844C113.78 58.508 113.722 58.508 113.663 59.844C113.049 59.593 112.404 59.426 111.726 59.343C111.583 58.965 111.348 58.831 111.022 58.942C111.256 59.076 111.256 59.209 111.022 59.343C110.729 59.376 110.435 59.409 110.142 59.443C109.377 59.308 108.615 59.175 107.853 59.042V59.643C107.268 59.446 106.74 59.513 106.269 59.844C105.839 59.544 105.369 59.344 104.861 59.242C104.738 59.62 104.562 59.687 104.332 59.443C104.202 59.893 103.967 60.26 103.628 60.545C103.123 60.608 102.624 60.708 102.132 60.846C101.301 60.361 100.479 60.361 99.6673 60.846C99.2993 60.83 98.9181 60.763 98.5236 60.645C97.9108 61.184 97.4113 61.05 97.0268 60.244C96.8482 60.472 96.7308 60.405 96.6745 60.044C96.5902 60.234 96.5604 60.434 96.5869 60.645C95.5986 60.591 94.6311 60.591 93.6817 60.645C93.2881 60.534 92.9367 60.333 92.6257 60.044C92.4645 60.21 92.3479 60.41 92.2734 60.645C92.1436 60.417 91.9964 60.417 91.8335 60.645C91.5027 60.416 91.1802 60.216 90.8651 60.044C90.7998 60.228 90.7113 60.395 90.6013 60.545C89.8976 60.581 89.2228 60.547 88.5769 60.445C88.1684 60.577 87.7872 60.777 87.4324 61.046C87.0181 60.927 86.6369 60.726 86.2887 60.445C85.7396 60.452 85.1822 60.519 84.6158 60.645C84.4983 60.378 84.3817 60.111 84.2643 59.844C83.826 59.949 83.415 60.116 83.0321 60.345C83.1487 60.411 83.2662 60.478 83.3836 60.545C83.1884 60.673 82.9834 60.773 82.7675 60.846C82.1787 60.514 81.6213 60.113 81.0954 59.643C80.5339 60.103 79.9468 60.303 79.3348 60.244C79.4522 60.111 79.5697 59.977 79.6871 59.844C79.4555 59.48 79.1917 59.146 78.8949 58.842C78.7741 59.099 78.8039 59.333 78.9825 59.543C78.7195 59.645 78.5136 59.544 78.3664 59.242C78.0919 59.587 77.9455 59.987 77.9265 60.445C77.5725 60.548 77.2203 60.581 76.8705 60.545C76.6389 60.266 76.6976 60.065 77.0466 59.944C76.8117 59.877 76.5769 59.81 76.342 59.743C76.7108 59.632 76.7406 59.532 76.4305 59.443C75.759 59.738 75.0834 59.805 74.4061 59.643C73.7569 59.792 73.6395 60.092 74.0538 60.545C73.6304 60.701 73.3369 60.534 73.1731 60.044C72.7836 60.259 72.3726 60.393 71.9409 60.445C71.5308 60.178 71.1198 60.178 70.7088 60.445C70.3408 60.448 70.0174 60.314 69.7404 60.044C69.6197 60.216 69.4725 60.349 69.3005 60.445C68.7439 60.281 68.2453 60.014 67.8045 59.643C67.6961 59.967 67.52 60.234 67.2761 60.445C67.042 60.246 66.8072 60.045 66.5723 59.844C66.206 60.048 65.9124 59.914 65.6916 59.443C65.0821 59.959 64.466 59.959 63.8433 59.443C63.4729 59.609 63.1206 59.676 62.7873 59.643C62.3242 59.165 61.9719 59.299 61.7313 60.044C61.4013 59.756 61.049 59.523 60.6744 59.343C60.4288 59.223 60.194 59.257 59.9707 59.443C59.63 59.029 59.2487 59.029 58.8262 59.443C58.6045 59.391 58.4284 59.257 58.2986 59.042C58.0207 59.312 57.6982 59.446 57.3302 59.443C56.1799 59.116 55.0651 58.749 53.9851 58.341C53.5196 58.241 53.0498 58.208 52.5768 58.24C52.5479 57.569 52.5776 56.901 52.6653 56.236C52.8406 56.036 53.0168 55.836 53.1929 55.635C53.336 54.729 53.307 53.861 53.1052 53.03C52.8704 52.896 52.8704 52.763 53.1052 52.629C53.326 50.877 52.8853 49.341 51.7846 48.02C51.1925 46.606 50.9874 45.137 51.1685 43.611H49.7602C49.7412 43.153 49.5948 42.753 49.3202 42.409C49.2615 42.475 49.2028 42.542 49.1441 42.609C49.0192 42.314 48.8141 42.18 48.528 42.208C48.5553 41.933 48.5264 41.666 48.4404 41.407C48.3229 41.674 48.2055 41.674 48.0881 41.407C47.9706 41.006 47.9706 40.605 48.0881 40.204C48.3337 39.941 48.5098 40.008 48.6157 40.405C49.0829 39.988 49.5816 39.654 50.1125 39.403H50.4648C51.2297 39.436 51.9922 39.402 52.753 39.302C52.8505 39.226 52.9093 39.125 52.9291 39.002H53.1052C54.1853 39.066 55.2413 38.933 56.2733 38.601C57.3906 38.634 58.5053 38.601 59.6184 38.501C59.95 38.461 60.2427 38.361 60.4983 38.2H61.379C63.7854 38.172 66.1919 38.105 68.5967 38Z" fill="#C69263"/>
</svg>
